<?xml version="1.0" standalone="no"?>
<!DOCTYPE svg PUBLIC "-//W3C//DTD SVG 1.1//EN" "http://www.w3.org/Graphics/SVG/1.1/DTD/svg11.dtd" >
<svg>
<metadata>
Created by FontForge 20090622 at Tue Dec 19 04:49:33 2017
 By ffonts
Copyright 2017 The Archivo Project Authors (https://github.com/Omnibus-Type/Archivo)
</metadata>
<defs>
<font id="ArchivoVFBeta-Regular" horiz-adv-x="556" >
  <font-face 
    font-family="Archivo VF Beta"
    font-weight="400"
    font-stretch="normal"
    units-per-em="1000"
    panose-1="0 0 0 0 0 0 0 0 0 0"
    ascent="800"
    descent="-200"
    x-height="526"
    cap-height="686"
    bbox="-226 -250 1311 1035"
    underline-thickness="50"
    underline-position="-75"
    unicode-range="U+000D-U+FB02"
  />
    <missing-glyph />
    <glyph glyph-name="f_f" unicode="ff" 
d="M364 0v453h-117v73h117v84q0 30 10 58t34.5 45.5t69.5 17.5q20 0 41 -3.5t34 -8.5v-61h-52q-49 0 -49 -48v-84h101v-73h-101v-453h-88zM86 0v453h-77v73h77v84q0 30 10 58t34.5 45.5t69.5 17.5q20 0 41 -3.5t34 -8.5v-61h-52q-49 0 -49 -48v-84h101v-73h-101v-453h-88z
" />
    <glyph glyph-name="fi" unicode="fi" horiz-adv-x="500" 
d="M86 0v453h-77v73h77v84q0 30 10 58t34.5 45.5t69.5 17.5q20 0 41 -3.5t34 -8.5v-61h-52q-49 0 -49 -48v-84h101v-73h-101v-453h-88zM345 0v526h88v-526h-88zM345 625v98h88v-98h-88z" />
    <glyph glyph-name="fl" unicode="fl" horiz-adv-x="500" 
d="M86 0v453h-77v73h77v84q0 30 10 58t34.5 45.5t69.5 17.5q20 0 41 -3.5t34 -8.5v-61h-52q-49 0 -49 -48v-84h101v-73h-101v-453h-88zM345 0v723h88v-723h-88z" />
    <glyph glyph-name="firsttonechinese" horiz-adv-x="501" 
d="M0 0v700h500v-700h-500zM80 50h340l-170 255zM50 95l170 255l-170 255v-510zM450 95v510l-170 -255zM250 395l170 255h-340z" />
    <glyph glyph-name="A" unicode="A" horiz-adv-x="667" 
d="M7 0l266 686h121l266 -686h-101l-69 183h-318l-67 -183h-98zM203 266h256l-80 214q-6 15 -11.5 30.5l-11.5 31.5l-11.5 31.5t-11.5 30.5h-5q-6 -15 -11.5 -30.5l-11 -30.5l-11 -30.5t-11.5 -30.5z" />
    <glyph glyph-name="Aacute" unicode="&#xc1;" horiz-adv-x="667" 
d="M7 0l266 686h121l266 -686h-101l-69 183h-318l-67 -183h-98zM203 266h256l-80 214q-6 15 -11.5 30.5l-11.5 31.5l-11.5 31.5t-11.5 30.5h-5q-6 -15 -11.5 -30.5l-11 -30.5l-11 -30.5t-11.5 -30.5zM296 736l86 132h96l1 -3l-108 -129h-75z" />
    <glyph glyph-name="Abreve" unicode="&#x102;" horiz-adv-x="667" 
d="M7 0l266 686h121l266 -686h-101l-69 183h-318l-67 -183h-98zM203 266h256l-80 214q-6 15 -11.5 30.5l-11.5 31.5l-11.5 31.5t-11.5 30.5h-5q-6 -15 -11.5 -30.5l-11 -30.5l-11 -30.5t-11.5 -30.5zM333 751q-56 0 -87.5 18t-44.5 45t-13 54h61q2 -11 9.5 -23.5t25 -21
t49.5 -8.5q48 0 65.5 18t19.5 35h61q0 -27 -13 -54t-45 -45t-88 -18z" />
    <glyph glyph-name="uni1EAE" unicode="&#x1eae;" horiz-adv-x="667" 
d="M7 0l266 686h121l266 -686h-101l-69 183h-318l-67 -183h-98zM203 266h256l-80 214q-6 15 -11.5 30.5l-11.5 31.5l-11.5 31.5t-11.5 30.5h-5q-6 -15 -11.5 -30.5l-11 -30.5l-11 -30.5t-11.5 -30.5zM333 751q-56 0 -87.5 18t-44.5 45t-13 54h61q2 -11 9.5 -23.5t25 -21
t49.5 -8.5q48 0 65.5 18t19.5 35h61q0 -27 -13 -54t-45 -45t-88 -18zM296 868l86 132h96l1 -3l-108 -129h-75z" />
    <glyph glyph-name="uni1EB6" unicode="&#x1eb6;" horiz-adv-x="667" 
d="M7 0l266 686h121l266 -686h-101l-69 183h-318l-67 -183h-98zM203 266h256l-80 214q-6 15 -11.5 30.5l-11.5 31.5l-11.5 31.5t-11.5 30.5h-5q-6 -15 -11.5 -30.5l-11 -30.5l-11 -30.5t-11.5 -30.5zM333 751q-56 0 -87.5 18t-44.5 45t-13 54h61q2 -11 9.5 -23.5t25 -21
t49.5 -8.5q48 0 65.5 18t19.5 35h61q0 -27 -13 -54t-45 -45t-88 -18zM290 -173v95h87v-95h-87z" />
    <glyph glyph-name="uni1EB0" unicode="&#x1eb0;" horiz-adv-x="667" 
d="M7 0l266 686h121l266 -686h-101l-69 183h-318l-67 -183h-98zM203 266h256l-80 214q-6 15 -11.5 30.5l-11.5 31.5l-11.5 31.5t-11.5 30.5h-5q-6 -15 -11.5 -30.5l-11 -30.5l-11 -30.5t-11.5 -30.5zM333 751q-56 0 -87.5 18t-44.5 45t-13 54h61q2 -11 9.5 -23.5t25 -21
t49.5 -8.5q48 0 65.5 18t19.5 35h61q0 -27 -13 -54t-45 -45t-88 -18zM293 868l-108 129l1 3h96l86 -132h-75z" />
    <glyph glyph-name="uni1EB2" unicode="&#x1eb2;" horiz-adv-x="667" 
d="M7 0l266 686h121l266 -686h-101l-69 183h-318l-67 -183h-98zM203 266h256l-80 214q-6 15 -11.5 30.5l-11.5 31.5l-11.5 31.5t-11.5 30.5h-5q-6 -15 -11.5 -30.5l-11 -30.5l-11 -30.5t-11.5 -30.5zM333 751q-56 0 -87.5 18t-44.5 45t-13 54h61q2 -11 9.5 -23.5t25 -21
t49.5 -8.5q48 0 65.5 18t19.5 35h61q0 -27 -13 -54t-45 -45t-88 -18zM306 868v61h13q16 0 22.5 4.5t6.5 13.5q0 10 -8 14t-23 4h-60v39q16 4 36 6t36 2q19 0 40.5 -5t36 -17.5t14.5 -37.5q0 -27 -18 -40.5t-40 -15.5v-28h-56z" />
    <glyph glyph-name="uni1EB4" unicode="&#x1eb4;" horiz-adv-x="667" 
d="M7 0l266 686h121l266 -686h-101l-69 183h-318l-67 -183h-98zM203 266h256l-80 214q-6 15 -11.5 30.5l-11.5 31.5l-11.5 31.5t-11.5 30.5h-5q-6 -15 -11.5 -30.5l-11 -30.5l-11 -30.5t-11.5 -30.5zM333 751q-56 0 -87.5 18t-44.5 45t-13 54h61q2 -11 9.5 -23.5t25 -21
t49.5 -8.5q48 0 65.5 18t19.5 35h61q0 -27 -13 -54t-45 -45t-88 -18zM172 924q0 42 20 73t65 31q28 0 52.5 -7.5t48 -15.5t48.5 -8q11 0 19 7t9 24h65q0 -42 -20 -73t-65 -31q-28 0 -52.5 7.5t-48 15.5t-48.5 8q-11 0 -18.5 -7t-9.5 -24h-65z" />
    <glyph glyph-name="uni01CD" unicode="&#x1cd;" horiz-adv-x="667" 
d="M7 0l266 686h121l266 -686h-101l-69 183h-318l-67 -183h-98zM203 266h256l-80 214q-6 15 -11.5 30.5l-11.5 31.5l-11.5 31.5t-11.5 30.5h-5q-6 -15 -11.5 -30.5l-11 -30.5l-11 -30.5t-11.5 -30.5zM292 733l-106 135h90l58 -79l57 79h90l-105 -135h-84z" />
    <glyph glyph-name="Acircumflex" unicode="&#xc2;" horiz-adv-x="667" 
d="M7 0l266 686h121l266 -686h-101l-69 183h-318l-67 -183h-98zM203 266h256l-80 214q-6 15 -11.5 30.5l-11.5 31.5l-11.5 31.5t-11.5 30.5h-5q-6 -15 -11.5 -30.5l-11 -30.5l-11 -30.5t-11.5 -30.5zM186 733l106 135h84l105 -135h-90l-57 79l-58 -79h-90z" />
    <glyph glyph-name="uni1EA4" unicode="&#x1ea4;" horiz-adv-x="667" 
d="M7 0l266 686h121l266 -686h-101l-69 183h-318l-67 -183h-98zM203 266h256l-80 214q-6 15 -11.5 30.5l-11.5 31.5l-11.5 31.5t-11.5 30.5h-5q-6 -15 -11.5 -30.5l-11 -30.5l-11 -30.5t-11.5 -30.5zM186 733l106 135h84l105 -135h-90l-57 79l-58 -79h-90zM428 831l86 132
h96l1 -3l-108 -129h-75z" />
    <glyph glyph-name="uni1EAC" unicode="&#x1eac;" horiz-adv-x="667" 
d="M7 0l266 686h121l266 -686h-101l-69 183h-318l-67 -183h-98zM203 266h256l-80 214q-6 15 -11.5 30.5l-11.5 31.5l-11.5 31.5t-11.5 30.5h-5q-6 -15 -11.5 -30.5l-11 -30.5l-11 -30.5t-11.5 -30.5zM186 733l106 135h84l105 -135h-90l-57 79l-58 -79h-90zM290 -173v95h87
v-95h-87z" />
    <glyph glyph-name="uni1EA6" unicode="&#x1ea6;" horiz-adv-x="667" 
d="M7 0l266 686h121l266 -686h-101l-69 183h-318l-67 -183h-98zM203 266h256l-80 214q-6 15 -11.5 30.5l-11.5 31.5l-11.5 31.5t-11.5 30.5h-5q-6 -15 -11.5 -30.5l-11 -30.5l-11 -30.5t-11.5 -30.5zM186 733l106 135h84l105 -135h-90l-57 79l-58 -79h-90zM468 831l-108 129
l1 3h96l86 -132h-75z" />
    <glyph glyph-name="uni1EA8" unicode="&#x1ea8;" horiz-adv-x="667" 
d="M7 0l266 686h121l266 -686h-101l-69 183h-318l-67 -183h-98zM203 266h256l-80 214q-6 15 -11.5 30.5l-11.5 31.5l-11.5 31.5t-11.5 30.5h-5q-6 -15 -11.5 -30.5l-11 -30.5l-11 -30.5t-11.5 -30.5zM186 733l106 135h84l105 -135h-90l-57 79l-58 -79h-90zM438 831v61h13
q16 0 22.5 4.5t6.5 13.5q0 10 -8 14t-23 4h-60v39q16 4 36 6t36 2q19 0 40.5 -5t36 -17.5t14.5 -37.5q0 -27 -18 -40.5t-40 -15.5v-28h-56z" />
    <glyph glyph-name="uni1EAA" unicode="&#x1eaa;" horiz-adv-x="667" 
d="M7 0l266 686h121l266 -686h-101l-69 183h-318l-67 -183h-98zM203 266h256l-80 214q-6 15 -11.5 30.5l-11.5 31.5l-11.5 31.5t-11.5 30.5h-5q-6 -15 -11.5 -30.5l-11 -30.5l-11 -30.5t-11.5 -30.5zM186 733l106 135h84l105 -135h-90l-57 79l-58 -79h-90zM172 924
q0 42 20 73t65 31q28 0 52.5 -7.5t48 -15.5t48.5 -8q11 0 19 7t9 24h65q0 -42 -20 -73t-65 -31q-28 0 -52.5 7.5t-48 15.5t-48.5 8q-11 0 -18.5 -7t-9.5 -24h-65z" />
    <glyph glyph-name="uni0200" unicode="&#x200;" horiz-adv-x="667" 
d="M7 0l266 686h121l266 -686h-101l-69 183h-318l-67 -183h-98zM203 266h256l-80 214q-6 15 -11.5 30.5l-11.5 31.5l-11.5 31.5t-11.5 30.5h-5q-6 -15 -11.5 -30.5l-11 -30.5l-11 -30.5t-11.5 -30.5zM380 736l-84 129l1 3h97l62 -132h-76zM241 736l-84 129l1 3h97l62 -132
h-76z" />
    <glyph glyph-name="Adieresis" unicode="&#xc4;" horiz-adv-x="667" 
d="M7 0l266 686h121l266 -686h-101l-69 183h-318l-67 -183h-98zM203 266h256l-80 214q-6 15 -11.5 30.5l-11.5 31.5l-11.5 31.5t-11.5 30.5h-5q-6 -15 -11.5 -30.5l-11 -30.5l-11 -30.5t-11.5 -30.5zM384 773v95h87v-95h-87zM197 773v95h87v-95h-87z" />
    <glyph glyph-name="uni1EA0" unicode="&#x1ea0;" horiz-adv-x="667" 
d="M7 0l266 686h121l266 -686h-101l-69 183h-318l-67 -183h-98zM203 266h256l-80 214q-6 15 -11.5 30.5l-11.5 31.5l-11.5 31.5t-11.5 30.5h-5q-6 -15 -11.5 -30.5l-11 -30.5l-11 -30.5t-11.5 -30.5zM290 -173v95h87v-95h-87z" />
    <glyph glyph-name="Agrave" unicode="&#xc0;" horiz-adv-x="667" 
d="M7 0l266 686h121l266 -686h-101l-69 183h-318l-67 -183h-98zM203 266h256l-80 214q-6 15 -11.5 30.5l-11.5 31.5l-11.5 31.5t-11.5 30.5h-5q-6 -15 -11.5 -30.5l-11 -30.5l-11 -30.5t-11.5 -30.5zM296 736l-108 129l1 3h96l86 -132h-75z" />
    <glyph glyph-name="uni1EA2" unicode="&#x1ea2;" horiz-adv-x="667" 
d="M7 0l266 686h121l266 -686h-101l-69 183h-318l-67 -183h-98zM203 266h256l-80 214q-6 15 -11.5 30.5l-11.5 31.5l-11.5 31.5t-11.5 30.5h-5q-6 -15 -11.5 -30.5l-11 -30.5l-11 -30.5t-11.5 -30.5zM306 736v61h13q16 0 22.5 4.5t6.5 13.5q0 10 -8 14t-23 4h-60v39
q16 4 36 6t36 2q19 0 40.5 -5t36 -17.5t14.5 -37.5q0 -27 -18 -40.5t-40 -15.5v-28h-56z" />
    <glyph glyph-name="uni0202" unicode="&#x202;" horiz-adv-x="667" 
d="M7 0l266 686h121l266 -686h-101l-69 183h-318l-67 -183h-98zM203 266h256l-80 214q-6 15 -11.5 30.5l-11.5 31.5l-11.5 31.5t-11.5 30.5h-5q-6 -15 -11.5 -30.5l-11 -30.5l-11 -30.5t-11.5 -30.5zM188 751q0 28 13 54.5t44.5 44.5t87.5 18t88 -18t45 -44.5t13 -54.5h-61
q-2 16 -19.5 34.5t-65.5 18.5q-32 0 -49.5 -8.5t-25 -21t-9.5 -23.5h-61z" />
    <glyph glyph-name="Amacron" unicode="&#x100;" horiz-adv-x="667" 
d="M7 0l266 686h121l266 -686h-101l-69 183h-318l-67 -183h-98zM203 266h256l-80 214q-6 15 -11.5 30.5l-11.5 31.5l-11.5 31.5t-11.5 30.5h-5q-6 -15 -11.5 -30.5l-11 -30.5l-11 -30.5t-11.5 -30.5zM181 772v72h305v-72h-305z" />
    <glyph glyph-name="Aogonek" unicode="&#x104;" horiz-adv-x="667" 
d="M597 -182q-21 0 -42.5 8t-35.5 28t-14 54q0 32 16 53.5t38 38.5l-69 183h-318l-67 -183h-98l266 686h121l266 -686h-36q-16 -13 -29 -31.5t-13 -40.5t12 -33.5t34 -11.5h32v-51q-15 -7 -31.5 -10.5t-31.5 -3.5zM203 266h256l-80 214q-6 15 -11.5 30.5l-11.5 31.5
l-11.5 31.5t-11.5 30.5h-5q-6 -15 -11.5 -30.5l-11 -30.5l-11 -30.5t-11.5 -30.5z" />
    <glyph glyph-name="Aring" unicode="&#xc5;" horiz-adv-x="667" 
d="M7 0l266 686h121l266 -686h-101l-69 183h-318l-67 -183h-98zM203 266h256l-80 214q-6 15 -11.5 30.5l-11.5 31.5l-11.5 31.5t-11.5 30.5h-5q-6 -15 -11.5 -30.5l-11 -30.5l-11 -30.5t-11.5 -30.5zM334 711q-45 0 -70.5 28t-25.5 68t25.5 68t70.5 28t70.5 -28t25.5 -68
t-25.5 -68t-70.5 -28zM334 756q23 0 37 15t14 36t-14 36t-37 15t-37 -15t-14 -36t14 -36t37 -15z" />
    <glyph glyph-name="Aringacute" unicode="&#x1fa;" horiz-adv-x="667" 
d="M7 0l260 671q-30 27 -30 72q0 40 25.5 68t70.5 28t70.5 -28t25.5 -68q0 -22 -7.5 -40.5t-21.5 -31.5l260 -671h-101l-69 183h-318l-67 -183h-98zM203 266h256l-80 214q-6 15 -11.5 30.5l-11.5 31.5l-11.5 31.5t-11.5 30.5h-5q-6 -15 -11.5 -30.5l-11 -30.5l-11 -30.5
t-11.5 -30.5zM333 692q23 0 37 15t14 36t-14 36t-37 15t-37 -15t-14 -36t14 -36t37 -15zM296 861l86 132h96l1 -3l-108 -129h-75z" />
    <glyph glyph-name="Atilde" unicode="&#xc3;" horiz-adv-x="667" 
d="M7 0l266 686h121l266 -686h-101l-69 183h-318l-67 -183h-98zM203 266h256l-80 214q-6 15 -11.5 30.5l-11.5 31.5l-11.5 31.5t-11.5 30.5h-5q-6 -15 -11.5 -30.5l-11 -30.5l-11 -30.5t-11.5 -30.5zM170 764q0 42 20 73t65 31q28 0 52.5 -7.5t48 -15.5t48.5 -8q11 0 19 7
t9 24h65q0 -42 -20 -73t-65 -31q-28 0 -52.5 7.5t-48 15.5t-48.5 8q-11 0 -18.5 -7t-9.5 -24h-65z" />
    <glyph glyph-name="AE" unicode="&#xc6;" horiz-adv-x="1000" 
d="M-1 0l346 686h595v-83h-445l59 -211h342v-83h-318l63 -226h305v-83h-380l-51 183h-331l-90 -183h-95zM225 266h267l-94 337h-5z" />
    <glyph glyph-name="AEacute" unicode="&#x1fc;" horiz-adv-x="1000" 
d="M-1 0l346 686h595v-83h-445l59 -211h342v-83h-318l63 -226h305v-83h-380l-51 183h-331l-90 -183h-95zM225 266h267l-94 337h-5zM462 736l86 132h96l1 -3l-108 -129h-75z" />
    <glyph glyph-name="B" unicode="B" horiz-adv-x="667" 
d="M79 0v686h331q57 0 100 -21t67 -59t24 -88q0 -59 -32.5 -100.5t-81.5 -57.5v-4q57 -14 95 -56t38 -118q0 -64 -27.5 -104t-75 -59t-107.5 -19h-331zM174 83h234q52 0 83.5 25t31.5 86q0 58 -31 87t-91 29h-227v-227zM174 393h217q51 0 82 29.5t31 76.5q0 54 -29 79
t-76 25h-225v-210z" />
    <glyph glyph-name="C" unicode="C" horiz-adv-x="722" 
d="M381 -12q-110 0 -184.5 39t-112 118t-37.5 198q0 179 84.5 267t249.5 88q86 0 152.5 -28.5t104.5 -86t38 -145.5h-97q0 90 -53.5 134.5t-144.5 44.5q-119 0 -177 -63t-59 -209v-2q0 -147 58 -210.5t178 -63.5q92 0 147 44t55 133h93q0 -88 -38 -145.5t-104.5 -85
t-152.5 -27.5z" />
    <glyph glyph-name="Cacute" unicode="&#x106;" horiz-adv-x="722" 
d="M381 -12q-110 0 -184.5 39t-112 118t-37.5 198q0 179 84.5 267t249.5 88q86 0 152.5 -28.5t104.5 -86t38 -145.5h-97q0 90 -53.5 134.5t-144.5 44.5q-119 0 -177 -63t-59 -209v-2q0 -147 58 -210.5t178 -63.5q92 0 147 44t55 133h93q0 -88 -38 -145.5t-104.5 -85
t-152.5 -27.5zM323 736l86 132h96l1 -3l-108 -129h-75z" />
    <glyph glyph-name="Ccaron" unicode="&#x10c;" horiz-adv-x="722" 
d="M381 -12q-110 0 -184.5 39t-112 118t-37.5 198q0 179 84.5 267t249.5 88q86 0 152.5 -28.5t104.5 -86t38 -145.5h-97q0 90 -53.5 134.5t-144.5 44.5q-119 0 -177 -63t-59 -209v-2q0 -147 58 -210.5t178 -63.5q92 0 147 44t55 133h93q0 -88 -38 -145.5t-104.5 -85
t-152.5 -27.5zM319 733l-106 135h90l58 -79l57 79h90l-105 -135h-84z" />
    <glyph glyph-name="Ccedilla" unicode="&#xc7;" horiz-adv-x="722" 
d="M408 4l-6 -40q37 -2 64.5 -16t27.5 -49q0 -33 -19.5 -50.5t-47 -24t-51.5 -6.5t-49.5 2t-45.5 6v49h100q19 0 30 5t11 19q0 12 -8 18t-31 6h-51l15 82zM381 -12q-110 0 -184.5 39t-112 118t-37.5 198q0 179 84.5 267t249.5 88q86 0 152.5 -28.5t104.5 -86t38 -145.5h-97
q0 90 -53.5 134.5t-144.5 44.5q-119 0 -177 -63t-59 -209v-2q0 -147 58 -210.5t178 -63.5q92 0 147 44t55 133h93q0 -88 -38 -145.5t-104.5 -85t-152.5 -27.5z" />
    <glyph glyph-name="Ccircumflex" unicode="&#x108;" horiz-adv-x="722" 
d="M381 -12q-110 0 -184.5 39t-112 118t-37.5 198q0 179 84.5 267t249.5 88q86 0 152.5 -28.5t104.5 -86t38 -145.5h-97q0 90 -53.5 134.5t-144.5 44.5q-119 0 -177 -63t-59 -209v-2q0 -147 58 -210.5t178 -63.5q92 0 147 44t55 133h93q0 -88 -38 -145.5t-104.5 -85
t-152.5 -27.5zM213 733l106 135h84l105 -135h-90l-57 79l-58 -79h-90z" />
    <glyph glyph-name="Cdotaccent" unicode="&#x10a;" horiz-adv-x="722" 
d="M381 -12q-110 0 -184.5 39t-112 118t-37.5 198q0 179 84.5 267t249.5 88q86 0 152.5 -28.5t104.5 -86t38 -145.5h-97q0 90 -53.5 134.5t-144.5 44.5q-119 0 -177 -63t-59 -209v-2q0 -147 58 -210.5t178 -63.5q92 0 147 44t55 133h93q0 -88 -38 -145.5t-104.5 -85
t-152.5 -27.5zM317 773v95h87v-95h-87z" />
    <glyph glyph-name="D" unicode="D" horiz-adv-x="722" 
d="M79 0v686h254q161 0 252 -82t91 -261t-91 -261t-252 -82h-254zM174 83h159q75 0 130 24.5t85 81t30 152.5v2q0 97 -29.5 153.5t-84.5 81.5t-131 25h-159v-520z" />
    <glyph glyph-name="uni01F1" unicode="&#x1f1;" horiz-adv-x="1333" 
d="M79 0v686h254q161 0 252 -82t91 -261t-91 -261t-252 -82h-254zM174 83h159q75 0 130 24.5t85 81t30 152.5v2q0 97 -29.5 153.5t-84.5 81.5t-131 25h-159v-520zM745 0v49l412 554h-386v83h531v-49l-413 -554h422v-83h-566z" />
    <glyph glyph-name="uni01C4" unicode="&#x1c4;" horiz-adv-x="1333" 
d="M79 0v686h254q161 0 252 -82t91 -261t-91 -261t-252 -82h-254zM174 83h159q75 0 130 24.5t85 81t30 152.5v2q0 97 -29.5 153.5t-84.5 81.5t-131 25h-159v-520zM745 0v49l412 554h-386v83h531v-49l-413 -554h422v-83h-566zM986 733l-106 135h90l58 -79l57 79h90l-105 -135
h-84z" />
    <glyph glyph-name="Eth" unicode="&#xd0;" horiz-adv-x="722" 
d="M5 324v63h342v-63h-342zM79 0v686h254q161 0 252 -82t91 -261t-91 -261t-252 -82h-254zM174 83h159q75 0 130 24.5t85 81t30 152.5v2q0 97 -29.5 153.5t-84.5 81.5t-131 25h-159v-520z" />
    <glyph glyph-name="Dcaron" unicode="&#x10e;" horiz-adv-x="722" 
d="M79 0v686h254q161 0 252 -82t91 -261t-91 -261t-252 -82h-254zM174 83h159q75 0 130 24.5t85 81t30 152.5v2q0 97 -29.5 153.5t-84.5 81.5t-131 25h-159v-520zM319 733l-106 135h90l58 -79l57 79h90l-105 -135h-84z" />
    <glyph glyph-name="Dcroat" unicode="&#x110;" horiz-adv-x="722" 
d="M5 324v63h342v-63h-342zM79 0v686h254q161 0 252 -82t91 -261t-91 -261t-252 -82h-254zM174 83h159q75 0 130 24.5t85 81t30 152.5v2q0 97 -29.5 153.5t-84.5 81.5t-131 25h-159v-520z" />
    <glyph glyph-name="uni1E0C" unicode="&#x1e0c;" horiz-adv-x="722" 
d="M79 0v686h254q161 0 252 -82t91 -261t-91 -261t-252 -82h-254zM174 83h159q75 0 130 24.5t85 81t30 152.5v2q0 97 -29.5 153.5t-84.5 81.5t-131 25h-159v-520zM317 -173v95h87v-95h-87z" />
    <glyph glyph-name="uni01F2" unicode="&#x1f2;" horiz-adv-x="1222" 
d="M79 0v686h254q161 0 252 -82t91 -261t-91 -261t-252 -82h-254zM174 83h159q75 0 130 24.5t85 81t30 152.5v2q0 97 -29.5 153.5t-84.5 81.5t-131 25h-159v-520zM746 0v47l305 406h-284v73h413v-46l-306 -407h323v-73h-451z" />
    <glyph glyph-name="uni01C5" unicode="&#x1c5;" horiz-adv-x="1222" 
d="M79 0v686h254q161 0 252 -82t91 -261t-91 -261t-252 -82h-254zM174 83h159q75 0 130 24.5t85 81t30 152.5v2q0 97 -29.5 153.5t-84.5 81.5t-131 25h-159v-520zM746 0v47l305 406h-284v73h413v-46l-306 -407h323v-73h-451zM930 588l-106 135h90l58 -79l57 79h90l-105 -135
h-84z" />
    <glyph glyph-name="E" unicode="E" horiz-adv-x="667" 
d="M79 0v686h528v-83h-433v-211h389v-83h-389v-226h439v-83h-534z" />
    <glyph glyph-name="Eacute" unicode="&#xc9;" horiz-adv-x="667" 
d="M79 0v686h528v-83h-433v-211h389v-83h-389v-226h439v-83h-534zM296 736l86 132h96l1 -3l-108 -129h-75z" />
    <glyph glyph-name="Ebreve" unicode="&#x114;" horiz-adv-x="667" 
d="M79 0v686h528v-83h-433v-211h389v-83h-389v-226h439v-83h-534zM333 751q-56 0 -87.5 18t-44.5 45t-13 54h61q2 -11 9.5 -23.5t25 -21t49.5 -8.5q48 0 65.5 18t19.5 35h61q0 -27 -13 -54t-45 -45t-88 -18z" />
    <glyph glyph-name="Ecaron" unicode="&#x11a;" horiz-adv-x="667" 
d="M79 0v686h528v-83h-433v-211h389v-83h-389v-226h439v-83h-534zM292 733l-106 135h90l58 -79l57 79h90l-105 -135h-84z" />
    <glyph glyph-name="Ecircumflex" unicode="&#xca;" horiz-adv-x="667" 
d="M79 0v686h528v-83h-433v-211h389v-83h-389v-226h439v-83h-534zM186 733l106 135h84l105 -135h-90l-57 79l-58 -79h-90z" />
    <glyph glyph-name="uni1EBE" unicode="&#x1ebe;" horiz-adv-x="667" 
d="M79 0v686h528v-83h-433v-211h389v-83h-389v-226h439v-83h-534zM186 733l106 135h84l105 -135h-90l-57 79l-58 -79h-90zM428 831l86 132h96l1 -3l-108 -129h-75z" />
    <glyph glyph-name="uni1EC6" unicode="&#x1ec6;" horiz-adv-x="667" 
d="M79 0v686h528v-83h-433v-211h389v-83h-389v-226h439v-83h-534zM186 733l106 135h84l105 -135h-90l-57 79l-58 -79h-90zM290 -173v95h87v-95h-87z" />
    <glyph glyph-name="uni1EC0" unicode="&#x1ec0;" horiz-adv-x="667" 
d="M79 0v686h528v-83h-433v-211h389v-83h-389v-226h439v-83h-534zM186 733l106 135h84l105 -135h-90l-57 79l-58 -79h-90zM468 831l-108 129l1 3h96l86 -132h-75z" />
    <glyph glyph-name="uni1EC2" unicode="&#x1ec2;" horiz-adv-x="667" 
d="M79 0v686h528v-83h-433v-211h389v-83h-389v-226h439v-83h-534zM186 733l106 135h84l105 -135h-90l-57 79l-58 -79h-90zM438 831v61h13q16 0 22.5 4.5t6.5 13.5q0 10 -8 14t-23 4h-60v39q16 4 36 6t36 2q19 0 40.5 -5t36 -17.5t14.5 -37.5q0 -27 -18 -40.5t-40 -15.5v-28
h-56z" />
    <glyph glyph-name="uni1EC4" unicode="&#x1ec4;" horiz-adv-x="667" 
d="M79 0v686h528v-83h-433v-211h389v-83h-389v-226h439v-83h-534zM186 733l106 135h84l105 -135h-90l-57 79l-58 -79h-90zM172 924q0 42 20 73t65 31q28 0 52.5 -7.5t48 -15.5t48.5 -8q11 0 19 7t9 24h65q0 -42 -20 -73t-65 -31q-28 0 -52.5 7.5t-48 15.5t-48.5 8
q-11 0 -18.5 -7t-9.5 -24h-65z" />
    <glyph glyph-name="uni0204" unicode="&#x204;" horiz-adv-x="667" 
d="M79 0v686h528v-83h-433v-211h389v-83h-389v-226h439v-83h-534zM380 736l-84 129l1 3h97l62 -132h-76zM241 736l-84 129l1 3h97l62 -132h-76z" />
    <glyph glyph-name="Edieresis" unicode="&#xcb;" horiz-adv-x="667" 
d="M79 0v686h528v-83h-433v-211h389v-83h-389v-226h439v-83h-534zM384 773v95h87v-95h-87zM197 773v95h87v-95h-87z" />
    <glyph glyph-name="Edotaccent" unicode="&#x116;" horiz-adv-x="667" 
d="M79 0v686h528v-83h-433v-211h389v-83h-389v-226h439v-83h-534zM290 773v95h87v-95h-87z" />
    <glyph glyph-name="uni1EB8" unicode="&#x1eb8;" horiz-adv-x="667" 
d="M79 0v686h528v-83h-433v-211h389v-83h-389v-226h439v-83h-534zM290 -173v95h87v-95h-87z" />
    <glyph glyph-name="Egrave" unicode="&#xc8;" horiz-adv-x="667" 
d="M79 0v686h528v-83h-433v-211h389v-83h-389v-226h439v-83h-534zM296 736l-108 129l1 3h96l86 -132h-75z" />
    <glyph glyph-name="uni1EBA" unicode="&#x1eba;" horiz-adv-x="667" 
d="M79 0v686h528v-83h-433v-211h389v-83h-389v-226h439v-83h-534zM306 736v61h13q16 0 22.5 4.5t6.5 13.5q0 10 -8 14t-23 4h-60v39q16 4 36 6t36 2q19 0 40.5 -5t36 -17.5t14.5 -37.5q0 -27 -18 -40.5t-40 -15.5v-28h-56z" />
    <glyph glyph-name="uni0206" unicode="&#x206;" horiz-adv-x="667" 
d="M79 0v686h528v-83h-433v-211h389v-83h-389v-226h439v-83h-534zM188 751q0 28 13 54.5t44.5 44.5t87.5 18t88 -18t45 -44.5t13 -54.5h-61q-2 16 -19.5 34.5t-65.5 18.5q-32 0 -49.5 -8.5t-25 -21t-9.5 -23.5h-61z" />
    <glyph glyph-name="Emacron" unicode="&#x112;" horiz-adv-x="667" 
d="M79 0v686h528v-83h-433v-211h389v-83h-389v-226h439v-83h-534zM181 772v72h305v-72h-305z" />
    <glyph glyph-name="Eogonek" unicode="&#x118;" horiz-adv-x="667" 
d="M548 -182q-19 0 -42 8t-39.5 27t-16.5 53q0 32 16 55t47 39h-434v686h528v-83h-433v-211h389v-83h-389v-226h439v-83q-30 0 -48.5 -11t-27.5 -26.5t-9 -28.5q0 -20 12 -35.5t41 -15.5h32v-51q-17 -7 -33 -10.5t-32 -3.5z" />
    <glyph glyph-name="uni1EBC" unicode="&#x1ebc;" horiz-adv-x="667" 
d="M79 0v686h528v-83h-433v-211h389v-83h-389v-226h439v-83h-534zM170 764q0 42 20 73t65 31q28 0 52.5 -7.5t48 -15.5t48.5 -8q11 0 19 7t9 24h65q0 -42 -20 -73t-65 -31q-28 0 -52.5 7.5t-48 15.5t-48.5 8q-11 0 -18.5 -7t-9.5 -24h-65z" />
    <glyph glyph-name="F" unicode="F" horiz-adv-x="611" 
d="M79 0v686h486v-83h-391v-218h355v-83h-355v-302h-95z" />
    <glyph glyph-name="G" unicode="G" horiz-adv-x="778" 
d="M387 -12q-111 0 -187 39t-114.5 118t-38.5 198q0 179 87.5 267t258.5 88q68 0 125.5 -15t99.5 -45.5t65.5 -77t23.5 -108.5h-97q0 57 -27.5 93.5t-76 54t-113.5 17.5q-122 0 -184.5 -62.5t-62.5 -211.5v-2q1 -149 62 -210.5t179 -61.5q77 0 127 21.5t74 64.5t24 109v50
l40 -40h-282v83h337v-357h-74l-7 76q-41 -46 -103 -67t-136 -21z" />
    <glyph glyph-name="uni01F4" unicode="&#x1f4;" horiz-adv-x="778" 
d="M387 -12q-111 0 -187 39t-114.5 118t-38.5 198q0 179 87.5 267t258.5 88q68 0 125.5 -15t99.5 -45.5t65.5 -77t23.5 -108.5h-97q0 57 -27.5 93.5t-76 54t-113.5 17.5q-122 0 -184.5 -62.5t-62.5 -211.5v-2q1 -149 62 -210.5t179 -61.5q77 0 127 21.5t74 64.5t24 109v50
l40 -40h-282v83h337v-357h-74l-7 76q-41 -46 -103 -67t-136 -21zM351 736l86 132h96l1 -3l-108 -129h-75z" />
    <glyph glyph-name="Gbreve" unicode="&#x11e;" horiz-adv-x="778" 
d="M387 -12q-111 0 -187 39t-114.5 118t-38.5 198q0 179 87.5 267t258.5 88q68 0 125.5 -15t99.5 -45.5t65.5 -77t23.5 -108.5h-97q0 57 -27.5 93.5t-76 54t-113.5 17.5q-122 0 -184.5 -62.5t-62.5 -211.5v-2q1 -149 62 -210.5t179 -61.5q77 0 127 21.5t74 64.5t24 109v50
l40 -40h-282v83h337v-357h-74l-7 76q-41 -46 -103 -67t-136 -21zM388 751q-56 0 -87.5 18t-44.5 45t-13 54h61q2 -11 9.5 -23.5t25 -21t49.5 -8.5q48 0 65.5 18t19.5 35h61q0 -27 -13 -54t-45 -45t-88 -18z" />
    <glyph glyph-name="Gcaron" unicode="&#x1e6;" horiz-adv-x="778" 
d="M387 -12q-111 0 -187 39t-114.5 118t-38.5 198q0 179 87.5 267t258.5 88q68 0 125.5 -15t99.5 -45.5t65.5 -77t23.5 -108.5h-97q0 57 -27.5 93.5t-76 54t-113.5 17.5q-122 0 -184.5 -62.5t-62.5 -211.5v-2q1 -149 62 -210.5t179 -61.5q77 0 127 21.5t74 64.5t24 109v50
l40 -40h-282v83h337v-357h-74l-7 76q-41 -46 -103 -67t-136 -21zM347 733l-106 135h90l58 -79l57 79h90l-105 -135h-84z" />
    <glyph glyph-name="Gcircumflex" unicode="&#x11c;" horiz-adv-x="778" 
d="M387 -12q-111 0 -187 39t-114.5 118t-38.5 198q0 179 87.5 267t258.5 88q68 0 125.5 -15t99.5 -45.5t65.5 -77t23.5 -108.5h-97q0 57 -27.5 93.5t-76 54t-113.5 17.5q-122 0 -184.5 -62.5t-62.5 -211.5v-2q1 -149 62 -210.5t179 -61.5q77 0 127 21.5t74 64.5t24 109v50
l40 -40h-282v83h337v-357h-74l-7 76q-41 -46 -103 -67t-136 -21zM241 733l106 135h84l105 -135h-90l-57 79l-58 -79h-90z" />
    <glyph glyph-name="Gcommaaccent" unicode="&#x122;" horiz-adv-x="778" 
d="M387 -12q-111 0 -187 39t-114.5 118t-38.5 198q0 179 87.5 267t258.5 88q68 0 125.5 -15t99.5 -45.5t65.5 -77t23.5 -108.5h-97q0 57 -27.5 93.5t-76 54t-113.5 17.5q-122 0 -184.5 -62.5t-62.5 -211.5v-2q1 -149 62 -210.5t179 -61.5q77 0 127 21.5t74 64.5t24 109v50
l40 -40h-282v83h337v-357h-74l-7 76q-41 -46 -103 -67t-136 -21zM345 -230l37 81h-37v91h88v-84l-43 -88h-45z" />
    <glyph glyph-name="Gdotaccent" unicode="&#x120;" horiz-adv-x="778" 
d="M387 -12q-111 0 -187 39t-114.5 118t-38.5 198q0 179 87.5 267t258.5 88q68 0 125.5 -15t99.5 -45.5t65.5 -77t23.5 -108.5h-97q0 57 -27.5 93.5t-76 54t-113.5 17.5q-122 0 -184.5 -62.5t-62.5 -211.5v-2q1 -149 62 -210.5t179 -61.5q77 0 127 21.5t74 64.5t24 109v50
l40 -40h-282v83h337v-357h-74l-7 76q-41 -46 -103 -67t-136 -21zM345 773v95h87v-95h-87z" />
    <glyph glyph-name="H" unicode="H" horiz-adv-x="722" 
d="M79 0v686h95v-294h374v294h95v-686h-95v309h-374v-309h-95z" />
    <glyph glyph-name="Hbar" unicode="&#x126;" horiz-adv-x="722" 
d="M79 0v526h-70v72h70v88h95v-88h374v88h95v-88h70v-72h-70v-526h-95v309h-374v-309h-95zM174 392h374v134h-374v-134z" />
    <glyph glyph-name="Hcircumflex" unicode="&#x124;" horiz-adv-x="722" 
d="M79 0v686h95v-294h374v294h95v-686h-95v309h-374v-309h-95zM213 733l106 135h84l105 -135h-90l-57 79l-58 -79h-90z" />
    <glyph glyph-name="uni1E24" unicode="&#x1e24;" horiz-adv-x="722" 
d="M79 0v686h95v-294h374v294h95v-686h-95v309h-374v-309h-95zM317 -173v95h87v-95h-87z" />
    <glyph glyph-name="I" unicode="I" horiz-adv-x="278" 
d="M92 0v686h95v-686h-95z" />
    <glyph glyph-name="IJ" unicode="&#x132;" horiz-adv-x="778" 
d="M92 0v686h95v-686h-95zM503 -12q-93 0 -144.5 49.5t-51.5 145.5v25h95v-30q0 -54 26 -81.5t75 -27.5t75.5 31.5t26.5 93.5v492h95v-487q0 -107 -51.5 -159t-145.5 -52z" />
    <glyph glyph-name="Iacute" unicode="&#xcd;" horiz-adv-x="278" 
d="M92 0v686h95v-686h-95zM101 736l86 132h96l1 -3l-108 -129h-75z" />
    <glyph glyph-name="Ibreve" unicode="&#x12c;" horiz-adv-x="278" 
d="M92 0v686h95v-686h-95zM138 751q-56 0 -87.5 18t-44.5 45t-13 54h61q2 -11 9.5 -23.5t25 -21t49.5 -8.5q48 0 65.5 18t19.5 35h61q0 -27 -13 -54t-45 -45t-88 -18z" />
    <glyph glyph-name="uni01CF" unicode="&#x1cf;" horiz-adv-x="278" 
d="M92 0v686h95v-686h-95zM97 733l-106 135h90l58 -79l57 79h90l-105 -135h-84z" />
    <glyph glyph-name="Icircumflex" unicode="&#xce;" horiz-adv-x="278" 
d="M92 0v686h95v-686h-95zM-9 733l106 135h84l105 -135h-90l-57 79l-58 -79h-90z" />
    <glyph glyph-name="uni0208" unicode="&#x208;" horiz-adv-x="278" 
d="M92 0v686h95v-686h-95zM185 736l-84 129l1 3h97l62 -132h-76zM46 736l-84 129l1 3h97l62 -132h-76z" />
    <glyph glyph-name="Idieresis" unicode="&#xcf;" horiz-adv-x="278" 
d="M92 0v686h95v-686h-95zM189 773v95h87v-95h-87zM2 773v95h87v-95h-87z" />
    <glyph glyph-name="Idotaccent" unicode="&#x130;" horiz-adv-x="278" 
d="M92 0v686h95v-686h-95zM95 773v95h87v-95h-87z" />
    <glyph glyph-name="uni1ECA" unicode="&#x1eca;" horiz-adv-x="278" 
d="M92 0v686h95v-686h-95zM95 -173v95h87v-95h-87z" />
    <glyph glyph-name="Igrave" unicode="&#xcc;" horiz-adv-x="278" 
d="M92 0v686h95v-686h-95zM101 736l-108 129l1 3h96l86 -132h-75z" />
    <glyph glyph-name="uni1EC8" unicode="&#x1ec8;" horiz-adv-x="278" 
d="M92 0v686h95v-686h-95zM111 736v61h13q16 0 22.5 4.5t6.5 13.5q0 10 -8 14t-23 4h-60v39q16 4 36 6t36 2q19 0 40.5 -5t36 -17.5t14.5 -37.5q0 -27 -18 -40.5t-40 -15.5v-28h-56z" />
    <glyph glyph-name="uni020A" unicode="&#x20a;" horiz-adv-x="278" 
d="M92 0v686h95v-686h-95zM-7 751q0 28 13 54.5t44.5 44.5t87.5 18t88 -18t45 -44.5t13 -54.5h-61q-2 16 -19.5 34.5t-65.5 18.5q-32 0 -49.5 -8.5t-25 -21t-9.5 -23.5h-61z" />
    <glyph glyph-name="Imacron" unicode="&#x12a;" horiz-adv-x="278" 
d="M92 0v686h95v-686h-95zM-14 772v72h305v-72h-305z" />
    <glyph glyph-name="Iogonek" unicode="&#x12e;" horiz-adv-x="278" 
d="M92 0v686h95v-686h-95zM143 -190q-23 0 -47 8t-39.5 28t-15.5 54q0 37 17 60.5t39 43.5h60v-4q-11 -10 -24.5 -29.5t-13.5 -40.5t12 -38t41 -17h32v-51q-16 -7 -31 -10.5t-30 -3.5z" />
    <glyph glyph-name="Itilde" unicode="&#x128;" horiz-adv-x="278" 
d="M92 0v686h95v-686h-95zM-25 764q0 42 20 73t65 31q28 0 52.5 -7.5t48 -15.5t48.5 -8q11 0 19 7t9 24h65q0 -42 -20 -73t-65 -31q-28 0 -52.5 7.5t-48 15.5t-48.5 8q-11 0 -18.5 -7t-9.5 -24h-65z" />
    <glyph glyph-name="J" unicode="J" horiz-adv-x="500" 
d="M225 -12q-93 0 -144.5 49.5t-51.5 145.5v25h95v-30q0 -54 26 -81.5t75 -27.5t75.5 31.5t26.5 93.5v492h95v-487q0 -107 -51.5 -159t-145.5 -52z" />
    <glyph glyph-name="Jcircumflex" unicode="&#x134;" horiz-adv-x="500" 
d="M225 -12q-93 0 -144.5 49.5t-51.5 145.5v25h95v-30q0 -54 26 -81.5t75 -27.5t75.5 31.5t26.5 93.5v492h95v-487q0 -107 -51.5 -159t-145.5 -52zM227 733l106 135h84l105 -135h-90l-57 79l-58 -79h-90z" />
    <glyph glyph-name="K" unicode="K" horiz-adv-x="667" 
d="M79 0v686h95v-378l363 378h118l-261 -274l270 -412h-113l-223 344l-154 -144v-200h-95z" />
    <glyph glyph-name="Kcommaaccent" unicode="&#x136;" horiz-adv-x="667" 
d="M79 0v686h95v-378l363 378h118l-261 -274l270 -412h-113l-223 344l-154 -144v-200h-95zM290 -230l37 81h-37v91h88v-84l-43 -88h-45z" />
    <glyph glyph-name="L" unicode="L" 
d="M79 0v686h95v-603h352v-83h-447z" />
    <glyph glyph-name="uni01C7" unicode="&#x1c7;" horiz-adv-x="1056" 
d="M79 0v686h95v-603h352v-83h-447zM781 -12q-93 0 -144.5 49.5t-51.5 145.5v25h95v-30q0 -54 26 -81.5t75 -27.5t75.5 31.5t26.5 93.5v492h95v-487q0 -107 -51.5 -159t-145.5 -52z" />
    <glyph glyph-name="Lacute" unicode="&#x139;" 
d="M79 0v686h95v-603h352v-83h-447zM89 736l86 132h96l1 -3l-108 -129h-75z" />
    <glyph glyph-name="Lcaron" unicode="&#x13d;" 
d="M320 490l34 105h-34v91h85v-84l-41 -112h-44zM79 0v686h95v-603h352v-83h-447z" />
    <glyph glyph-name="Lcommaaccent" unicode="&#x13b;" 
d="M79 0v686h95v-603h352v-83h-447zM259 -230l37 81h-37v91h88v-84l-43 -88h-45z" />
    <glyph glyph-name="Ldot" unicode="&#x13f;" 
d="M79 0v686h95v-603h352v-83h-447zM351 418v108h100v-108h-100z" />
    <glyph glyph-name="uni01C8" unicode="&#x1c8;" horiz-adv-x="778" 
d="M79 0v686h95v-603h352v-83h-447zM601 -182q-18 0 -37 4t-32 8v57h44q47 0 47 48v591h88v-587q0 -30 -10 -57.5t-33.5 -45.5t-66.5 -18zM623 625v98h88v-98h-88z" />
    <glyph glyph-name="Lslash" unicode="&#x141;" 
d="M79 0v265l-74 -49v81l74 49v340h95v-277l167 111v-82l-167 -111v-244h352v-83h-447z" />
    <glyph glyph-name="M" unicode="M" horiz-adv-x="833" 
d="M79 0v686h141l164 -468q6 -16 11.5 -33.5t10 -33.5t7 -26l2.5 -10h4l3 11l7.5 27.5l9.5 34t10 30.5l165 468h140v-686h-95v453q0 6 0.5 26.5t0.5 44t0.5 40.5l0.5 17h-7l-2.5 -11l-6 -26.5t-8.5 -28.5l-186 -515h-79l-183 515q-4 11 -8 26.5t-6.5 27.5l-2.5 12h-6
l0.5 -15.5t0.5 -38t0.5 -43t0.5 -31.5v-453h-89z" />
    <glyph glyph-name="N" unicode="N" horiz-adv-x="722" 
d="M79 0v686h85l362 -478q4 -6 8 -11l8 -10t8 -11l4 1v15.5v15.5v16v462h89v-686h-81l-364 484q-7 9 -13 17.5t-13 17.5l-4 -1v-16v-15.5v-15.5v-471h-89z" />
    <glyph glyph-name="uni01CA" unicode="&#x1ca;" horiz-adv-x="1222" 
d="M79 0v686h85l362 -478q4 -6 8 -11l8 -10t8 -11l4 1v15.5v15.5v16v462h89v-686h-81l-364 484q-7 9 -13 17.5t-13 17.5l-4 -1v-16v-15.5v-15.5v-471h-89zM947 -12q-93 0 -144.5 49.5t-51.5 145.5v25h95v-30q0 -54 26 -81.5t75 -27.5t75.5 31.5t26.5 93.5v492h95v-487
q0 -107 -51.5 -159t-145.5 -52z" />
    <glyph glyph-name="Nacute" unicode="&#x143;" horiz-adv-x="722" 
d="M79 0v686h85l362 -478q4 -6 8 -11l8 -10t8 -11l4 1v15.5v15.5v16v462h89v-686h-81l-364 484q-7 9 -13 17.5t-13 17.5l-4 -1v-16v-15.5v-15.5v-471h-89zM323 736l86 132h96l1 -3l-108 -129h-75z" />
    <glyph glyph-name="Ncaron" unicode="&#x147;" horiz-adv-x="722" 
d="M79 0v686h85l362 -478q4 -6 8 -11l8 -10t8 -11l4 1v15.5v15.5v16v462h89v-686h-81l-364 484q-7 9 -13 17.5t-13 17.5l-4 -1v-16v-15.5v-15.5v-471h-89zM319 733l-106 135h90l58 -79l57 79h90l-105 -135h-84z" />
    <glyph glyph-name="Ncommaaccent" unicode="&#x145;" horiz-adv-x="722" 
d="M79 0v686h85l362 -478q4 -6 8 -11l8 -10t8 -11l4 1v15.5v15.5v16v462h89v-686h-81l-364 484q-7 9 -13 17.5t-13 17.5l-4 -1v-16v-15.5v-15.5v-471h-89zM317 -230l37 81h-37v91h88v-84l-43 -88h-45z" />
    <glyph glyph-name="uni1E44" unicode="&#x1e44;" horiz-adv-x="722" 
d="M79 0v686h85l362 -478q4 -6 8 -11l8 -10t8 -11l4 1v15.5v15.5v16v462h89v-686h-81l-364 484q-7 9 -13 17.5t-13 17.5l-4 -1v-16v-15.5v-15.5v-471h-89zM317 773v95h87v-95h-87z" />
    <glyph glyph-name="Eng" unicode="&#x14a;" horiz-adv-x="722" 
d="M533 -182q-18 0 -37 4t-32 8v57h43q47 0 47 48v65l-354 485q-8 8 -14 16.5t-14 16.5l-4 -1q0 -8 0.5 -15.5l1 -15.5t0.5 -16l-2 -470h-89v686h85l362 -478q4 -6 8 -11l8 -10t8 -11l4 1v15.5v15.5v16v462h89v-747q0 -30 -10 -57.5t-33.5 -45.5t-66.5 -18z" />
    <glyph glyph-name="uni019D" unicode="&#x19d;" horiz-adv-x="722" 
d="M58 -182q-18 0 -37 4t-32 8v57h43q47 0 47 48v751h85l362 -478q4 -6 8 -11l8 -10t8 -11l4 1v15.5v15.5v16v462h89v-686h-81l-350 466l-20 27l-20 26l-4 -1v-24v-24v-24v-507q0 -30 -10 -57.5t-34 -45.5t-66 -18z" />
    <glyph glyph-name="uni01CB" unicode="&#x1cb;" horiz-adv-x="944" 
d="M79 0v686h85l362 -478q4 -6 8 -11l8 -10t8 -11l4 1v15.5v15.5v16v462h89v-686h-81l-364 484q-7 9 -13 17.5t-13 17.5l-4 -1v-16v-15.5v-15.5v-471h-89zM767 -182q-18 0 -37 4t-32 8v57h44q47 0 47 48v591h88v-587q0 -30 -10 -57.5t-33.5 -45.5t-66.5 -18zM789 625v98h88
v-98h-88z" />
    <glyph glyph-name="Ntilde" unicode="&#xd1;" horiz-adv-x="722" 
d="M79 0v686h85l362 -478q4 -6 8 -11l8 -10t8 -11l4 1v15.5v15.5v16v462h89v-686h-81l-364 484q-7 9 -13 17.5t-13 17.5l-4 -1v-16v-15.5v-15.5v-471h-89zM197 764q0 42 20 73t65 31q28 0 52.5 -7.5t48 -15.5t48.5 -8q11 0 19 7t9 24h65q0 -42 -20 -73t-65 -31
q-28 0 -52.5 7.5t-48 15.5t-48.5 8q-11 0 -18.5 -7t-9.5 -24h-65z" />
    <glyph glyph-name="O" unicode="O" horiz-adv-x="778" 
d="M389 -12q-161 0 -251.5 88t-90.5 267t90.5 267t251.5 88t252 -88t91 -267t-91 -267t-252 -88zM389 69q76 0 131 27t84.5 86.5t29.5 156.5v4q0 99 -30 159t-85 87.5t-130 27.5t-129.5 -27.5t-84 -87.5t-30.5 -159v-4q0 -97 29.5 -156.5t84.5 -86.5t130 -27z" />
    <glyph glyph-name="Oacute" unicode="&#xd3;" horiz-adv-x="778" 
d="M389 -12q-161 0 -251.5 88t-90.5 267t90.5 267t251.5 88t252 -88t91 -267t-91 -267t-252 -88zM389 69q76 0 131 27t84.5 86.5t29.5 156.5v4q0 99 -30 159t-85 87.5t-130 27.5t-129.5 -27.5t-84 -87.5t-30.5 -159v-4q0 -97 29.5 -156.5t84.5 -86.5t130 -27zM351 736
l86 132h96l1 -3l-108 -129h-75z" />
    <glyph glyph-name="Obreve" unicode="&#x14e;" horiz-adv-x="778" 
d="M389 -12q-161 0 -251.5 88t-90.5 267t90.5 267t251.5 88t252 -88t91 -267t-91 -267t-252 -88zM389 69q76 0 131 27t84.5 86.5t29.5 156.5v4q0 99 -30 159t-85 87.5t-130 27.5t-129.5 -27.5t-84 -87.5t-30.5 -159v-4q0 -97 29.5 -156.5t84.5 -86.5t130 -27zM388 751
q-56 0 -87.5 18t-44.5 45t-13 54h61q2 -11 9.5 -23.5t25 -21t49.5 -8.5q48 0 65.5 18t19.5 35h61q0 -27 -13 -54t-45 -45t-88 -18z" />
    <glyph glyph-name="uni01D1" unicode="&#x1d1;" horiz-adv-x="778" 
d="M389 -12q-161 0 -251.5 88t-90.5 267t90.5 267t251.5 88t252 -88t91 -267t-91 -267t-252 -88zM389 69q76 0 131 27t84.5 86.5t29.5 156.5v4q0 99 -30 159t-85 87.5t-130 27.5t-129.5 -27.5t-84 -87.5t-30.5 -159v-4q0 -97 29.5 -156.5t84.5 -86.5t130 -27zM347 733
l-106 135h90l58 -79l57 79h90l-105 -135h-84z" />
    <glyph glyph-name="Ocircumflex" unicode="&#xd4;" horiz-adv-x="778" 
d="M389 -12q-161 0 -251.5 88t-90.5 267t90.5 267t251.5 88t252 -88t91 -267t-91 -267t-252 -88zM389 69q76 0 131 27t84.5 86.5t29.5 156.5v4q0 99 -30 159t-85 87.5t-130 27.5t-129.5 -27.5t-84 -87.5t-30.5 -159v-4q0 -97 29.5 -156.5t84.5 -86.5t130 -27zM241 733
l106 135h84l105 -135h-90l-57 79l-58 -79h-90z" />
    <glyph glyph-name="uni1ED0" unicode="&#x1ed0;" horiz-adv-x="778" 
d="M389 -12q-161 0 -251.5 88t-90.5 267t90.5 267t251.5 88t252 -88t91 -267t-91 -267t-252 -88zM389 69q76 0 131 27t84.5 86.5t29.5 156.5v4q0 99 -30 159t-85 87.5t-130 27.5t-129.5 -27.5t-84 -87.5t-30.5 -159v-4q0 -97 29.5 -156.5t84.5 -86.5t130 -27zM241 733
l106 135h84l105 -135h-90l-57 79l-58 -79h-90zM483 831l86 132h96l1 -3l-108 -129h-75z" />
    <glyph glyph-name="uni1ED8" unicode="&#x1ed8;" horiz-adv-x="778" 
d="M389 -12q-161 0 -251.5 88t-90.5 267t90.5 267t251.5 88t252 -88t91 -267t-91 -267t-252 -88zM389 69q76 0 131 27t84.5 86.5t29.5 156.5v4q0 99 -30 159t-85 87.5t-130 27.5t-129.5 -27.5t-84 -87.5t-30.5 -159v-4q0 -97 29.5 -156.5t84.5 -86.5t130 -27zM241 733
l106 135h84l105 -135h-90l-57 79l-58 -79h-90zM345 -173v95h87v-95h-87z" />
    <glyph glyph-name="uni1ED2" unicode="&#x1ed2;" horiz-adv-x="778" 
d="M389 -12q-161 0 -251.5 88t-90.5 267t90.5 267t251.5 88t252 -88t91 -267t-91 -267t-252 -88zM389 69q76 0 131 27t84.5 86.5t29.5 156.5v4q0 99 -30 159t-85 87.5t-130 27.5t-129.5 -27.5t-84 -87.5t-30.5 -159v-4q0 -97 29.5 -156.5t84.5 -86.5t130 -27zM241 733
l106 135h84l105 -135h-90l-57 79l-58 -79h-90zM523 831l-108 129l1 3h96l86 -132h-75z" />
    <glyph glyph-name="uni1ED4" unicode="&#x1ed4;" horiz-adv-x="778" 
d="M389 -12q-161 0 -251.5 88t-90.5 267t90.5 267t251.5 88t252 -88t91 -267t-91 -267t-252 -88zM389 69q76 0 131 27t84.5 86.5t29.5 156.5v4q0 99 -30 159t-85 87.5t-130 27.5t-129.5 -27.5t-84 -87.5t-30.5 -159v-4q0 -97 29.5 -156.5t84.5 -86.5t130 -27zM241 733
l106 135h84l105 -135h-90l-57 79l-58 -79h-90zM493 831v61h13q16 0 22.5 4.5t6.5 13.5q0 10 -8 14t-23 4h-60v39q16 4 36 6t36 2q19 0 40.5 -5t36 -17.5t14.5 -37.5q0 -27 -18 -40.5t-40 -15.5v-28h-56z" />
    <glyph glyph-name="uni1ED6" unicode="&#x1ed6;" horiz-adv-x="778" 
d="M389 -12q-161 0 -251.5 88t-90.5 267t90.5 267t251.5 88t252 -88t91 -267t-91 -267t-252 -88zM389 69q76 0 131 27t84.5 86.5t29.5 156.5v4q0 99 -30 159t-85 87.5t-130 27.5t-129.5 -27.5t-84 -87.5t-30.5 -159v-4q0 -97 29.5 -156.5t84.5 -86.5t130 -27zM241 733
l106 135h84l105 -135h-90l-57 79l-58 -79h-90zM227 924q0 42 20 73t65 31q28 0 52.5 -7.5t48 -15.5t48.5 -8q11 0 19 7t9 24h65q0 -42 -20 -73t-65 -31q-28 0 -52.5 7.5t-48 15.5t-48.5 8q-11 0 -18.5 -7t-9.5 -24h-65z" />
    <glyph glyph-name="uni020C" unicode="&#x20c;" horiz-adv-x="778" 
d="M389 -12q-161 0 -251.5 88t-90.5 267t90.5 267t251.5 88t252 -88t91 -267t-91 -267t-252 -88zM389 69q76 0 131 27t84.5 86.5t29.5 156.5v4q0 99 -30 159t-85 87.5t-130 27.5t-129.5 -27.5t-84 -87.5t-30.5 -159v-4q0 -97 29.5 -156.5t84.5 -86.5t130 -27zM435 736
l-84 129l1 3h97l62 -132h-76zM296 736l-84 129l1 3h97l62 -132h-76z" />
    <glyph glyph-name="Odieresis" unicode="&#xd6;" horiz-adv-x="778" 
d="M389 -12q-161 0 -251.5 88t-90.5 267t90.5 267t251.5 88t252 -88t91 -267t-91 -267t-252 -88zM389 69q76 0 131 27t84.5 86.5t29.5 156.5v4q0 99 -30 159t-85 87.5t-130 27.5t-129.5 -27.5t-84 -87.5t-30.5 -159v-4q0 -97 29.5 -156.5t84.5 -86.5t130 -27zM439 773v95h87
v-95h-87zM252 773v95h87v-95h-87z" />
    <glyph glyph-name="uni1ECC" unicode="&#x1ecc;" horiz-adv-x="778" 
d="M389 -12q-161 0 -251.5 88t-90.5 267t90.5 267t251.5 88t252 -88t91 -267t-91 -267t-252 -88zM389 69q76 0 131 27t84.5 86.5t29.5 156.5v4q0 99 -30 159t-85 87.5t-130 27.5t-129.5 -27.5t-84 -87.5t-30.5 -159v-4q0 -97 29.5 -156.5t84.5 -86.5t130 -27zM345 -173v95
h87v-95h-87z" />
    <glyph glyph-name="Ograve" unicode="&#xd2;" horiz-adv-x="778" 
d="M389 -12q-161 0 -251.5 88t-90.5 267t90.5 267t251.5 88t252 -88t91 -267t-91 -267t-252 -88zM389 69q76 0 131 27t84.5 86.5t29.5 156.5v4q0 99 -30 159t-85 87.5t-130 27.5t-129.5 -27.5t-84 -87.5t-30.5 -159v-4q0 -97 29.5 -156.5t84.5 -86.5t130 -27zM351 736
l-108 129l1 3h96l86 -132h-75z" />
    <glyph glyph-name="uni1ECE" unicode="&#x1ece;" horiz-adv-x="778" 
d="M389 -12q-161 0 -251.5 88t-90.5 267t90.5 267t251.5 88t252 -88t91 -267t-91 -267t-252 -88zM389 69q76 0 131 27t84.5 86.5t29.5 156.5v4q0 99 -30 159t-85 87.5t-130 27.5t-129.5 -27.5t-84 -87.5t-30.5 -159v-4q0 -97 29.5 -156.5t84.5 -86.5t130 -27zM361 736v61h13
q16 0 22.5 4.5t6.5 13.5q0 10 -8 14t-23 4h-60v39q16 4 36 6t36 2q19 0 40.5 -5t36 -17.5t14.5 -37.5q0 -27 -18 -40.5t-40 -15.5v-28h-56z" />
    <glyph glyph-name="Ohorn" unicode="&#x1a0;" horiz-adv-x="778" 
d="M389 -12q-161 0 -251.5 88t-90.5 267t90.5 267t251.5 88t252 -88t91 -267t-91 -267t-252 -88zM389 69q76 0 131 27t84.5 86.5t29.5 156.5v4q0 99 -30 159t-85 87.5t-130 27.5t-129.5 -27.5t-84 -87.5t-30.5 -159v-4q0 -97 29.5 -156.5t84.5 -86.5t130 -27zM576 575v56
q69 8 104.5 39t35.5 90l62 14q0 -84 -51 -135.5t-151 -63.5zM658 720v108h120v-54l-41 -54h-79z" />
    <glyph glyph-name="uni1EDA" unicode="&#x1eda;" horiz-adv-x="778" 
d="M389 -12q-161 0 -251.5 88t-90.5 267t90.5 267t251.5 88t252 -88t91 -267t-91 -267t-252 -88zM389 69q76 0 131 27t84.5 86.5t29.5 156.5v4q0 99 -30 159t-85 87.5t-130 27.5t-129.5 -27.5t-84 -87.5t-30.5 -159v-4q0 -97 29.5 -156.5t84.5 -86.5t130 -27zM576 575v56
q69 8 104.5 39t35.5 90l62 14q0 -84 -51 -135.5t-151 -63.5zM658 720v108h120v-54l-41 -54h-79zM351 736l86 132h96l1 -3l-108 -129h-75z" />
    <glyph glyph-name="uni1EE2" unicode="&#x1ee2;" horiz-adv-x="778" 
d="M389 -12q-161 0 -251.5 88t-90.5 267t90.5 267t251.5 88t252 -88t91 -267t-91 -267t-252 -88zM389 69q76 0 131 27t84.5 86.5t29.5 156.5v4q0 99 -30 159t-85 87.5t-130 27.5t-129.5 -27.5t-84 -87.5t-30.5 -159v-4q0 -97 29.5 -156.5t84.5 -86.5t130 -27zM576 575v56
q69 8 104.5 39t35.5 90l62 14q0 -84 -51 -135.5t-151 -63.5zM658 720v108h120v-54l-41 -54h-79zM345 -173v95h87v-95h-87z" />
    <glyph glyph-name="uni1EDC" unicode="&#x1edc;" horiz-adv-x="778" 
d="M389 -12q-161 0 -251.5 88t-90.5 267t90.5 267t251.5 88t252 -88t91 -267t-91 -267t-252 -88zM389 69q76 0 131 27t84.5 86.5t29.5 156.5v4q0 99 -30 159t-85 87.5t-130 27.5t-129.5 -27.5t-84 -87.5t-30.5 -159v-4q0 -97 29.5 -156.5t84.5 -86.5t130 -27zM576 575v56
q69 8 104.5 39t35.5 90l62 14q0 -84 -51 -135.5t-151 -63.5zM658 720v108h120v-54l-41 -54h-79zM351 736l-108 129l1 3h96l86 -132h-75z" />
    <glyph glyph-name="uni1EDE" unicode="&#x1ede;" horiz-adv-x="778" 
d="M389 -12q-161 0 -251.5 88t-90.5 267t90.5 267t251.5 88t252 -88t91 -267t-91 -267t-252 -88zM389 69q76 0 131 27t84.5 86.5t29.5 156.5v4q0 99 -30 159t-85 87.5t-130 27.5t-129.5 -27.5t-84 -87.5t-30.5 -159v-4q0 -97 29.5 -156.5t84.5 -86.5t130 -27zM576 575v56
q69 8 104.5 39t35.5 90l62 14q0 -84 -51 -135.5t-151 -63.5zM658 720v108h120v-54l-41 -54h-79zM361 736v61h13q16 0 22.5 4.5t6.5 13.5q0 10 -8 14t-23 4h-60v39q16 4 36 6t36 2q19 0 40.5 -5t36 -17.5t14.5 -37.5q0 -27 -18 -40.5t-40 -15.5v-28h-56z" />
    <glyph glyph-name="uni1EE0" unicode="&#x1ee0;" horiz-adv-x="778" 
d="M389 -12q-161 0 -251.5 88t-90.5 267t90.5 267t251.5 88t252 -88t91 -267t-91 -267t-252 -88zM389 69q76 0 131 27t84.5 86.5t29.5 156.5v4q0 99 -30 159t-85 87.5t-130 27.5t-129.5 -27.5t-84 -87.5t-30.5 -159v-4q0 -97 29.5 -156.5t84.5 -86.5t130 -27zM576 575v56
q69 8 104.5 39t35.5 90l62 14q0 -84 -51 -135.5t-151 -63.5zM658 720v108h120v-54l-41 -54h-79zM225 764q0 42 20 73t65 31q28 0 52.5 -7.5t48 -15.5t48.5 -8q11 0 19 7t9 24h65q0 -42 -20 -73t-65 -31q-28 0 -52.5 7.5t-48 15.5t-48.5 8q-11 0 -18.5 -7t-9.5 -24h-65z" />
    <glyph glyph-name="Ohungarumlaut" unicode="&#x150;" horiz-adv-x="778" 
d="M389 -12q-161 0 -251.5 88t-90.5 267t90.5 267t251.5 88t252 -88t91 -267t-91 -267t-252 -88zM389 69q76 0 131 27t84.5 86.5t29.5 156.5v4q0 99 -30 159t-85 87.5t-130 27.5t-129.5 -27.5t-84 -87.5t-30.5 -159v-4q0 -97 29.5 -156.5t84.5 -86.5t130 -27zM420 736
l62 132h97l1 -3l-84 -129h-76zM281 736l62 132h97l1 -3l-84 -129h-76z" />
    <glyph glyph-name="uni020E" unicode="&#x20e;" horiz-adv-x="778" 
d="M389 -12q-161 0 -251.5 88t-90.5 267t90.5 267t251.5 88t252 -88t91 -267t-91 -267t-252 -88zM389 69q76 0 131 27t84.5 86.5t29.5 156.5v4q0 99 -30 159t-85 87.5t-130 27.5t-129.5 -27.5t-84 -87.5t-30.5 -159v-4q0 -97 29.5 -156.5t84.5 -86.5t130 -27zM243 751
q0 28 13 54.5t44.5 44.5t87.5 18t88 -18t45 -44.5t13 -54.5h-61q-2 16 -19.5 34.5t-65.5 18.5q-32 0 -49.5 -8.5t-25 -21t-9.5 -23.5h-61z" />
    <glyph glyph-name="Omacron" unicode="&#x14c;" horiz-adv-x="778" 
d="M389 -12q-161 0 -251.5 88t-90.5 267t90.5 267t251.5 88t252 -88t91 -267t-91 -267t-252 -88zM389 69q76 0 131 27t84.5 86.5t29.5 156.5v4q0 99 -30 159t-85 87.5t-130 27.5t-129.5 -27.5t-84 -87.5t-30.5 -159v-4q0 -97 29.5 -156.5t84.5 -86.5t130 -27zM236 772v72
h305v-72h-305z" />
    <glyph glyph-name="uni01EA" unicode="&#x1ea;" horiz-adv-x="778" 
d="M389 -12q-161 0 -251.5 88t-90.5 267t90.5 267t251.5 88t252 -88t91 -267t-91 -267t-252 -88zM389 69q76 0 131 27t84.5 86.5t29.5 156.5v4q0 99 -30 159t-85 87.5t-130 27.5t-129.5 -27.5t-84 -87.5t-30.5 -159v-4q0 -97 29.5 -156.5t84.5 -86.5t130 -27zM515 -182
q-23 0 -47 8t-39.5 28t-15.5 54q0 37 17 60.5t39 43.5h60v-4q-11 -10 -24.5 -29.5t-13.5 -40.5t12 -38t41 -17h32v-51q-16 -7 -31 -10.5t-30 -3.5z" />
    <glyph glyph-name="Oslash" unicode="&#xd8;" horiz-adv-x="778" 
d="M47 -49l94 122q-46 44 -70 111.5t-24 158.5q0 179 90.5 267t251.5 88q58 0 107 -11.5t89 -34.5l63 83h84l-94 -123q46 -44 70 -111.5t24 -157.5q0 -179 -91 -267t-252 -88q-117 0 -195 44l-62 -81h-85zM197 147l335 436q-58 34 -143 34q-75 0 -130 -27t-84.5 -86.5
t-29.5 -156.5v-4q0 -67 13.5 -115t38.5 -81zM389 69q76 0 131 27t84.5 86.5t29.5 156.5v4q0 66 -13.5 114t-38.5 81l-334 -436q28 -17 63.5 -25t77.5 -8z" />
    <glyph glyph-name="Oslashacute" unicode="&#x1fe;" horiz-adv-x="778" 
d="M47 -49l94 122q-46 44 -70 111.5t-24 158.5q0 179 90.5 267t251.5 88q58 0 107 -11.5t89 -34.5l63 83h84l-94 -123q46 -44 70 -111.5t24 -157.5q0 -179 -91 -267t-252 -88q-117 0 -195 44l-62 -81h-85zM197 147l335 436q-58 34 -143 34q-75 0 -130 -27t-84.5 -86.5
t-29.5 -156.5v-4q0 -67 13.5 -115t38.5 -81zM389 69q76 0 131 27t84.5 86.5t29.5 156.5v4q0 66 -13.5 114t-38.5 81l-334 -436q28 -17 63.5 -25t77.5 -8zM351 736l86 132h96l1 -3l-108 -129h-75z" />
    <glyph glyph-name="Otilde" unicode="&#xd5;" horiz-adv-x="778" 
d="M389 -12q-161 0 -251.5 88t-90.5 267t90.5 267t251.5 88t252 -88t91 -267t-91 -267t-252 -88zM389 69q76 0 131 27t84.5 86.5t29.5 156.5v4q0 99 -30 159t-85 87.5t-130 27.5t-129.5 -27.5t-84 -87.5t-30.5 -159v-4q0 -97 29.5 -156.5t84.5 -86.5t130 -27zM225 764
q0 42 20 73t65 31q28 0 52.5 -7.5t48 -15.5t48.5 -8q11 0 19 7t9 24h65q0 -42 -20 -73t-65 -31q-28 0 -52.5 7.5t-48 15.5t-48.5 8q-11 0 -18.5 -7t-9.5 -24h-65z" />
    <glyph glyph-name="OE" unicode="&#x152;" horiz-adv-x="1000" 
d="M321 -12q-129 0 -201.5 88t-72.5 267t72.5 267t201.5 88q118 0 186 -88v76h432v-80h-337v-215h282v-80h-282v-231h344v-80h-439v76q-67 -88 -186 -88zM334 69q54 0 92.5 26.5t59.5 86.5t21 161t-21 161t-59.5 86.5t-92.5 26.5q-62 0 -104 -26.5t-63.5 -86.5t-21.5 -161
t21.5 -161t63.5 -86.5t104 -26.5z" />
    <glyph glyph-name="P" unicode="P" horiz-adv-x="667" 
d="M79 0v686h334q106 0 159.5 -58.5t53.5 -150.5q0 -64 -26 -112t-74 -75t-113 -27h-239v-263h-95zM174 346h234q56 0 89 34.5t33 95.5q0 60 -30.5 93.5t-91.5 33.5h-234v-257z" />
    <glyph glyph-name="Thorn" unicode="&#xde;" horiz-adv-x="667" 
d="M79 0v686h95v-119h239q106 0 159.5 -58.5t53.5 -150.5q0 -64 -26 -112t-74 -75t-113 -27h-239v-144h-95zM174 227h234q56 0 89 34.5t33 95.5q0 60 -30.5 93.5t-91.5 33.5h-234v-257z" />
    <glyph glyph-name="Q" unicode="Q" horiz-adv-x="778" 
d="M559 -130l-123 120q-11 -1 -23 -1.5t-24 -0.5q-161 0 -251.5 88t-90.5 267t90.5 267t251.5 88t252 -88t91 -267q0 -130 -49 -212t-138 -117l148 -144h-134zM389 69q76 0 131 27t84.5 86.5t29.5 156.5v4q0 99 -30 159t-85 87.5t-130 27.5t-129.5 -27.5t-84 -87.5
t-30.5 -159v-4q0 -97 29.5 -156.5t84.5 -86.5t130 -27z" />
    <glyph glyph-name="R" unicode="R" horiz-adv-x="722" 
d="M79 0v686h357q106 0 159.5 -54.5t53.5 -140.5q0 -71 -33.5 -121.5t-92.5 -72.5l158 -297h-106l-149 283h-252v-283h-95zM174 366h257q55 0 88.5 33t33.5 91q0 53 -30.5 83t-91.5 30h-257v-237z" />
    <glyph glyph-name="Racute" unicode="&#x154;" horiz-adv-x="722" 
d="M79 0v686h357q106 0 159.5 -54.5t53.5 -140.5q0 -71 -33.5 -121.5t-92.5 -72.5l158 -297h-106l-149 283h-252v-283h-95zM174 366h257q55 0 88.5 33t33.5 91q0 53 -30.5 83t-91.5 30h-257v-237zM323 736l86 132h96l1 -3l-108 -129h-75z" />
    <glyph glyph-name="Rcaron" unicode="&#x158;" horiz-adv-x="722" 
d="M79 0v686h357q106 0 159.5 -54.5t53.5 -140.5q0 -71 -33.5 -121.5t-92.5 -72.5l158 -297h-106l-149 283h-252v-283h-95zM174 366h257q55 0 88.5 33t33.5 91q0 53 -30.5 83t-91.5 30h-257v-237zM319 733l-106 135h90l58 -79l57 79h90l-105 -135h-84z" />
    <glyph glyph-name="Rcommaaccent" unicode="&#x156;" horiz-adv-x="722" 
d="M79 0v686h357q106 0 159.5 -54.5t53.5 -140.5q0 -71 -33.5 -121.5t-92.5 -72.5l158 -297h-106l-149 283h-252v-283h-95zM174 366h257q55 0 88.5 33t33.5 91q0 53 -30.5 83t-91.5 30h-257v-237zM317 -230l37 81h-37v91h88v-84l-43 -88h-45z" />
    <glyph glyph-name="uni0210" unicode="&#x210;" horiz-adv-x="722" 
d="M79 0v686h357q106 0 159.5 -54.5t53.5 -140.5q0 -71 -33.5 -121.5t-92.5 -72.5l158 -297h-106l-149 283h-252v-283h-95zM174 366h257q55 0 88.5 33t33.5 91q0 53 -30.5 83t-91.5 30h-257v-237zM407 736l-84 129l1 3h97l62 -132h-76zM268 736l-84 129l1 3h97l62 -132h-76z
" />
    <glyph glyph-name="uni1E5A" unicode="&#x1e5a;" horiz-adv-x="722" 
d="M79 0v686h357q106 0 159.5 -54.5t53.5 -140.5q0 -71 -33.5 -121.5t-92.5 -72.5l158 -297h-106l-149 283h-252v-283h-95zM174 366h257q55 0 88.5 33t33.5 91q0 53 -30.5 83t-91.5 30h-257v-237zM317 -173v95h87v-95h-87z" />
    <glyph glyph-name="uni0212" unicode="&#x212;" horiz-adv-x="722" 
d="M79 0v686h357q106 0 159.5 -54.5t53.5 -140.5q0 -71 -33.5 -121.5t-92.5 -72.5l158 -297h-106l-149 283h-252v-283h-95zM174 366h257q55 0 88.5 33t33.5 91q0 53 -30.5 83t-91.5 30h-257v-237zM215 751q0 28 13 54.5t44.5 44.5t87.5 18t88 -18t45 -44.5t13 -54.5h-61
q-2 16 -19.5 34.5t-65.5 18.5q-32 0 -49.5 -8.5t-25 -21t-9.5 -23.5h-61z" />
    <glyph glyph-name="S" unicode="S" horiz-adv-x="667" 
d="M332 -12q-76 0 -140.5 20t-103.5 65t-39 121q0 5 0.5 11.5t0.5 8.5h94q0 -1 -1 -8.5t-1 -12.5q0 -63 52 -93.5t133 -30.5q94 0 144 29.5t50 84.5q0 38 -24.5 61.5t-65 38t-89.5 26.5t-97.5 26t-89 35.5t-65 56t-24.5 87.5q0 63 36 103.5t97 60.5t134 20t132.5 -19.5
t95 -62t35.5 -111.5v-12h-93v15q0 52 -47.5 80.5t-119.5 28.5q-76 0 -125 -23.5t-49 -72.5q0 -35 24.5 -57t65 -36.5t89 -26t97 -25.5t89 -35.5t65 -56t24.5 -86.5q0 -77 -37 -123t-101 -66.5t-146 -20.5z" />
    <glyph glyph-name="Sacute" unicode="&#x15a;" horiz-adv-x="667" 
d="M332 -12q-76 0 -140.5 20t-103.5 65t-39 121q0 5 0.5 11.5t0.5 8.5h94q0 -1 -1 -8.5t-1 -12.5q0 -63 52 -93.5t133 -30.5q94 0 144 29.5t50 84.5q0 38 -24.5 61.5t-65 38t-89.5 26.5t-97.5 26t-89 35.5t-65 56t-24.5 87.5q0 63 36 103.5t97 60.5t134 20t132.5 -19.5
t95 -62t35.5 -111.5v-12h-93v15q0 52 -47.5 80.5t-119.5 28.5q-76 0 -125 -23.5t-49 -72.5q0 -35 24.5 -57t65 -36.5t89 -26t97 -25.5t89 -35.5t65 -56t24.5 -86.5q0 -77 -37 -123t-101 -66.5t-146 -20.5zM296 736l86 132h96l1 -3l-108 -129h-75z" />
    <glyph glyph-name="uniA78B" unicode="&#xa78b;" horiz-adv-x="171" 
d="M46 208v478h100v-99l-52 -379h-48z" />
    <glyph glyph-name="Scaron" unicode="&#x160;" horiz-adv-x="667" 
d="M332 -12q-76 0 -140.5 20t-103.5 65t-39 121q0 5 0.5 11.5t0.5 8.5h94q0 -1 -1 -8.5t-1 -12.5q0 -63 52 -93.5t133 -30.5q94 0 144 29.5t50 84.5q0 38 -24.5 61.5t-65 38t-89.5 26.5t-97.5 26t-89 35.5t-65 56t-24.5 87.5q0 63 36 103.5t97 60.5t134 20t132.5 -19.5
t95 -62t35.5 -111.5v-12h-93v15q0 52 -47.5 80.5t-119.5 28.5q-76 0 -125 -23.5t-49 -72.5q0 -35 24.5 -57t65 -36.5t89 -26t97 -25.5t89 -35.5t65 -56t24.5 -86.5q0 -77 -37 -123t-101 -66.5t-146 -20.5zM292 733l-106 135h90l58 -79l57 79h90l-105 -135h-84z" />
    <glyph glyph-name="Scedilla" unicode="&#x15e;" horiz-adv-x="667" 
d="M337 -182q-24 0 -49.5 2t-45.5 6v49h100q19 0 30 5t11 19q0 12 -8.5 18t-30.5 6h-51l12 66q-71 3 -129 24.5t-92.5 65.5t-34.5 115q0 5 0.5 11.5t0.5 8.5h94q0 -1 -1 -8.5t-1 -12.5q0 -63 52 -93.5t133 -30.5q94 0 144 29.5t50 84.5q0 38 -24.5 61.5t-65 38t-89.5 26.5
t-97.5 26t-89 35.5t-65 56t-24.5 87.5q0 63 36 103.5t97 60.5t134 20t132.5 -19.5t95 -62t35.5 -111.5v-12h-93v15q0 52 -47.5 80.5t-119.5 28.5q-76 0 -125 -23.5t-49 -72.5q0 -35 24.5 -57t65 -36.5t89 -26t97 -25.5t89 -35.5t65 -56t24.5 -86.5q0 -71 -32 -116t-88 -67
t-129 -26l-4 -25q37 -2 64.5 -16t27.5 -49q0 -33 -19.5 -50.5t-47.5 -24t-51 -6.5z" />
    <glyph glyph-name="Scircumflex" unicode="&#x15c;" horiz-adv-x="667" 
d="M332 -12q-76 0 -140.5 20t-103.5 65t-39 121q0 5 0.5 11.5t0.5 8.5h94q0 -1 -1 -8.5t-1 -12.5q0 -63 52 -93.5t133 -30.5q94 0 144 29.5t50 84.5q0 38 -24.5 61.5t-65 38t-89.5 26.5t-97.5 26t-89 35.5t-65 56t-24.5 87.5q0 63 36 103.5t97 60.5t134 20t132.5 -19.5
t95 -62t35.5 -111.5v-12h-93v15q0 52 -47.5 80.5t-119.5 28.5q-76 0 -125 -23.5t-49 -72.5q0 -35 24.5 -57t65 -36.5t89 -26t97 -25.5t89 -35.5t65 -56t24.5 -86.5q0 -77 -37 -123t-101 -66.5t-146 -20.5zM186 733l106 135h84l105 -135h-90l-57 79l-58 -79h-90z" />
    <glyph glyph-name="Scommaaccent" unicode="&#x218;" horiz-adv-x="667" 
d="M332 -12q-76 0 -140.5 20t-103.5 65t-39 121q0 5 0.5 11.5t0.5 8.5h94q0 -1 -1 -8.5t-1 -12.5q0 -63 52 -93.5t133 -30.5q94 0 144 29.5t50 84.5q0 38 -24.5 61.5t-65 38t-89.5 26.5t-97.5 26t-89 35.5t-65 56t-24.5 87.5q0 63 36 103.5t97 60.5t134 20t132.5 -19.5
t95 -62t35.5 -111.5v-12h-93v15q0 52 -47.5 80.5t-119.5 28.5q-76 0 -125 -23.5t-49 -72.5q0 -35 24.5 -57t65 -36.5t89 -26t97 -25.5t89 -35.5t65 -56t24.5 -86.5q0 -77 -37 -123t-101 -66.5t-146 -20.5zM290 -230l37 81h-37v91h88v-84l-43 -88h-45z" />
    <glyph glyph-name="uni1E62" unicode="&#x1e62;" horiz-adv-x="667" 
d="M332 -12q-76 0 -140.5 20t-103.5 65t-39 121q0 5 0.5 11.5t0.5 8.5h94q0 -1 -1 -8.5t-1 -12.5q0 -63 52 -93.5t133 -30.5q94 0 144 29.5t50 84.5q0 38 -24.5 61.5t-65 38t-89.5 26.5t-97.5 26t-89 35.5t-65 56t-24.5 87.5q0 63 36 103.5t97 60.5t134 20t132.5 -19.5
t95 -62t35.5 -111.5v-12h-93v15q0 52 -47.5 80.5t-119.5 28.5q-76 0 -125 -23.5t-49 -72.5q0 -35 24.5 -57t65 -36.5t89 -26t97 -25.5t89 -35.5t65 -56t24.5 -86.5q0 -77 -37 -123t-101 -66.5t-146 -20.5zM290 -173v95h87v-95h-87z" />
    <glyph glyph-name="uni1E9E" unicode="&#x1e9e;" horiz-adv-x="768" 
d="M79 0v421q0 92 39 153.5t109.5 92.5t164.5 31q86 0 149.5 -24t98.5 -68t35 -103q0 -54 -26.5 -95.5t-64.5 -56.5v-4q58 -15 91.5 -56t33.5 -104q0 -53 -24.5 -95t-69.5 -67t-109 -25h-222v83h209q59 0 89 34t30 75q0 46 -36.5 76t-102.5 30h-189v83h186q47 0 77.5 31
t30.5 82q0 56 -42 89.5t-135 33.5q-107 0 -167 -49.5t-60 -153.5v-414h-95z" />
    <glyph glyph-name="uni018F" unicode="&#x18f;" horiz-adv-x="758" 
d="M372 -12q-104 0 -176.5 32.5t-110.5 103t-38 185.5v62h563q-8 126 -69 186t-180 60q-60 0 -110.5 -16t-81.5 -51.5t-31 -95.5h-91q0 81 41 135.5t114.5 81.5t168.5 27q168 0 252.5 -87.5t84.5 -272.5q0 -181 -82.5 -265.5t-253.5 -84.5zM380 69q106 0 160.5 49.5
t66.5 164.5h-462q0 -77 29.5 -124.5t82.5 -68.5t123 -21z" />
    <glyph glyph-name="T" unicode="T" horiz-adv-x="611" 
d="M258 0v603h-236v83h567v-83h-236v-603h-95z" />
    <glyph glyph-name="Tbar" unicode="&#x166;" horiz-adv-x="611" 
d="M258 0v381h-105v72h105v150h-236v83h567v-83h-236v-150h105v-72h-105v-381h-95z" />
    <glyph glyph-name="Tcaron" unicode="&#x164;" horiz-adv-x="611" 
d="M258 0v603h-236v83h567v-83h-236v-603h-95zM264 733l-106 135h90l58 -79l57 79h90l-105 -135h-84z" />
    <glyph glyph-name="Tcommaaccent" unicode="&#x162;" horiz-adv-x="611" 
d="M258 0v603h-236v83h567v-83h-236v-603h-95zM303 -182q-24 0 -49.5 2t-45.5 6v49h100q19 0 30 5t11 19q0 12 -8.5 18t-30.5 6h-51l16 88h62l-8 -47q37 -2 64.5 -16t27.5 -49q0 -33 -19.5 -50.5t-47.5 -24t-51 -6.5z" />
    <glyph glyph-name="uni021A" unicode="&#x21a;" horiz-adv-x="611" 
d="M258 0v603h-236v83h567v-83h-236v-603h-95zM262 -230l37 81h-37v91h88v-84l-43 -88h-45z" />
    <glyph glyph-name="uni1E6C" unicode="&#x1e6c;" horiz-adv-x="611" 
d="M258 0v603h-236v83h567v-83h-236v-603h-95zM262 -173v95h87v-95h-87z" />
    <glyph glyph-name="U" unicode="U" horiz-adv-x="722" 
d="M360 -12q-131 0 -206 63t-75 202v433h95v-438q0 -88 49 -133.5t137 -45.5t138 45.5t50 133.5v438h95v-433q0 -139 -75 -202t-208 -63z" />
    <glyph glyph-name="Uacute" unicode="&#xda;" horiz-adv-x="722" 
d="M360 -12q-131 0 -206 63t-75 202v433h95v-438q0 -88 49 -133.5t137 -45.5t138 45.5t50 133.5v438h95v-433q0 -139 -75 -202t-208 -63zM323 736l86 132h96l1 -3l-108 -129h-75z" />
    <glyph glyph-name="Ubreve" unicode="&#x16c;" horiz-adv-x="722" 
d="M360 -12q-131 0 -206 63t-75 202v433h95v-438q0 -88 49 -133.5t137 -45.5t138 45.5t50 133.5v438h95v-433q0 -139 -75 -202t-208 -63zM360 751q-56 0 -87.5 18t-44.5 45t-13 54h61q2 -11 9.5 -23.5t25 -21t49.5 -8.5q48 0 65.5 18t19.5 35h61q0 -27 -13 -54t-45 -45
t-88 -18z" />
    <glyph glyph-name="uni01D3" unicode="&#x1d3;" horiz-adv-x="722" 
d="M360 -12q-131 0 -206 63t-75 202v433h95v-438q0 -88 49 -133.5t137 -45.5t138 45.5t50 133.5v438h95v-433q0 -139 -75 -202t-208 -63zM319 733l-106 135h90l58 -79l57 79h90l-105 -135h-84z" />
    <glyph glyph-name="Ucircumflex" unicode="&#xdb;" horiz-adv-x="722" 
d="M360 -12q-131 0 -206 63t-75 202v433h95v-438q0 -88 49 -133.5t137 -45.5t138 45.5t50 133.5v438h95v-433q0 -139 -75 -202t-208 -63zM213 733l106 135h84l105 -135h-90l-57 79l-58 -79h-90z" />
    <glyph glyph-name="uni0214" unicode="&#x214;" horiz-adv-x="722" 
d="M360 -12q-131 0 -206 63t-75 202v433h95v-438q0 -88 49 -133.5t137 -45.5t138 45.5t50 133.5v438h95v-433q0 -139 -75 -202t-208 -63zM407 736l-84 129l1 3h97l62 -132h-76zM268 736l-84 129l1 3h97l62 -132h-76z" />
    <glyph glyph-name="Udieresis" unicode="&#xdc;" horiz-adv-x="722" 
d="M360 -12q-131 0 -206 63t-75 202v433h95v-438q0 -88 49 -133.5t137 -45.5t138 45.5t50 133.5v438h95v-433q0 -139 -75 -202t-208 -63zM411 773v95h87v-95h-87zM224 773v95h87v-95h-87z" />
    <glyph glyph-name="uni01D7" unicode="&#x1d7;" horiz-adv-x="722" 
d="M360 -12q-131 0 -206 63t-75 202v433h95v-438q0 -88 49 -133.5t137 -45.5t138 45.5t50 133.5v438h95v-433q0 -139 -75 -202t-208 -63zM411 773v95h87v-95h-87zM224 773v95h87v-95h-87zM323 903l86 132h96l1 -3l-108 -129h-75z" />
    <glyph glyph-name="uni01D9" unicode="&#x1d9;" horiz-adv-x="722" 
d="M360 -12q-131 0 -206 63t-75 202v433h95v-438q0 -88 49 -133.5t137 -45.5t138 45.5t50 133.5v438h95v-433q0 -139 -75 -202t-208 -63zM411 773v95h87v-95h-87zM224 773v95h87v-95h-87zM319 900l-106 135h90l58 -79l57 79h90l-105 -135h-84z" />
    <glyph glyph-name="uni01DB" unicode="&#x1db;" horiz-adv-x="722" 
d="M360 -12q-131 0 -206 63t-75 202v433h95v-438q0 -88 49 -133.5t137 -45.5t138 45.5t50 133.5v438h95v-433q0 -139 -75 -202t-208 -63zM411 773v95h87v-95h-87zM224 773v95h87v-95h-87zM323 903l-108 129l1 3h96l86 -132h-75z" />
    <glyph glyph-name="uni01D5" unicode="&#x1d5;" horiz-adv-x="722" 
d="M360 -12q-131 0 -206 63t-75 202v433h95v-438q0 -88 49 -133.5t137 -45.5t138 45.5t50 133.5v438h95v-433q0 -139 -75 -202t-208 -63zM411 773v95h87v-95h-87zM224 773v95h87v-95h-87zM208 939v72h305v-72h-305z" />
    <glyph glyph-name="uni1EE4" unicode="&#x1ee4;" horiz-adv-x="722" 
d="M360 -12q-131 0 -206 63t-75 202v433h95v-438q0 -88 49 -133.5t137 -45.5t138 45.5t50 133.5v438h95v-433q0 -139 -75 -202t-208 -63zM317 -173v95h87v-95h-87z" />
    <glyph glyph-name="Ugrave" unicode="&#xd9;" horiz-adv-x="722" 
d="M360 -12q-131 0 -206 63t-75 202v433h95v-438q0 -88 49 -133.5t137 -45.5t138 45.5t50 133.5v438h95v-433q0 -139 -75 -202t-208 -63zM323 736l-108 129l1 3h96l86 -132h-75z" />
    <glyph glyph-name="uni1EE6" unicode="&#x1ee6;" horiz-adv-x="722" 
d="M360 -12q-131 0 -206 63t-75 202v433h95v-438q0 -88 49 -133.5t137 -45.5t138 45.5t50 133.5v438h95v-433q0 -139 -75 -202t-208 -63zM333 736v61h13q16 0 22.5 4.5t6.5 13.5q0 10 -8 14t-23 4h-60v39q16 4 36 6t36 2q19 0 40.5 -5t36 -17.5t14.5 -37.5q0 -27 -18 -40.5
t-40 -15.5v-28h-56z" />
    <glyph glyph-name="Uhorn" unicode="&#x1af;" horiz-adv-x="722" 
d="M360 -12q-131 0 -206 63t-75 202v433h95v-438q0 -88 49 -133.5t137 -45.5t138 45.5t50 133.5v438h95v-433q0 -139 -75 -202t-208 -63zM560 615v56q69 8 104.5 39t35.5 90l62 14q0 -84 -51 -135.5t-151 -63.5zM642 760v108h120v-54l-41 -54h-79z" />
    <glyph glyph-name="uni1EE8" unicode="&#x1ee8;" horiz-adv-x="722" 
d="M360 -12q-131 0 -206 63t-75 202v433h95v-438q0 -88 49 -133.5t137 -45.5t138 45.5t50 133.5v438h95v-433q0 -139 -75 -202t-208 -63zM560 615v56q69 8 104.5 39t35.5 90l62 14q0 -84 -51 -135.5t-151 -63.5zM642 760v108h120v-54l-41 -54h-79zM323 736l86 132h96l1 -3
l-108 -129h-75z" />
    <glyph glyph-name="uni1EF0" unicode="&#x1ef0;" horiz-adv-x="722" 
d="M360 -12q-131 0 -206 63t-75 202v433h95v-438q0 -88 49 -133.5t137 -45.5t138 45.5t50 133.5v438h95v-433q0 -139 -75 -202t-208 -63zM560 615v56q69 8 104.5 39t35.5 90l62 14q0 -84 -51 -135.5t-151 -63.5zM642 760v108h120v-54l-41 -54h-79zM317 -173v95h87v-95h-87z
" />
    <glyph glyph-name="uni1EEA" unicode="&#x1eea;" horiz-adv-x="722" 
d="M360 -12q-131 0 -206 63t-75 202v433h95v-438q0 -88 49 -133.5t137 -45.5t138 45.5t50 133.5v438h95v-433q0 -139 -75 -202t-208 -63zM560 615v56q69 8 104.5 39t35.5 90l62 14q0 -84 -51 -135.5t-151 -63.5zM642 760v108h120v-54l-41 -54h-79zM323 736l-108 129l1 3h96
l86 -132h-75z" />
    <glyph glyph-name="uni1EEC" unicode="&#x1eec;" horiz-adv-x="722" 
d="M360 -12q-131 0 -206 63t-75 202v433h95v-438q0 -88 49 -133.5t137 -45.5t138 45.5t50 133.5v438h95v-433q0 -139 -75 -202t-208 -63zM560 615v56q69 8 104.5 39t35.5 90l62 14q0 -84 -51 -135.5t-151 -63.5zM642 760v108h120v-54l-41 -54h-79zM333 736v61h13
q16 0 22.5 4.5t6.5 13.5q0 10 -8 14t-23 4h-60v39q16 4 36 6t36 2q19 0 40.5 -5t36 -17.5t14.5 -37.5q0 -27 -18 -40.5t-40 -15.5v-28h-56z" />
    <glyph glyph-name="uni1EEE" unicode="&#x1eee;" horiz-adv-x="722" 
d="M360 -12q-131 0 -206 63t-75 202v433h95v-438q0 -88 49 -133.5t137 -45.5t138 45.5t50 133.5v438h95v-433q0 -139 -75 -202t-208 -63zM560 615v56q69 8 104.5 39t35.5 90l62 14q0 -84 -51 -135.5t-151 -63.5zM642 760v108h120v-54l-41 -54h-79zM197 764q0 42 20 73t65 31
q28 0 52.5 -7.5t48 -15.5t48.5 -8q11 0 19 7t9 24h65q0 -42 -20 -73t-65 -31q-28 0 -52.5 7.5t-48 15.5t-48.5 8q-11 0 -18.5 -7t-9.5 -24h-65z" />
    <glyph glyph-name="Uhungarumlaut" unicode="&#x170;" horiz-adv-x="722" 
d="M360 -12q-131 0 -206 63t-75 202v433h95v-438q0 -88 49 -133.5t137 -45.5t138 45.5t50 133.5v438h95v-433q0 -139 -75 -202t-208 -63zM392 736l62 132h97l1 -3l-84 -129h-76zM253 736l62 132h97l1 -3l-84 -129h-76z" />
    <glyph glyph-name="uni0216" unicode="&#x216;" horiz-adv-x="722" 
d="M360 -12q-131 0 -206 63t-75 202v433h95v-438q0 -88 49 -133.5t137 -45.5t138 45.5t50 133.5v438h95v-433q0 -139 -75 -202t-208 -63zM215 751q0 28 13 54.5t44.5 44.5t87.5 18t88 -18t45 -44.5t13 -54.5h-61q-2 16 -19.5 34.5t-65.5 18.5q-32 0 -49.5 -8.5t-25 -21
t-9.5 -23.5h-61z" />
    <glyph glyph-name="Umacron" unicode="&#x16a;" horiz-adv-x="722" 
d="M360 -12q-131 0 -206 63t-75 202v433h95v-438q0 -88 49 -133.5t137 -45.5t138 45.5t50 133.5v438h95v-433q0 -139 -75 -202t-208 -63zM208 772v72h305v-72h-305z" />
    <glyph glyph-name="Uogonek" unicode="&#x172;" horiz-adv-x="722" 
d="M429 -182q-23 0 -47 8t-39.5 28t-15.5 54q0 26 8.5 45.5t22.5 34.5q-130 1 -204.5 63.5t-74.5 201.5v433h95v-438q0 -88 49 -133.5t137 -45.5t138 45.5t50 133.5v438h95v-433q0 -120 -56.5 -183t-158.5 -77q-9 -11 -16 -25.5t-7 -29.5q0 -21 12 -38t41 -17h32v-51
q-16 -7 -31 -10.5t-30 -3.5z" />
    <glyph glyph-name="Uring" unicode="&#x16e;" horiz-adv-x="722" 
d="M360 -12q-131 0 -206 63t-75 202v433h95v-438q0 -88 49 -133.5t137 -45.5t138 45.5t50 133.5v438h95v-433q0 -139 -75 -202t-208 -63zM361 711q-45 0 -70.5 28t-25.5 68t25.5 68t70.5 28t70.5 -28t25.5 -68t-25.5 -68t-70.5 -28zM361 756q23 0 37 15t14 36t-14 36t-37 15
t-37 -15t-14 -36t14 -36t37 -15z" />
    <glyph glyph-name="Utilde" unicode="&#x168;" horiz-adv-x="722" 
d="M360 -12q-131 0 -206 63t-75 202v433h95v-438q0 -88 49 -133.5t137 -45.5t138 45.5t50 133.5v438h95v-433q0 -139 -75 -202t-208 -63zM197 764q0 42 20 73t65 31q28 0 52.5 -7.5t48 -15.5t48.5 -8q11 0 19 7t9 24h65q0 -42 -20 -73t-65 -31q-28 0 -52.5 7.5t-48 15.5
t-48.5 8q-11 0 -18.5 -7t-9.5 -24h-65z" />
    <glyph glyph-name="V" unicode="V" horiz-adv-x="667" 
d="M271 0l-255 686h103l181 -499q4 -12 8.5 -23.5l8.5 -22.5l8.5 -22.5t8.5 -23.5h5q4 12 8.5 23.5t8.5 23.5t8.5 23.5t8.5 23.5l180 497h98l-255 -686h-125z" />
    <glyph glyph-name="W" unicode="W" horiz-adv-x="944" 
d="M209 0l-198 686h100l138 -484q3 -9 7 -26l8.5 -35.5l7.5 -31l3 -12.5h5l2.5 14t6.5 33.5t7 36t4 21.5l106 484h136l110 -484q4 -16 8.5 -41t8.5 -44.5l4 -19.5h5l3 12.5l7.5 31l9 35.5t7.5 26l133 484h95l-198 -686h-131l-108 481l-10.5 48t-9 45l-3.5 19h-5l-3.5 -20
l-8 -46.5t-8.5 -45.5l-108 -481h-131z" />
    <glyph glyph-name="Wacute" unicode="&#x1e82;" horiz-adv-x="944" 
d="M209 0l-198 686h100l138 -484q3 -9 7 -26l8.5 -35.5l7.5 -31l3 -12.5h5l2.5 14t6.5 33.5t7 36t4 21.5l106 484h136l110 -484q4 -16 8.5 -41t8.5 -44.5l4 -19.5h5l3 12.5l7.5 31l9 35.5t7.5 26l133 484h95l-198 -686h-131l-108 481l-10.5 48t-9 45l-3.5 19h-5l-3.5 -20
l-8 -46.5t-8.5 -45.5l-108 -481h-131zM434 736l86 132h96l1 -3l-108 -129h-75z" />
    <glyph glyph-name="Wcircumflex" unicode="&#x174;" horiz-adv-x="944" 
d="M209 0l-198 686h100l138 -484q3 -9 7 -26l8.5 -35.5l7.5 -31l3 -12.5h5l2.5 14t6.5 33.5t7 36t4 21.5l106 484h136l110 -484q4 -16 8.5 -41t8.5 -44.5l4 -19.5h5l3 12.5l7.5 31l9 35.5t7.5 26l133 484h95l-198 -686h-131l-108 481l-10.5 48t-9 45l-3.5 19h-5l-3.5 -20
l-8 -46.5t-8.5 -45.5l-108 -481h-131zM324 733l106 135h84l105 -135h-90l-57 79l-58 -79h-90z" />
    <glyph glyph-name="Wdieresis" unicode="&#x1e84;" horiz-adv-x="944" 
d="M209 0l-198 686h100l138 -484q3 -9 7 -26l8.5 -35.5l7.5 -31l3 -12.5h5l2.5 14t6.5 33.5t7 36t4 21.5l106 484h136l110 -484q4 -16 8.5 -41t8.5 -44.5l4 -19.5h5l3 12.5l7.5 31l9 35.5t7.5 26l133 484h95l-198 -686h-131l-108 481l-10.5 48t-9 45l-3.5 19h-5l-3.5 -20
l-8 -46.5t-8.5 -45.5l-108 -481h-131zM522 773v95h87v-95h-87zM335 773v95h87v-95h-87z" />
    <glyph glyph-name="Wgrave" unicode="&#x1e80;" horiz-adv-x="944" 
d="M209 0l-198 686h100l138 -484q3 -9 7 -26l8.5 -35.5l7.5 -31l3 -12.5h5l2.5 14t6.5 33.5t7 36t4 21.5l106 484h136l110 -484q4 -16 8.5 -41t8.5 -44.5l4 -19.5h5l3 12.5l7.5 31l9 35.5t7.5 26l133 484h95l-198 -686h-131l-108 481l-10.5 48t-9 45l-3.5 19h-5l-3.5 -20
l-8 -46.5t-8.5 -45.5l-108 -481h-131zM434 736l-108 129l1 3h96l86 -132h-75z" />
    <glyph glyph-name="X" unicode="X" horiz-adv-x="667" 
d="M5 0l270 359l-246 327h118l182 -245h8l184 245h114l-244 -326l271 -360h-117l-209 281h-8l-208 -281h-115z" />
    <glyph glyph-name="Y" unicode="Y" horiz-adv-x="667" 
d="M287 0v284l-271 402h115l204 -314h5l203 314h109l-270 -402v-284h-95z" />
    <glyph glyph-name="Yacute" unicode="&#xdd;" horiz-adv-x="667" 
d="M287 0v284l-271 402h115l204 -314h5l203 314h109l-270 -402v-284h-95zM296 736l86 132h96l1 -3l-108 -129h-75z" />
    <glyph glyph-name="Ycircumflex" unicode="&#x176;" horiz-adv-x="667" 
d="M287 0v284l-271 402h115l204 -314h5l203 314h109l-270 -402v-284h-95zM186 733l106 135h84l105 -135h-90l-57 79l-58 -79h-90z" />
    <glyph glyph-name="Ydieresis" unicode="&#x178;" horiz-adv-x="667" 
d="M287 0v284l-271 402h115l204 -314h5l203 314h109l-270 -402v-284h-95zM384 773v95h87v-95h-87zM197 773v95h87v-95h-87z" />
    <glyph glyph-name="uni1EF4" unicode="&#x1ef4;" horiz-adv-x="667" 
d="M287 0v284l-271 402h115l204 -314h5l203 314h109l-270 -402v-284h-95zM290 -173v95h87v-95h-87z" />
    <glyph glyph-name="Ygrave" unicode="&#x1ef2;" horiz-adv-x="667" 
d="M287 0v284l-271 402h115l204 -314h5l203 314h109l-270 -402v-284h-95zM296 736l-108 129l1 3h96l86 -132h-75z" />
    <glyph glyph-name="uni1EF6" unicode="&#x1ef6;" horiz-adv-x="667" 
d="M287 0v284l-271 402h115l204 -314h5l203 314h109l-270 -402v-284h-95zM306 736v61h13q16 0 22.5 4.5t6.5 13.5q0 10 -8 14t-23 4h-60v39q16 4 36 6t36 2q19 0 40.5 -5t36 -17.5t14.5 -37.5q0 -27 -18 -40.5t-40 -15.5v-28h-56z" />
    <glyph glyph-name="uni0232" unicode="&#x232;" horiz-adv-x="667" 
d="M287 0v284l-271 402h115l204 -314h5l203 314h109l-270 -402v-284h-95zM181 772v72h305v-72h-305z" />
    <glyph glyph-name="uni1EF8" unicode="&#x1ef8;" horiz-adv-x="667" 
d="M287 0v284l-271 402h115l204 -314h5l203 314h109l-270 -402v-284h-95zM170 764q0 42 20 73t65 31q28 0 52.5 -7.5t48 -15.5t48.5 -8q11 0 19 7t9 24h65q0 -42 -20 -73t-65 -31q-28 0 -52.5 7.5t-48 15.5t-48.5 8q-11 0 -18.5 -7t-9.5 -24h-65z" />
    <glyph glyph-name="Z" unicode="Z" horiz-adv-x="611" 
d="M23 0v49l412 554h-386v83h531v-49l-413 -554h422v-83h-566z" />
    <glyph glyph-name="Zacute" unicode="&#x179;" horiz-adv-x="611" 
d="M23 0v49l412 554h-386v83h531v-49l-413 -554h422v-83h-566zM268 736l86 132h96l1 -3l-108 -129h-75z" />
    <glyph glyph-name="Zcaron" unicode="&#x17d;" horiz-adv-x="611" 
d="M23 0v49l412 554h-386v83h531v-49l-413 -554h422v-83h-566zM264 733l-106 135h90l58 -79l57 79h90l-105 -135h-84z" />
    <glyph glyph-name="Zdotaccent" unicode="&#x17b;" horiz-adv-x="611" 
d="M23 0v49l412 554h-386v83h531v-49l-413 -554h422v-83h-566zM262 773v95h87v-95h-87z" />
    <glyph glyph-name="uni1E92" unicode="&#x1e92;" horiz-adv-x="611" 
d="M23 0v49l412 554h-386v83h531v-49l-413 -554h422v-83h-566zM262 -173v95h87v-95h-87z" />
    <glyph glyph-name="Iacute_J.loclNLD" horiz-adv-x="778" 
d="M92 0v686h95v-686h-95zM101 736l86 132h96l1 -3l-108 -129h-75zM503 -12q-93 0 -144.5 49.5t-51.5 145.5v25h95v-30q0 -54 26 -81.5t75 -27.5t75.5 31.5t26.5 93.5v492h95v-487q0 -107 -51.5 -159t-145.5 -52zM615 736l86 132h96l1 -3l-108 -129h-75z" />
    <glyph glyph-name="G_tilde.loclGUA" horiz-adv-x="778" 
d="M387 -12q-111 0 -187 39t-114.5 118t-38.5 198q0 179 87.5 267t258.5 88q68 0 125.5 -15t99.5 -45.5t65.5 -77t23.5 -108.5h-97q0 57 -27.5 93.5t-76 54t-113.5 17.5q-122 0 -184.5 -62.5t-62.5 -211.5v-2q1 -149 62 -210.5t179 -61.5q77 0 127 21.5t74 64.5t24 109v50
l40 -40h-282v83h337v-357h-74l-7 76q-41 -46 -103 -67t-136 -21zM225 764q0 42 20 73t65 31q28 0 52.5 -7.5t48 -15.5t48.5 -8q11 0 19 7t9 24h65q0 -42 -20 -73t-65 -31q-28 0 -52.5 7.5t-48 15.5t-48.5 8q-11 0 -18.5 -7t-9.5 -24h-65z" />
    <glyph glyph-name="Y.loclGUA" horiz-adv-x="667" 
d="M327 -12q-72 0 -128 18t-88 56t-32 98v8h95q0 -49 44.5 -74t110.5 -25q79 0 121.5 42.5t42.5 136.5v46h-7q-28 -50 -76 -73t-112 -23q-102 0 -160.5 53.5t-58.5 171.5v263h95v-268q0 -69 35.5 -104t103.5 -35q82 0 131 50.5t49 148.5v208h95v-433q0 -143 -67 -204
t-194 -61z" />
    <glyph glyph-name="Yacute.loclGUA" horiz-adv-x="667" 
d="M327 -12q-72 0 -128 18t-88 56t-32 98v8h95q0 -49 44.5 -74t110.5 -25q79 0 121.5 42.5t42.5 136.5v46h-7q-28 -50 -76 -73t-112 -23q-102 0 -160.5 53.5t-58.5 171.5v263h95v-268q0 -69 35.5 -104t103.5 -35q82 0 131 50.5t49 148.5v208h95v-433q0 -143 -67 -204
t-194 -61zM296 736l86 132h96l1 -3l-108 -129h-75z" />
    <glyph glyph-name="Ycircumflex.loclGUA" horiz-adv-x="667" 
d="M327 -12q-72 0 -128 18t-88 56t-32 98v8h95q0 -49 44.5 -74t110.5 -25q79 0 121.5 42.5t42.5 136.5v46h-7q-28 -50 -76 -73t-112 -23q-102 0 -160.5 53.5t-58.5 171.5v263h95v-268q0 -69 35.5 -104t103.5 -35q82 0 131 50.5t49 148.5v208h95v-433q0 -143 -67 -204
t-194 -61zM186 733l106 135h84l105 -135h-90l-57 79l-58 -79h-90z" />
    <glyph glyph-name="Ydieresis.loclGUA" horiz-adv-x="667" 
d="M327 -12q-72 0 -128 18t-88 56t-32 98v8h95q0 -49 44.5 -74t110.5 -25q79 0 121.5 42.5t42.5 136.5v46h-7q-28 -50 -76 -73t-112 -23q-102 0 -160.5 53.5t-58.5 171.5v263h95v-268q0 -69 35.5 -104t103.5 -35q82 0 131 50.5t49 148.5v208h95v-433q0 -143 -67 -204
t-194 -61zM384 773v95h87v-95h-87zM197 773v95h87v-95h-87z" />
    <glyph glyph-name="Ygrave.loclGUA" horiz-adv-x="667" 
d="M327 -12q-72 0 -128 18t-88 56t-32 98v8h95q0 -49 44.5 -74t110.5 -25q79 0 121.5 42.5t42.5 136.5v46h-7q-28 -50 -76 -73t-112 -23q-102 0 -160.5 53.5t-58.5 171.5v263h95v-268q0 -69 35.5 -104t103.5 -35q82 0 131 50.5t49 148.5v208h95v-433q0 -143 -67 -204
t-194 -61zM296 736l-108 129l1 3h96l86 -132h-75z" />
    <glyph glyph-name="Ymacron.loclGUA" horiz-adv-x="667" 
d="M327 -12q-72 0 -128 18t-88 56t-32 98v8h95q0 -49 44.5 -74t110.5 -25q79 0 121.5 42.5t42.5 136.5v46h-7q-28 -50 -76 -73t-112 -23q-102 0 -160.5 53.5t-58.5 171.5v263h95v-268q0 -69 35.5 -104t103.5 -35q82 0 131 50.5t49 148.5v208h95v-433q0 -143 -67 -204
t-194 -61zM181 772v72h305v-72h-305z" />
    <glyph glyph-name="Ytilde.loclGUA" horiz-adv-x="667" 
d="M327 -12q-72 0 -128 18t-88 56t-32 98v8h95q0 -49 44.5 -74t110.5 -25q79 0 121.5 42.5t42.5 136.5v46h-7q-28 -50 -76 -73t-112 -23q-102 0 -160.5 53.5t-58.5 171.5v263h95v-268q0 -69 35.5 -104t103.5 -35q82 0 131 50.5t49 148.5v208h95v-433q0 -143 -67 -204
t-194 -61zM170 764q0 42 20 73t65 31q28 0 52.5 -7.5t48 -15.5t48.5 -8q11 0 19 7t9 24h65q0 -42 -20 -73t-65 -31q-28 0 -52.5 7.5t-48 15.5t-48.5 8q-11 0 -18.5 -7t-9.5 -24h-65z" />
    <glyph glyph-name="Cacute.loclPLK" horiz-adv-x="722" 
d="M381 -12q-110 0 -184.5 39t-112 118t-37.5 198q0 179 84.5 267t249.5 88q86 0 152.5 -28.5t104.5 -86t38 -145.5h-97q0 90 -53.5 134.5t-144.5 44.5q-119 0 -177 -63t-59 -209v-2q0 -147 58 -210.5t178 -63.5q92 0 147 44t55 133h93q0 -88 -38 -145.5t-104.5 -85
t-152.5 -27.5zM323 736l26 132h96l1 -3l-48 -129h-75z" />
    <glyph glyph-name="Nacute.loclPLK" horiz-adv-x="722" 
d="M79 0v686h85l362 -478q4 -6 8 -11l8 -10t8 -11l4 1v15.5v15.5v16v462h89v-686h-81l-364 484q-7 9 -13 17.5t-13 17.5l-4 -1v-16v-15.5v-15.5v-471h-89zM323 736l26 132h96l1 -3l-48 -129h-75z" />
    <glyph glyph-name="Oacute.loclPLK" horiz-adv-x="778" 
d="M389 -12q-161 0 -251.5 88t-90.5 267t90.5 267t251.5 88t252 -88t91 -267t-91 -267t-252 -88zM389 69q76 0 131 27t84.5 86.5t29.5 156.5v4q0 99 -30 159t-85 87.5t-130 27.5t-129.5 -27.5t-84 -87.5t-30.5 -159v-4q0 -97 29.5 -156.5t84.5 -86.5t130 -27zM351 736
l26 132h96l1 -3l-48 -129h-75z" />
    <glyph glyph-name="Sacute.loclPLK" horiz-adv-x="667" 
d="M332 -12q-76 0 -140.5 20t-103.5 65t-39 121q0 5 0.5 11.5t0.5 8.5h94q0 -1 -1 -8.5t-1 -12.5q0 -63 52 -93.5t133 -30.5q94 0 144 29.5t50 84.5q0 38 -24.5 61.5t-65 38t-89.5 26.5t-97.5 26t-89 35.5t-65 56t-24.5 87.5q0 63 36 103.5t97 60.5t134 20t132.5 -19.5
t95 -62t35.5 -111.5v-12h-93v15q0 52 -47.5 80.5t-119.5 28.5q-76 0 -125 -23.5t-49 -72.5q0 -35 24.5 -57t65 -36.5t89 -26t97 -25.5t89 -35.5t65 -56t24.5 -86.5q0 -77 -37 -123t-101 -66.5t-146 -20.5zM296 736l26 132h96l1 -3l-48 -129h-75z" />
    <glyph glyph-name="Zacute.loclPLK" horiz-adv-x="611" 
d="M23 0v49l412 554h-386v83h531v-49l-413 -554h422v-83h-566zM268 736l26 132h96l1 -3l-48 -129h-75z" />
    <glyph glyph-name="a" unicode="a" 
d="M210 -12q-25 0 -55 5.5t-57 21t-44.5 44.5t-17.5 77q0 72 45.5 110t124.5 52t180 14v58q0 28 -10 49.5t-36 33.5t-74 12q-47 0 -73 -12.5t-36 -31.5t-10 -39v-12h-85q-1 4 -1 9.5v12.5q0 72 59.5 109t153.5 37q100 0 150 -41.5t50 -115.5v-285q0 -19 11 -27t24 -8h40v-57
q-8 -4 -25.5 -8t-42.5 -4q-35 0 -58 20.5t-30 54.5h-7q-27 -37 -73.5 -58t-102.5 -21zM233 61q37 0 72 15.5t58 46.5t23 78v38q-77 0 -135 -7.5t-90.5 -28.5t-32.5 -62q0 -45 28 -62.5t77 -17.5z" />
    <glyph glyph-name="aacute" unicode="&#xe1;" 
d="M210 -12q-25 0 -55 5.5t-57 21t-44.5 44.5t-17.5 77q0 72 45.5 110t124.5 52t180 14v58q0 28 -10 49.5t-36 33.5t-74 12q-47 0 -73 -12.5t-36 -31.5t-10 -39v-12h-85q-1 4 -1 9.5v12.5q0 72 59.5 109t153.5 37q100 0 150 -41.5t50 -115.5v-285q0 -19 11 -27t24 -8h40v-57
q-8 -4 -25.5 -8t-42.5 -4q-35 0 -58 20.5t-30 54.5h-7q-27 -37 -73.5 -58t-102.5 -21zM233 61q37 0 72 15.5t58 46.5t23 78v38q-77 0 -135 -7.5t-90.5 -28.5t-32.5 -62q0 -45 28 -62.5t77 -17.5zM240 591l86 132h96l1 -3l-108 -129h-75z" />
    <glyph glyph-name="abreve" unicode="&#x103;" 
d="M210 -12q-25 0 -55 5.5t-57 21t-44.5 44.5t-17.5 77q0 72 45.5 110t124.5 52t180 14v58q0 28 -10 49.5t-36 33.5t-74 12q-47 0 -73 -12.5t-36 -31.5t-10 -39v-12h-85q-1 4 -1 9.5v12.5q0 72 59.5 109t153.5 37q100 0 150 -41.5t50 -115.5v-285q0 -19 11 -27t24 -8h40v-57
q-8 -4 -25.5 -8t-42.5 -4q-35 0 -58 20.5t-30 54.5h-7q-27 -37 -73.5 -58t-102.5 -21zM233 61q37 0 72 15.5t58 46.5t23 78v38q-77 0 -135 -7.5t-90.5 -28.5t-32.5 -62q0 -45 28 -62.5t77 -17.5zM277 606q-56 0 -87.5 18t-44.5 45t-13 54h61q2 -11 9.5 -23.5t25 -21
t49.5 -8.5q48 0 65.5 18t19.5 35h61q0 -27 -13 -54t-45 -45t-88 -18z" />
    <glyph glyph-name="uni1EAF" unicode="&#x1eaf;" 
d="M210 -12q-25 0 -55 5.5t-57 21t-44.5 44.5t-17.5 77q0 72 45.5 110t124.5 52t180 14v58q0 28 -10 49.5t-36 33.5t-74 12q-47 0 -73 -12.5t-36 -31.5t-10 -39v-12h-85q-1 4 -1 9.5v12.5q0 72 59.5 109t153.5 37q100 0 150 -41.5t50 -115.5v-285q0 -19 11 -27t24 -8h40v-57
q-8 -4 -25.5 -8t-42.5 -4q-35 0 -58 20.5t-30 54.5h-7q-27 -37 -73.5 -58t-102.5 -21zM233 61q37 0 72 15.5t58 46.5t23 78v38q-77 0 -135 -7.5t-90.5 -28.5t-32.5 -62q0 -45 28 -62.5t77 -17.5zM277 606q-56 0 -87.5 18t-44.5 45t-13 54h61q2 -11 9.5 -23.5t25 -21
t49.5 -8.5q48 0 65.5 18t19.5 35h61q0 -27 -13 -54t-45 -45t-88 -18zM240 723l86 132h96l1 -3l-108 -129h-75z" />
    <glyph glyph-name="uni1EB7" unicode="&#x1eb7;" 
d="M210 -12q-25 0 -55 5.5t-57 21t-44.5 44.5t-17.5 77q0 72 45.5 110t124.5 52t180 14v58q0 28 -10 49.5t-36 33.5t-74 12q-47 0 -73 -12.5t-36 -31.5t-10 -39v-12h-85q-1 4 -1 9.5v12.5q0 72 59.5 109t153.5 37q100 0 150 -41.5t50 -115.5v-285q0 -19 11 -27t24 -8h40v-57
q-8 -4 -25.5 -8t-42.5 -4q-35 0 -58 20.5t-30 54.5h-7q-27 -37 -73.5 -58t-102.5 -21zM233 61q37 0 72 15.5t58 46.5t23 78v38q-77 0 -135 -7.5t-90.5 -28.5t-32.5 -62q0 -45 28 -62.5t77 -17.5zM277 606q-56 0 -87.5 18t-44.5 45t-13 54h61q2 -11 9.5 -23.5t25 -21
t49.5 -8.5q48 0 65.5 18t19.5 35h61q0 -27 -13 -54t-45 -45t-88 -18zM234 -173v95h87v-95h-87z" />
    <glyph glyph-name="uni1EB1" unicode="&#x1eb1;" 
d="M210 -12q-25 0 -55 5.5t-57 21t-44.5 44.5t-17.5 77q0 72 45.5 110t124.5 52t180 14v58q0 28 -10 49.5t-36 33.5t-74 12q-47 0 -73 -12.5t-36 -31.5t-10 -39v-12h-85q-1 4 -1 9.5v12.5q0 72 59.5 109t153.5 37q100 0 150 -41.5t50 -115.5v-285q0 -19 11 -27t24 -8h40v-57
q-8 -4 -25.5 -8t-42.5 -4q-35 0 -58 20.5t-30 54.5h-7q-27 -37 -73.5 -58t-102.5 -21zM233 61q37 0 72 15.5t58 46.5t23 78v38q-77 0 -135 -7.5t-90.5 -28.5t-32.5 -62q0 -45 28 -62.5t77 -17.5zM277 606q-56 0 -87.5 18t-44.5 45t-13 54h61q2 -11 9.5 -23.5t25 -21
t49.5 -8.5q48 0 65.5 18t19.5 35h61q0 -27 -13 -54t-45 -45t-88 -18zM242 723l-108 129l1 3h96l86 -132h-75z" />
    <glyph glyph-name="uni1EB3" unicode="&#x1eb3;" 
d="M210 -12q-25 0 -55 5.5t-57 21t-44.5 44.5t-17.5 77q0 72 45.5 110t124.5 52t180 14v58q0 28 -10 49.5t-36 33.5t-74 12q-47 0 -73 -12.5t-36 -31.5t-10 -39v-12h-85q-1 4 -1 9.5v12.5q0 72 59.5 109t153.5 37q100 0 150 -41.5t50 -115.5v-285q0 -19 11 -27t24 -8h40v-57
q-8 -4 -25.5 -8t-42.5 -4q-35 0 -58 20.5t-30 54.5h-7q-27 -37 -73.5 -58t-102.5 -21zM233 61q37 0 72 15.5t58 46.5t23 78v38q-77 0 -135 -7.5t-90.5 -28.5t-32.5 -62q0 -45 28 -62.5t77 -17.5zM277 606q-56 0 -87.5 18t-44.5 45t-13 54h61q2 -11 9.5 -23.5t25 -21
t49.5 -8.5q48 0 65.5 18t19.5 35h61q0 -27 -13 -54t-45 -45t-88 -18zM250 723v61h13q16 0 22.5 4.5t6.5 13.5q0 10 -8 14t-23 4h-60v39q16 4 36 6t36 2q19 0 40.5 -5t36 -17.5t14.5 -37.5q0 -27 -18 -40.5t-40 -15.5v-28h-56z" />
    <glyph glyph-name="uni1EB5" unicode="&#x1eb5;" 
d="M210 -12q-25 0 -55 5.5t-57 21t-44.5 44.5t-17.5 77q0 72 45.5 110t124.5 52t180 14v58q0 28 -10 49.5t-36 33.5t-74 12q-47 0 -73 -12.5t-36 -31.5t-10 -39v-12h-85q-1 4 -1 9.5v12.5q0 72 59.5 109t153.5 37q100 0 150 -41.5t50 -115.5v-285q0 -19 11 -27t24 -8h40v-57
q-8 -4 -25.5 -8t-42.5 -4q-35 0 -58 20.5t-30 54.5h-7q-27 -37 -73.5 -58t-102.5 -21zM233 61q37 0 72 15.5t58 46.5t23 78v38q-77 0 -135 -7.5t-90.5 -28.5t-32.5 -62q0 -45 28 -62.5t77 -17.5zM277 606q-56 0 -87.5 18t-44.5 45t-13 54h61q2 -11 9.5 -23.5t25 -21
t49.5 -8.5q48 0 65.5 18t19.5 35h61q0 -27 -13 -54t-45 -45t-88 -18zM116 779q0 42 20 73t65 31q28 0 52.5 -7.5t48 -15.5t48.5 -8q11 0 19 7t9 24h65q0 -42 -20 -73t-65 -31q-28 0 -52.5 7.5t-48 15.5t-48.5 8q-11 0 -18.5 -7t-9.5 -24h-65z" />
    <glyph glyph-name="uni01CE" unicode="&#x1ce;" 
d="M210 -12q-25 0 -55 5.5t-57 21t-44.5 44.5t-17.5 77q0 72 45.5 110t124.5 52t180 14v58q0 28 -10 49.5t-36 33.5t-74 12q-47 0 -73 -12.5t-36 -31.5t-10 -39v-12h-85q-1 4 -1 9.5v12.5q0 72 59.5 109t153.5 37q100 0 150 -41.5t50 -115.5v-285q0 -19 11 -27t24 -8h40v-57
q-8 -4 -25.5 -8t-42.5 -4q-35 0 -58 20.5t-30 54.5h-7q-27 -37 -73.5 -58t-102.5 -21zM233 61q37 0 72 15.5t58 46.5t23 78v38q-77 0 -135 -7.5t-90.5 -28.5t-32.5 -62q0 -45 28 -62.5t77 -17.5zM236 588l-106 135h90l58 -79l57 79h90l-105 -135h-84z" />
    <glyph glyph-name="acircumflex" unicode="&#xe2;" 
d="M210 -12q-25 0 -55 5.5t-57 21t-44.5 44.5t-17.5 77q0 72 45.5 110t124.5 52t180 14v58q0 28 -10 49.5t-36 33.5t-74 12q-47 0 -73 -12.5t-36 -31.5t-10 -39v-12h-85q-1 4 -1 9.5v12.5q0 72 59.5 109t153.5 37q100 0 150 -41.5t50 -115.5v-285q0 -19 11 -27t24 -8h40v-57
q-8 -4 -25.5 -8t-42.5 -4q-35 0 -58 20.5t-30 54.5h-7q-27 -37 -73.5 -58t-102.5 -21zM233 61q37 0 72 15.5t58 46.5t23 78v38q-77 0 -135 -7.5t-90.5 -28.5t-32.5 -62q0 -45 28 -62.5t77 -17.5zM130 588l106 135h84l105 -135h-90l-57 79l-58 -79h-90z" />
    <glyph glyph-name="uni1EA5" unicode="&#x1ea5;" 
d="M210 -12q-25 0 -55 5.5t-57 21t-44.5 44.5t-17.5 77q0 72 45.5 110t124.5 52t180 14v58q0 28 -10 49.5t-36 33.5t-74 12q-47 0 -73 -12.5t-36 -31.5t-10 -39v-12h-85q-1 4 -1 9.5v12.5q0 72 59.5 109t153.5 37q100 0 150 -41.5t50 -115.5v-285q0 -19 11 -27t24 -8h40v-57
q-8 -4 -25.5 -8t-42.5 -4q-35 0 -58 20.5t-30 54.5h-7q-27 -37 -73.5 -58t-102.5 -21zM233 61q37 0 72 15.5t58 46.5t23 78v38q-77 0 -135 -7.5t-90.5 -28.5t-32.5 -62q0 -45 28 -62.5t77 -17.5zM130 588l106 135h84l105 -135h-90l-57 79l-58 -79h-90zM372 686l86 132h96
l1 -3l-108 -129h-75z" />
    <glyph glyph-name="uni1EAD" unicode="&#x1ead;" 
d="M210 -12q-25 0 -55 5.5t-57 21t-44.5 44.5t-17.5 77q0 72 45.5 110t124.5 52t180 14v58q0 28 -10 49.5t-36 33.5t-74 12q-47 0 -73 -12.5t-36 -31.5t-10 -39v-12h-85q-1 4 -1 9.5v12.5q0 72 59.5 109t153.5 37q100 0 150 -41.5t50 -115.5v-285q0 -19 11 -27t24 -8h40v-57
q-8 -4 -25.5 -8t-42.5 -4q-35 0 -58 20.5t-30 54.5h-7q-27 -37 -73.5 -58t-102.5 -21zM233 61q37 0 72 15.5t58 46.5t23 78v38q-77 0 -135 -7.5t-90.5 -28.5t-32.5 -62q0 -45 28 -62.5t77 -17.5zM130 588l106 135h84l105 -135h-90l-57 79l-58 -79h-90zM234 -173v95h87v-95
h-87z" />
    <glyph glyph-name="uni1EA7" unicode="&#x1ea7;" 
d="M210 -12q-25 0 -55 5.5t-57 21t-44.5 44.5t-17.5 77q0 72 45.5 110t124.5 52t180 14v58q0 28 -10 49.5t-36 33.5t-74 12q-47 0 -73 -12.5t-36 -31.5t-10 -39v-12h-85q-1 4 -1 9.5v12.5q0 72 59.5 109t153.5 37q100 0 150 -41.5t50 -115.5v-285q0 -19 11 -27t24 -8h40v-57
q-8 -4 -25.5 -8t-42.5 -4q-35 0 -58 20.5t-30 54.5h-7q-27 -37 -73.5 -58t-102.5 -21zM233 61q37 0 72 15.5t58 46.5t23 78v38q-77 0 -135 -7.5t-90.5 -28.5t-32.5 -62q0 -45 28 -62.5t77 -17.5zM130 588l106 135h84l105 -135h-90l-57 79l-58 -79h-90zM412 686l-108 129l1 3
h96l86 -132h-75z" />
    <glyph glyph-name="uni1EA9" unicode="&#x1ea9;" 
d="M210 -12q-25 0 -55 5.5t-57 21t-44.5 44.5t-17.5 77q0 72 45.5 110t124.5 52t180 14v58q0 28 -10 49.5t-36 33.5t-74 12q-47 0 -73 -12.5t-36 -31.5t-10 -39v-12h-85q-1 4 -1 9.5v12.5q0 72 59.5 109t153.5 37q100 0 150 -41.5t50 -115.5v-285q0 -19 11 -27t24 -8h40v-57
q-8 -4 -25.5 -8t-42.5 -4q-35 0 -58 20.5t-30 54.5h-7q-27 -37 -73.5 -58t-102.5 -21zM233 61q37 0 72 15.5t58 46.5t23 78v38q-77 0 -135 -7.5t-90.5 -28.5t-32.5 -62q0 -45 28 -62.5t77 -17.5zM130 588l106 135h84l105 -135h-90l-57 79l-58 -79h-90zM382 686v61h13
q16 0 22.5 4.5t6.5 13.5q0 10 -8 14t-23 4h-60v39q16 4 36 6t36 2q19 0 40.5 -5t36 -17.5t14.5 -37.5q0 -27 -18 -40.5t-40 -15.5v-28h-56z" />
    <glyph glyph-name="uni1EAB" unicode="&#x1eab;" 
d="M210 -12q-25 0 -55 5.5t-57 21t-44.5 44.5t-17.5 77q0 72 45.5 110t124.5 52t180 14v58q0 28 -10 49.5t-36 33.5t-74 12q-47 0 -73 -12.5t-36 -31.5t-10 -39v-12h-85q-1 4 -1 9.5v12.5q0 72 59.5 109t153.5 37q100 0 150 -41.5t50 -115.5v-285q0 -19 11 -27t24 -8h40v-57
q-8 -4 -25.5 -8t-42.5 -4q-35 0 -58 20.5t-30 54.5h-7q-27 -37 -73.5 -58t-102.5 -21zM233 61q37 0 72 15.5t58 46.5t23 78v38q-77 0 -135 -7.5t-90.5 -28.5t-32.5 -62q0 -45 28 -62.5t77 -17.5zM130 588l106 135h84l105 -135h-90l-57 79l-58 -79h-90zM116 779q0 42 20 73
t65 31q28 0 52.5 -7.5t48 -15.5t48.5 -8q11 0 19 7t9 24h65q0 -42 -20 -73t-65 -31q-28 0 -52.5 7.5t-48 15.5t-48.5 8q-11 0 -18.5 -7t-9.5 -24h-65z" />
    <glyph glyph-name="uni0201" unicode="&#x201;" 
d="M210 -12q-25 0 -55 5.5t-57 21t-44.5 44.5t-17.5 77q0 72 45.5 110t124.5 52t180 14v58q0 28 -10 49.5t-36 33.5t-74 12q-47 0 -73 -12.5t-36 -31.5t-10 -39v-12h-85q-1 4 -1 9.5v12.5q0 72 59.5 109t153.5 37q100 0 150 -41.5t50 -115.5v-285q0 -19 11 -27t24 -8h40v-57
q-8 -4 -25.5 -8t-42.5 -4q-35 0 -58 20.5t-30 54.5h-7q-27 -37 -73.5 -58t-102.5 -21zM233 61q37 0 72 15.5t58 46.5t23 78v38q-77 0 -135 -7.5t-90.5 -28.5t-32.5 -62q0 -45 28 -62.5t77 -17.5zM324 591l-84 129l1 3h97l62 -132h-76zM185 591l-84 129l1 3h97l62 -132h-76z
" />
    <glyph glyph-name="adieresis" unicode="&#xe4;" 
d="M210 -12q-25 0 -55 5.5t-57 21t-44.5 44.5t-17.5 77q0 72 45.5 110t124.5 52t180 14v58q0 28 -10 49.5t-36 33.5t-74 12q-47 0 -73 -12.5t-36 -31.5t-10 -39v-12h-85q-1 4 -1 9.5v12.5q0 72 59.5 109t153.5 37q100 0 150 -41.5t50 -115.5v-285q0 -19 11 -27t24 -8h40v-57
q-8 -4 -25.5 -8t-42.5 -4q-35 0 -58 20.5t-30 54.5h-7q-27 -37 -73.5 -58t-102.5 -21zM233 61q37 0 72 15.5t58 46.5t23 78v38q-77 0 -135 -7.5t-90.5 -28.5t-32.5 -62q0 -45 28 -62.5t77 -17.5zM328 628v95h87v-95h-87zM141 628v95h87v-95h-87z" />
    <glyph glyph-name="uni1EA1" unicode="&#x1ea1;" 
d="M210 -12q-25 0 -55 5.5t-57 21t-44.5 44.5t-17.5 77q0 72 45.5 110t124.5 52t180 14v58q0 28 -10 49.5t-36 33.5t-74 12q-47 0 -73 -12.5t-36 -31.5t-10 -39v-12h-85q-1 4 -1 9.5v12.5q0 72 59.5 109t153.5 37q100 0 150 -41.5t50 -115.5v-285q0 -19 11 -27t24 -8h40v-57
q-8 -4 -25.5 -8t-42.5 -4q-35 0 -58 20.5t-30 54.5h-7q-27 -37 -73.5 -58t-102.5 -21zM233 61q37 0 72 15.5t58 46.5t23 78v38q-77 0 -135 -7.5t-90.5 -28.5t-32.5 -62q0 -45 28 -62.5t77 -17.5zM234 -173v95h87v-95h-87z" />
    <glyph glyph-name="agrave" unicode="&#xe0;" 
d="M210 -12q-25 0 -55 5.5t-57 21t-44.5 44.5t-17.5 77q0 72 45.5 110t124.5 52t180 14v58q0 28 -10 49.5t-36 33.5t-74 12q-47 0 -73 -12.5t-36 -31.5t-10 -39v-12h-85q-1 4 -1 9.5v12.5q0 72 59.5 109t153.5 37q100 0 150 -41.5t50 -115.5v-285q0 -19 11 -27t24 -8h40v-57
q-8 -4 -25.5 -8t-42.5 -4q-35 0 -58 20.5t-30 54.5h-7q-27 -37 -73.5 -58t-102.5 -21zM233 61q37 0 72 15.5t58 46.5t23 78v38q-77 0 -135 -7.5t-90.5 -28.5t-32.5 -62q0 -45 28 -62.5t77 -17.5zM240 591l-108 129l1 3h96l86 -132h-75z" />
    <glyph glyph-name="uni1EA3" unicode="&#x1ea3;" 
d="M210 -12q-25 0 -55 5.5t-57 21t-44.5 44.5t-17.5 77q0 72 45.5 110t124.5 52t180 14v58q0 28 -10 49.5t-36 33.5t-74 12q-47 0 -73 -12.5t-36 -31.5t-10 -39v-12h-85q-1 4 -1 9.5v12.5q0 72 59.5 109t153.5 37q100 0 150 -41.5t50 -115.5v-285q0 -19 11 -27t24 -8h40v-57
q-8 -4 -25.5 -8t-42.5 -4q-35 0 -58 20.5t-30 54.5h-7q-27 -37 -73.5 -58t-102.5 -21zM233 61q37 0 72 15.5t58 46.5t23 78v38q-77 0 -135 -7.5t-90.5 -28.5t-32.5 -62q0 -45 28 -62.5t77 -17.5zM250 591v61h13q16 0 22.5 4.5t6.5 13.5q0 10 -8 14t-23 4h-60v39q16 4 36 6
t36 2q19 0 40.5 -5t36 -17.5t14.5 -37.5q0 -27 -18 -40.5t-40 -15.5v-28h-56z" />
    <glyph glyph-name="uni0203" unicode="&#x203;" 
d="M210 -12q-25 0 -55 5.5t-57 21t-44.5 44.5t-17.5 77q0 72 45.5 110t124.5 52t180 14v58q0 28 -10 49.5t-36 33.5t-74 12q-47 0 -73 -12.5t-36 -31.5t-10 -39v-12h-85q-1 4 -1 9.5v12.5q0 72 59.5 109t153.5 37q100 0 150 -41.5t50 -115.5v-285q0 -19 11 -27t24 -8h40v-57
q-8 -4 -25.5 -8t-42.5 -4q-35 0 -58 20.5t-30 54.5h-7q-27 -37 -73.5 -58t-102.5 -21zM233 61q37 0 72 15.5t58 46.5t23 78v38q-77 0 -135 -7.5t-90.5 -28.5t-32.5 -62q0 -45 28 -62.5t77 -17.5zM132 606q0 28 13 54.5t44.5 44.5t87.5 18t88 -18t45 -44.5t13 -54.5h-61
q-2 16 -19.5 34.5t-65.5 18.5q-32 0 -49.5 -8.5t-25 -21t-9.5 -23.5h-61z" />
    <glyph glyph-name="amacron" unicode="&#x101;" 
d="M210 -12q-25 0 -55 5.5t-57 21t-44.5 44.5t-17.5 77q0 72 45.5 110t124.5 52t180 14v58q0 28 -10 49.5t-36 33.5t-74 12q-47 0 -73 -12.5t-36 -31.5t-10 -39v-12h-85q-1 4 -1 9.5v12.5q0 72 59.5 109t153.5 37q100 0 150 -41.5t50 -115.5v-285q0 -19 11 -27t24 -8h40v-57
q-8 -4 -25.5 -8t-42.5 -4q-35 0 -58 20.5t-30 54.5h-7q-27 -37 -73.5 -58t-102.5 -21zM233 61q37 0 72 15.5t58 46.5t23 78v38q-77 0 -135 -7.5t-90.5 -28.5t-32.5 -62q0 -45 28 -62.5t77 -17.5zM125 627v72h305v-72h-305z" />
    <glyph glyph-name="aogonek" unicode="&#x105;" 
d="M480 -182q-22 0 -43.5 8t-36 28t-14.5 54q0 33 14.5 55.5t35.5 39.5q-34 20 -43 64h-7q-27 -37 -73.5 -58t-102.5 -21q-25 0 -55 5.5t-57 21t-44.5 44.5t-17.5 77q0 72 45.5 110t124.5 52t180 14v58q0 28 -10 49.5t-36 33.5t-74 12q-47 0 -73 -12.5t-36 -31.5t-10 -39
v-12h-85q-1 4 -1 9.5v12.5q0 72 59.5 109t153.5 37q100 0 150 -41.5t50 -115.5v-285q0 -19 11 -27t24 -8h40v-57q-15 -2 -35 -7.5t-35 -20t-15 -42.5q0 -20 12 -35.5t41 -15.5h32v-51q-18 -7 -35 -10.5t-34 -3.5zM233 61q37 0 72 15.5t58 46.5t23 78v38q-77 0 -135 -7.5
t-90.5 -28.5t-32.5 -62q0 -45 28 -62.5t77 -17.5z" />
    <glyph glyph-name="aring" unicode="&#xe5;" 
d="M210 -12q-25 0 -55 5.5t-57 21t-44.5 44.5t-17.5 77q0 72 45.5 110t124.5 52t180 14v58q0 28 -10 49.5t-36 33.5t-74 12q-47 0 -73 -12.5t-36 -31.5t-10 -39v-12h-85q-1 4 -1 9.5v12.5q0 72 59.5 109t153.5 37q100 0 150 -41.5t50 -115.5v-285q0 -19 11 -27t24 -8h40v-57
q-8 -4 -25.5 -8t-42.5 -4q-35 0 -58 20.5t-30 54.5h-7q-27 -37 -73.5 -58t-102.5 -21zM233 61q37 0 72 15.5t58 46.5t23 78v38q-77 0 -135 -7.5t-90.5 -28.5t-32.5 -62q0 -45 28 -62.5t77 -17.5zM278 566q-45 0 -70.5 28t-25.5 68t25.5 68t70.5 28t70.5 -28t25.5 -68
t-25.5 -68t-70.5 -28zM278 611q23 0 37 15t14 36t-14 36t-37 15t-37 -15t-14 -36t14 -36t37 -15z" />
    <glyph glyph-name="aringacute" unicode="&#x1fb;" 
d="M210 -12q-25 0 -55 5.5t-57 21t-44.5 44.5t-17.5 77q0 72 45.5 110t124.5 52t180 14v58q0 28 -10 49.5t-36 33.5t-74 12q-47 0 -73 -12.5t-36 -31.5t-10 -39v-12h-85q-1 4 -1 9.5v12.5q0 72 59.5 109t153.5 37q100 0 150 -41.5t50 -115.5v-285q0 -19 11 -27t24 -8h40v-57
q-8 -4 -25.5 -8t-42.5 -4q-35 0 -58 20.5t-30 54.5h-7q-27 -37 -73.5 -58t-102.5 -21zM233 61q37 0 72 15.5t58 46.5t23 78v38q-77 0 -135 -7.5t-90.5 -28.5t-32.5 -62q0 -45 28 -62.5t77 -17.5zM278 566q-45 0 -70.5 28t-25.5 68t25.5 68t70.5 28t70.5 -28t25.5 -68
t-25.5 -68t-70.5 -28zM278 611q23 0 37 15t14 36t-14 36t-37 15t-37 -15t-14 -36t14 -36t37 -15zM241 782l86 132h96l1 -3l-108 -129h-75z" />
    <glyph glyph-name="atilde" unicode="&#xe3;" 
d="M210 -12q-25 0 -55 5.5t-57 21t-44.5 44.5t-17.5 77q0 72 45.5 110t124.5 52t180 14v58q0 28 -10 49.5t-36 33.5t-74 12q-47 0 -73 -12.5t-36 -31.5t-10 -39v-12h-85q-1 4 -1 9.5v12.5q0 72 59.5 109t153.5 37q100 0 150 -41.5t50 -115.5v-285q0 -19 11 -27t24 -8h40v-57
q-8 -4 -25.5 -8t-42.5 -4q-35 0 -58 20.5t-30 54.5h-7q-27 -37 -73.5 -58t-102.5 -21zM233 61q37 0 72 15.5t58 46.5t23 78v38q-77 0 -135 -7.5t-90.5 -28.5t-32.5 -62q0 -45 28 -62.5t77 -17.5zM114 619q0 42 20 73t65 31q28 0 52.5 -7.5t48 -15.5t48.5 -8q11 0 19 7t9 24
h65q0 -42 -20 -73t-65 -31q-28 0 -52.5 7.5t-48 15.5t-48.5 8q-11 0 -18.5 -7t-9.5 -24h-65z" />
    <glyph glyph-name="ae" unicode="&#xe6;" horiz-adv-x="889" 
d="M220 -12q-26 0 -57.5 5.5t-60.5 21t-47.5 44.5t-18.5 77q0 54 26.5 88.5t74 53.5t111.5 26.5t140 7.5v58q0 28 -10.5 49.5t-37 33.5t-74.5 12q-47 0 -73 -12.5t-36 -31.5t-10 -39v-12h-85q-1 4 -1 9.5v12.5q0 72 59.5 109t153.5 37q63 0 106.5 -19.5t67.5 -54.5
q60 74 181 74q107 0 164 -59t57 -196v-44h-373q5 -91 41 -134.5t111 -43.5q55 0 95 27t40 91h86q0 -64 -29.5 -106.5t-80 -63.5t-111.5 -21q-141 0 -197 89q-36 -43 -92 -66t-120 -23zM233 61q37 0 72.5 13t59 43.5t23.5 83.5v38q-77 0 -135.5 -7.5t-91.5 -28.5t-33 -62
q0 -45 28 -62.5t77 -17.5zM479 312h279q0 83 -35 118t-94 35q-71 0 -107 -35.5t-43 -117.5z" />
    <glyph glyph-name="aeacute" unicode="&#x1fd;" horiz-adv-x="889" 
d="M220 -12q-26 0 -57.5 5.5t-60.5 21t-47.5 44.5t-18.5 77q0 54 26.5 88.5t74 53.5t111.5 26.5t140 7.5v58q0 28 -10.5 49.5t-37 33.5t-74.5 12q-47 0 -73 -12.5t-36 -31.5t-10 -39v-12h-85q-1 4 -1 9.5v12.5q0 72 59.5 109t153.5 37q63 0 106.5 -19.5t67.5 -54.5
q60 74 181 74q107 0 164 -59t57 -196v-44h-373q5 -91 41 -134.5t111 -43.5q55 0 95 27t40 91h86q0 -64 -29.5 -106.5t-80 -63.5t-111.5 -21q-141 0 -197 89q-36 -43 -92 -66t-120 -23zM233 61q37 0 72.5 13t59 43.5t23.5 83.5v38q-77 0 -135.5 -7.5t-91.5 -28.5t-33 -62
q0 -45 28 -62.5t77 -17.5zM479 312h279q0 83 -35 118t-94 35q-71 0 -107 -35.5t-43 -117.5zM407 591l86 132h96l1 -3l-108 -129h-75z" />
    <glyph glyph-name="b" unicode="b" 
d="M313 -12q-51 0 -94 21t-69 62h-6l-11 -71h-66v723h88v-257h6q26 38 65.5 55t94.5 17q59 0 104.5 -29t70.5 -90t25 -156q0 -145 -55.5 -210t-152.5 -65zM291 61q75 0 107 44t32 154v4q0 113 -32.5 157.5t-106.5 44.5q-72 0 -104 -52.5t-32 -149.5v-4q0 -95 31.5 -146.5
t104.5 -51.5z" />
    <glyph glyph-name="c" unicode="c" horiz-adv-x="500" 
d="M267 -12q-120 0 -176 66.5t-56 208.5t56.5 208.5t175.5 66.5q110 0 159 -53t49 -154h-90q0 68 -24.5 101t-93.5 33q-72 0 -106.5 -46.5t-34.5 -155.5v-4q0 -107 33.5 -152.5t107.5 -45.5q67 0 95 34.5t28 99.5h85q0 -55 -20.5 -102t-66.5 -76t-121 -29z" />
    <glyph glyph-name="cacute" unicode="&#x107;" horiz-adv-x="500" 
d="M267 -12q-120 0 -176 66.5t-56 208.5t56.5 208.5t175.5 66.5q110 0 159 -53t49 -154h-90q0 68 -24.5 101t-93.5 33q-72 0 -106.5 -46.5t-34.5 -155.5v-4q0 -107 33.5 -152.5t107.5 -45.5q67 0 95 34.5t28 99.5h85q0 -55 -20.5 -102t-66.5 -76t-121 -29zM212 591l86 132
h96l1 -3l-108 -129h-75z" />
    <glyph glyph-name="ccaron" unicode="&#x10d;" horiz-adv-x="500" 
d="M267 -12q-120 0 -176 66.5t-56 208.5t56.5 208.5t175.5 66.5q110 0 159 -53t49 -154h-90q0 68 -24.5 101t-93.5 33q-72 0 -106.5 -46.5t-34.5 -155.5v-4q0 -107 33.5 -152.5t107.5 -45.5q67 0 95 34.5t28 99.5h85q0 -55 -20.5 -102t-66.5 -76t-121 -29zM208 588l-106 135
h90l58 -79l57 79h90l-105 -135h-84z" />
    <glyph glyph-name="ccedilla" unicode="&#xe7;" horiz-adv-x="500" 
d="M267 -12q-120 0 -176 66.5t-56 208.5t56.5 208.5t175.5 66.5q110 0 159 -53t49 -154h-90q0 68 -24.5 101t-93.5 33q-72 0 -106.5 -46.5t-34.5 -155.5v-4q0 -107 33.5 -152.5t107.5 -45.5q67 0 95 34.5t28 99.5h85q0 -55 -20.5 -102t-66.5 -76t-121 -29zM247 -182
q-24 0 -49.5 2t-45.5 6v49h100q19 0 30 5t11 19q0 12 -8.5 18t-30.5 6h-51l16 88h62l-8 -47q37 -2 64.5 -16t27.5 -49q0 -33 -19.5 -50.5t-47.5 -24t-51 -6.5z" />
    <glyph glyph-name="ccircumflex" unicode="&#x109;" horiz-adv-x="500" 
d="M267 -12q-120 0 -176 66.5t-56 208.5t56.5 208.5t175.5 66.5q110 0 159 -53t49 -154h-90q0 68 -24.5 101t-93.5 33q-72 0 -106.5 -46.5t-34.5 -155.5v-4q0 -107 33.5 -152.5t107.5 -45.5q67 0 95 34.5t28 99.5h85q0 -55 -20.5 -102t-66.5 -76t-121 -29zM102 588l106 135
h84l105 -135h-90l-57 79l-58 -79h-90z" />
    <glyph glyph-name="cdotaccent" unicode="&#x10b;" horiz-adv-x="500" 
d="M267 -12q-120 0 -176 66.5t-56 208.5t56.5 208.5t175.5 66.5q110 0 159 -53t49 -154h-90q0 68 -24.5 101t-93.5 33q-72 0 -106.5 -46.5t-34.5 -155.5v-4q0 -107 33.5 -152.5t107.5 -45.5q67 0 95 34.5t28 99.5h85q0 -55 -20.5 -102t-66.5 -76t-121 -29zM206 628v95h87
v-95h-87z" />
    <glyph glyph-name="d" unicode="d" 
d="M243 -12q-97 0 -152.5 65t-55.5 210q0 95 25 156t70.5 90t104.5 29q55 0 94.5 -17t65.5 -55h6v257h88v-723h-66l-11 71h-6q-26 -41 -69 -62t-94 -21zM265 61q73 0 104.5 51.5t31.5 146.5v4q0 97 -32 149.5t-104 52.5q-74 0 -106.5 -44.5t-32.5 -157.5v-4q0 -110 32 -154
t107 -44z" />
    <glyph glyph-name="eth" unicode="&#xf0;" 
d="M278 -12q-119 0 -181 66.5t-62 208.5q0 97 29.5 157.5t81.5 89t118 28.5q22 0 41 -3t36 -8l1 1q-29 45 -70 84l-152 -12v60l99 8q-16 13 -33 25.5l-35 25.5l2 4h98q16 -12 29.5 -23.5l27.5 -24.5l152 10v-60l-93 -6q69 -73 111.5 -160t42.5 -196q0 -142 -62 -208.5
t-181 -66.5zM278 61q80 0 116 47.5t36 154.5v-5q0 110 -36 158.5t-116 48.5t-116 -46.5t-36 -150.5v-5q0 -107 36 -154.5t116 -47.5z" />
    <glyph glyph-name="dcaron" unicode="&#x10f;" horiz-adv-x="625" 
d="M545 490l34 105h-34v91h85v-84l-41 -112h-44zM243 -12q-97 0 -152.5 65t-55.5 210q0 95 25 156t70.5 90t104.5 29q55 0 94.5 -17t65.5 -55h6v257h88v-723h-66l-11 71h-6q-26 -41 -69 -62t-94 -21zM265 61q73 0 104.5 51.5t31.5 146.5v4q0 97 -32 149.5t-104 52.5
q-74 0 -106.5 -44.5t-32.5 -157.5v-4q0 -110 32 -154t107 -44z" />
    <glyph glyph-name="dcroat" unicode="&#x111;" 
d="M261 596v62h294v-62h-294zM243 -12q-97 0 -152.5 65t-55.5 210q0 95 25 156t70.5 90t104.5 29q55 0 94.5 -17t65.5 -55h6v257h88v-723h-66l-11 71h-6q-26 -41 -69 -62t-94 -21zM265 61q73 0 104.5 51.5t31.5 146.5v4q0 97 -32 149.5t-104 52.5q-74 0 -106.5 -44.5
t-32.5 -157.5v-4q0 -110 32 -154t107 -44z" />
    <glyph glyph-name="uni1E0D" unicode="&#x1e0d;" 
d="M243 -12q-97 0 -152.5 65t-55.5 210q0 95 25 156t70.5 90t104.5 29q55 0 94.5 -17t65.5 -55h6v257h88v-723h-66l-11 71h-6q-26 -41 -69 -62t-94 -21zM265 61q73 0 104.5 51.5t31.5 146.5v4q0 97 -32 149.5t-104 52.5q-74 0 -106.5 -44.5t-32.5 -157.5v-4q0 -110 32 -154
t107 -44zM234 -173v95h87v-95h-87z" />
    <glyph glyph-name="uni01F3" unicode="&#x1f3;" horiz-adv-x="1056" 
d="M243 -12q-97 0 -152.5 65t-55.5 210q0 95 25 156t70.5 90t104.5 29q55 0 94.5 -17t65.5 -55h6v257h88v-723h-66l-11 71h-6q-26 -41 -69 -62t-94 -21zM265 61q73 0 104.5 51.5t31.5 146.5v4q0 97 -32 149.5t-104 52.5q-74 0 -106.5 -44.5t-32.5 -157.5v-4q0 -110 32 -154
t107 -44zM580 0v47l305 406h-284v73h413v-46l-306 -407h323v-73h-451z" />
    <glyph glyph-name="uni01C6" unicode="&#x1c6;" horiz-adv-x="1056" 
d="M243 -12q-97 0 -152.5 65t-55.5 210q0 95 25 156t70.5 90t104.5 29q55 0 94.5 -17t65.5 -55h6v257h88v-723h-66l-11 71h-6q-26 -41 -69 -62t-94 -21zM265 61q73 0 104.5 51.5t31.5 146.5v4q0 97 -32 149.5t-104 52.5q-74 0 -106.5 -44.5t-32.5 -157.5v-4q0 -110 32 -154
t107 -44zM580 0v47l305 406h-284v73h413v-46l-306 -407h323v-73h-451zM764 588l-106 135h90l58 -79l57 79h90l-105 -135h-84z" />
    <glyph glyph-name="e" unicode="e" 
d="M290 -12q-127 0 -189 66.5t-62 208.5t62.5 208.5t188.5 66.5q111 0 169 -59t58 -196v-44h-387q4 -91 42.5 -134.5t117.5 -43.5q38 0 70.5 12t51.5 37.5t19 68.5h86q0 -64 -30.5 -106.5t-81.5 -63.5t-115 -21zM132 312h293q0 83 -37 118t-98 35q-74 0 -112 -35.5
t-46 -117.5z" />
    <glyph glyph-name="eacute" unicode="&#xe9;" 
d="M290 -12q-127 0 -189 66.5t-62 208.5t62.5 208.5t188.5 66.5q111 0 169 -59t58 -196v-44h-387q4 -91 42.5 -134.5t117.5 -43.5q38 0 70.5 12t51.5 37.5t19 68.5h86q0 -64 -30.5 -106.5t-81.5 -63.5t-115 -21zM132 312h293q0 83 -37 118t-98 35q-74 0 -112 -35.5
t-46 -117.5zM240 591l86 132h96l1 -3l-108 -129h-75z" />
    <glyph glyph-name="ebreve" unicode="&#x115;" 
d="M290 -12q-127 0 -189 66.5t-62 208.5t62.5 208.5t188.5 66.5q111 0 169 -59t58 -196v-44h-387q4 -91 42.5 -134.5t117.5 -43.5q38 0 70.5 12t51.5 37.5t19 68.5h86q0 -64 -30.5 -106.5t-81.5 -63.5t-115 -21zM132 312h293q0 83 -37 118t-98 35q-74 0 -112 -35.5
t-46 -117.5zM277 606q-56 0 -87.5 18t-44.5 45t-13 54h61q2 -11 9.5 -23.5t25 -21t49.5 -8.5q48 0 65.5 18t19.5 35h61q0 -27 -13 -54t-45 -45t-88 -18z" />
    <glyph glyph-name="ecaron" unicode="&#x11b;" 
d="M290 -12q-127 0 -189 66.5t-62 208.5t62.5 208.5t188.5 66.5q111 0 169 -59t58 -196v-44h-387q4 -91 42.5 -134.5t117.5 -43.5q38 0 70.5 12t51.5 37.5t19 68.5h86q0 -64 -30.5 -106.5t-81.5 -63.5t-115 -21zM132 312h293q0 83 -37 118t-98 35q-74 0 -112 -35.5
t-46 -117.5zM236 588l-106 135h90l58 -79l57 79h90l-105 -135h-84z" />
    <glyph glyph-name="ecircumflex" unicode="&#xea;" 
d="M290 -12q-127 0 -189 66.5t-62 208.5t62.5 208.5t188.5 66.5q111 0 169 -59t58 -196v-44h-387q4 -91 42.5 -134.5t117.5 -43.5q38 0 70.5 12t51.5 37.5t19 68.5h86q0 -64 -30.5 -106.5t-81.5 -63.5t-115 -21zM132 312h293q0 83 -37 118t-98 35q-74 0 -112 -35.5
t-46 -117.5zM130 588l106 135h84l105 -135h-90l-57 79l-58 -79h-90z" />
    <glyph glyph-name="uni1EBF" unicode="&#x1ebf;" 
d="M290 -12q-127 0 -189 66.5t-62 208.5t62.5 208.5t188.5 66.5q111 0 169 -59t58 -196v-44h-387q4 -91 42.5 -134.5t117.5 -43.5q38 0 70.5 12t51.5 37.5t19 68.5h86q0 -64 -30.5 -106.5t-81.5 -63.5t-115 -21zM132 312h293q0 83 -37 118t-98 35q-74 0 -112 -35.5
t-46 -117.5zM130 588l106 135h84l105 -135h-90l-57 79l-58 -79h-90zM372 686l86 132h96l1 -3l-108 -129h-75z" />
    <glyph glyph-name="uni1EC7" unicode="&#x1ec7;" 
d="M290 -12q-127 0 -189 66.5t-62 208.5t62.5 208.5t188.5 66.5q111 0 169 -59t58 -196v-44h-387q4 -91 42.5 -134.5t117.5 -43.5q38 0 70.5 12t51.5 37.5t19 68.5h86q0 -64 -30.5 -106.5t-81.5 -63.5t-115 -21zM132 312h293q0 83 -37 118t-98 35q-74 0 -112 -35.5
t-46 -117.5zM130 588l106 135h84l105 -135h-90l-57 79l-58 -79h-90zM234 -173v95h87v-95h-87z" />
    <glyph glyph-name="uni1EC1" unicode="&#x1ec1;" 
d="M290 -12q-127 0 -189 66.5t-62 208.5t62.5 208.5t188.5 66.5q111 0 169 -59t58 -196v-44h-387q4 -91 42.5 -134.5t117.5 -43.5q38 0 70.5 12t51.5 37.5t19 68.5h86q0 -64 -30.5 -106.5t-81.5 -63.5t-115 -21zM132 312h293q0 83 -37 118t-98 35q-74 0 -112 -35.5
t-46 -117.5zM130 588l106 135h84l105 -135h-90l-57 79l-58 -79h-90zM412 686l-108 129l1 3h96l86 -132h-75z" />
    <glyph glyph-name="uni1EC3" unicode="&#x1ec3;" 
d="M290 -12q-127 0 -189 66.5t-62 208.5t62.5 208.5t188.5 66.5q111 0 169 -59t58 -196v-44h-387q4 -91 42.5 -134.5t117.5 -43.5q38 0 70.5 12t51.5 37.5t19 68.5h86q0 -64 -30.5 -106.5t-81.5 -63.5t-115 -21zM132 312h293q0 83 -37 118t-98 35q-74 0 -112 -35.5
t-46 -117.5zM130 588l106 135h84l105 -135h-90l-57 79l-58 -79h-90zM382 686v61h13q16 0 22.5 4.5t6.5 13.5q0 10 -8 14t-23 4h-60v39q16 4 36 6t36 2q19 0 40.5 -5t36 -17.5t14.5 -37.5q0 -27 -18 -40.5t-40 -15.5v-28h-56z" />
    <glyph glyph-name="uni1EC5" unicode="&#x1ec5;" 
d="M290 -12q-127 0 -189 66.5t-62 208.5t62.5 208.5t188.5 66.5q111 0 169 -59t58 -196v-44h-387q4 -91 42.5 -134.5t117.5 -43.5q38 0 70.5 12t51.5 37.5t19 68.5h86q0 -64 -30.5 -106.5t-81.5 -63.5t-115 -21zM132 312h293q0 83 -37 118t-98 35q-74 0 -112 -35.5
t-46 -117.5zM130 588l106 135h84l105 -135h-90l-57 79l-58 -79h-90zM116 779q0 42 20 73t65 31q28 0 52.5 -7.5t48 -15.5t48.5 -8q11 0 19 7t9 24h65q0 -42 -20 -73t-65 -31q-28 0 -52.5 7.5t-48 15.5t-48.5 8q-11 0 -18.5 -7t-9.5 -24h-65z" />
    <glyph glyph-name="uni0205" unicode="&#x205;" 
d="M290 -12q-127 0 -189 66.5t-62 208.5t62.5 208.5t188.5 66.5q111 0 169 -59t58 -196v-44h-387q4 -91 42.5 -134.5t117.5 -43.5q38 0 70.5 12t51.5 37.5t19 68.5h86q0 -64 -30.5 -106.5t-81.5 -63.5t-115 -21zM132 312h293q0 83 -37 118t-98 35q-74 0 -112 -35.5
t-46 -117.5zM324 591l-84 129l1 3h97l62 -132h-76zM185 591l-84 129l1 3h97l62 -132h-76z" />
    <glyph glyph-name="edieresis" unicode="&#xeb;" 
d="M290 -12q-127 0 -189 66.5t-62 208.5t62.5 208.5t188.5 66.5q111 0 169 -59t58 -196v-44h-387q4 -91 42.5 -134.5t117.5 -43.5q38 0 70.5 12t51.5 37.5t19 68.5h86q0 -64 -30.5 -106.5t-81.5 -63.5t-115 -21zM132 312h293q0 83 -37 118t-98 35q-74 0 -112 -35.5
t-46 -117.5zM328 628v95h87v-95h-87zM141 628v95h87v-95h-87z" />
    <glyph glyph-name="edotaccent" unicode="&#x117;" 
d="M290 -12q-127 0 -189 66.5t-62 208.5t62.5 208.5t188.5 66.5q111 0 169 -59t58 -196v-44h-387q4 -91 42.5 -134.5t117.5 -43.5q38 0 70.5 12t51.5 37.5t19 68.5h86q0 -64 -30.5 -106.5t-81.5 -63.5t-115 -21zM132 312h293q0 83 -37 118t-98 35q-74 0 -112 -35.5
t-46 -117.5zM234 628v95h87v-95h-87z" />
    <glyph glyph-name="uni1EB9" unicode="&#x1eb9;" 
d="M290 -12q-127 0 -189 66.5t-62 208.5t62.5 208.5t188.5 66.5q111 0 169 -59t58 -196v-44h-387q4 -91 42.5 -134.5t117.5 -43.5q38 0 70.5 12t51.5 37.5t19 68.5h86q0 -64 -30.5 -106.5t-81.5 -63.5t-115 -21zM132 312h293q0 83 -37 118t-98 35q-74 0 -112 -35.5
t-46 -117.5zM234 -173v95h87v-95h-87z" />
    <glyph glyph-name="egrave" unicode="&#xe8;" 
d="M290 -12q-127 0 -189 66.5t-62 208.5t62.5 208.5t188.5 66.5q111 0 169 -59t58 -196v-44h-387q4 -91 42.5 -134.5t117.5 -43.5q38 0 70.5 12t51.5 37.5t19 68.5h86q0 -64 -30.5 -106.5t-81.5 -63.5t-115 -21zM132 312h293q0 83 -37 118t-98 35q-74 0 -112 -35.5
t-46 -117.5zM240 591l-108 129l1 3h96l86 -132h-75z" />
    <glyph glyph-name="uni1EBB" unicode="&#x1ebb;" 
d="M290 -12q-127 0 -189 66.5t-62 208.5t62.5 208.5t188.5 66.5q111 0 169 -59t58 -196v-44h-387q4 -91 42.5 -134.5t117.5 -43.5q38 0 70.5 12t51.5 37.5t19 68.5h86q0 -64 -30.5 -106.5t-81.5 -63.5t-115 -21zM132 312h293q0 83 -37 118t-98 35q-74 0 -112 -35.5
t-46 -117.5zM250 591v61h13q16 0 22.5 4.5t6.5 13.5q0 10 -8 14t-23 4h-60v39q16 4 36 6t36 2q19 0 40.5 -5t36 -17.5t14.5 -37.5q0 -27 -18 -40.5t-40 -15.5v-28h-56z" />
    <glyph glyph-name="uni0207" unicode="&#x207;" 
d="M290 -12q-127 0 -189 66.5t-62 208.5t62.5 208.5t188.5 66.5q111 0 169 -59t58 -196v-44h-387q4 -91 42.5 -134.5t117.5 -43.5q38 0 70.5 12t51.5 37.5t19 68.5h86q0 -64 -30.5 -106.5t-81.5 -63.5t-115 -21zM132 312h293q0 83 -37 118t-98 35q-74 0 -112 -35.5
t-46 -117.5zM132 606q0 28 13 54.5t44.5 44.5t87.5 18t88 -18t45 -44.5t13 -54.5h-61q-2 16 -19.5 34.5t-65.5 18.5q-32 0 -49.5 -8.5t-25 -21t-9.5 -23.5h-61z" />
    <glyph glyph-name="emacron" unicode="&#x113;" 
d="M290 -12q-127 0 -189 66.5t-62 208.5t62.5 208.5t188.5 66.5q111 0 169 -59t58 -196v-44h-387q4 -91 42.5 -134.5t117.5 -43.5q38 0 70.5 12t51.5 37.5t19 68.5h86q0 -64 -30.5 -106.5t-81.5 -63.5t-115 -21zM132 312h293q0 83 -37 118t-98 35q-74 0 -112 -35.5
t-46 -117.5zM125 627v72h305v-72h-305z" />
    <glyph glyph-name="eogonek" unicode="&#x119;" 
d="M451 -182q-24 0 -46.5 8.5t-37 30t-14.5 58.5q0 29 8 52t17 36q-40 -15 -88 -15q-127 0 -189 66.5t-62 208.5t62.5 208.5t188.5 66.5q111 0 169 -59t58 -196v-44h-387q4 -91 42.5 -134.5t117.5 -43.5q38 0 70.5 12t51.5 37.5t19 68.5h86q-1 -37 -10.5 -66t-28.5 -52
q-14 -17 -30 -48t-16 -65q0 -25 12 -45t41 -20h32v-51q-17 -7 -33 -10.5t-33 -3.5zM132 312h293q0 83 -37 118t-98 35q-74 0 -112 -35.5t-46 -117.5z" />
    <glyph glyph-name="uni1EBD" unicode="&#x1ebd;" 
d="M290 -12q-127 0 -189 66.5t-62 208.5t62.5 208.5t188.5 66.5q111 0 169 -59t58 -196v-44h-387q4 -91 42.5 -134.5t117.5 -43.5q38 0 70.5 12t51.5 37.5t19 68.5h86q0 -64 -30.5 -106.5t-81.5 -63.5t-115 -21zM132 312h293q0 83 -37 118t-98 35q-74 0 -112 -35.5
t-46 -117.5zM114 619q0 42 20 73t65 31q28 0 52.5 -7.5t48 -15.5t48.5 -8q11 0 19 7t9 24h65q0 -42 -20 -73t-65 -31q-28 0 -52.5 7.5t-48 15.5t-48.5 8q-11 0 -18.5 -7t-9.5 -24h-65z" />
    <glyph glyph-name="uni0259" unicode="&#x259;" 
d="M268 -12q-112 0 -170.5 58.5t-58.5 196.5v44h387q-4 94 -44 136t-114 42q-59 0 -101 -27t-42 -91h-86q0 64 30 106.5t82.5 63.5t121.5 21q121 0 182.5 -68t61.5 -207q0 -141 -62.5 -208t-186.5 -67zM271 61q67 0 106 35.5t47 117.5h-293q0 -85 37.5 -119t102.5 -34z" />
    <glyph glyph-name="f" unicode="f" horiz-adv-x="278" 
d="M86 0v453h-77v73h77v84q0 30 10 58t34.5 45.5t69.5 17.5q20 0 41 -3.5t34 -8.5v-61h-52q-49 0 -49 -48v-84h101v-73h-101v-453h-88z" />
    <glyph glyph-name="g" unicode="g" 
d="M161 -182q-32 0 -65 11t-55.5 38.5t-22.5 77.5q0 37 15 60t35 35t35 17q-22 12 -38.5 32.5t-16.5 48.5q0 30 16 47.5t37 27t35 12.5q-32 23 -51.5 58t-19.5 78q0 85 57.5 131t155.5 46q55 0 100 -18q39 19 55.5 42.5t20.5 48.5h84q0 -47 -28 -81t-74 -45q26 -23 41 -54.5
t15 -69.5q0 -85 -58 -131t-156 -46h-84q-28 0 -42 -12.5t-14 -30.5t14 -30.5t42 -12.5h211q43 0 73 -18t45.5 -47t15.5 -63q0 -36 -16.5 -71t-52.5 -58t-97 -23h-212zM169 -111h206q33 0 55 18t22 48q0 31 -18 48t-46 17h-219q-29 0 -46 -17t-17 -48q0 -30 17 -48t46 -18z
M279 252q63 0 94.5 28.5t31.5 80.5t-31.5 80.5t-94.5 28.5t-94.5 -28.5t-31.5 -80.5t31.5 -80.5t94.5 -28.5z" />
    <glyph glyph-name="uni01F5" unicode="&#x1f5;" 
d="M161 -182q-32 0 -65 11t-55.5 38.5t-22.5 77.5q0 37 15 60t35 35t35 17q-22 12 -38.5 32.5t-16.5 48.5q0 30 16 47.5t37 27t35 12.5q-32 23 -51.5 58t-19.5 78q0 85 57.5 131t155.5 46q55 0 100 -18q39 19 55.5 42.5t20.5 48.5h84q0 -47 -28 -81t-74 -45q26 -23 41 -54.5
t15 -69.5q0 -85 -58 -131t-156 -46h-84q-28 0 -42 -12.5t-14 -30.5t14 -30.5t42 -12.5h211q43 0 73 -18t45.5 -47t15.5 -63q0 -36 -16.5 -71t-52.5 -58t-97 -23h-212zM169 -111h206q33 0 55 18t22 48q0 31 -18 48t-46 17h-219q-29 0 -46 -17t-17 -48q0 -30 17 -48t46 -18z
M279 252q63 0 94.5 28.5t31.5 80.5t-31.5 80.5t-94.5 28.5t-94.5 -28.5t-31.5 -80.5t31.5 -80.5t94.5 -28.5zM240 591l86 132h96l1 -3l-108 -129h-75z" />
    <glyph glyph-name="gbreve" unicode="&#x11f;" 
d="M161 -182q-32 0 -65 11t-55.5 38.5t-22.5 77.5q0 37 15 60t35 35t35 17q-22 12 -38.5 32.5t-16.5 48.5q0 30 16 47.5t37 27t35 12.5q-32 23 -51.5 58t-19.5 78q0 85 57.5 131t155.5 46q55 0 100 -18q39 19 55.5 42.5t20.5 48.5h84q0 -47 -28 -81t-74 -45q26 -23 41 -54.5
t15 -69.5q0 -85 -58 -131t-156 -46h-84q-28 0 -42 -12.5t-14 -30.5t14 -30.5t42 -12.5h211q43 0 73 -18t45.5 -47t15.5 -63q0 -36 -16.5 -71t-52.5 -58t-97 -23h-212zM169 -111h206q33 0 55 18t22 48q0 31 -18 48t-46 17h-219q-29 0 -46 -17t-17 -48q0 -30 17 -48t46 -18z
M279 252q63 0 94.5 28.5t31.5 80.5t-31.5 80.5t-94.5 28.5t-94.5 -28.5t-31.5 -80.5t31.5 -80.5t94.5 -28.5zM277 606q-56 0 -87.5 18t-44.5 45t-13 54h61q2 -11 9.5 -23.5t25 -21t49.5 -8.5q48 0 65.5 18t19.5 35h61q0 -27 -13 -54t-45 -45t-88 -18z" />
    <glyph glyph-name="gcaron" unicode="&#x1e7;" 
d="M161 -182q-32 0 -65 11t-55.5 38.5t-22.5 77.5q0 37 15 60t35 35t35 17q-22 12 -38.5 32.5t-16.5 48.5q0 30 16 47.5t37 27t35 12.5q-32 23 -51.5 58t-19.5 78q0 85 57.5 131t155.5 46q55 0 100 -18q39 19 55.5 42.5t20.5 48.5h84q0 -47 -28 -81t-74 -45q26 -23 41 -54.5
t15 -69.5q0 -85 -58 -131t-156 -46h-84q-28 0 -42 -12.5t-14 -30.5t14 -30.5t42 -12.5h211q43 0 73 -18t45.5 -47t15.5 -63q0 -36 -16.5 -71t-52.5 -58t-97 -23h-212zM169 -111h206q33 0 55 18t22 48q0 31 -18 48t-46 17h-219q-29 0 -46 -17t-17 -48q0 -30 17 -48t46 -18z
M279 252q63 0 94.5 28.5t31.5 80.5t-31.5 80.5t-94.5 28.5t-94.5 -28.5t-31.5 -80.5t31.5 -80.5t94.5 -28.5zM236 588l-106 135h90l58 -79l57 79h90l-105 -135h-84z" />
    <glyph glyph-name="gcircumflex" unicode="&#x11d;" 
d="M161 -182q-32 0 -65 11t-55.5 38.5t-22.5 77.5q0 37 15 60t35 35t35 17q-22 12 -38.5 32.5t-16.5 48.5q0 30 16 47.5t37 27t35 12.5q-32 23 -51.5 58t-19.5 78q0 85 57.5 131t155.5 46q55 0 100 -18q26 12 41.5 27t23.5 31t11 33h84q0 -47 -28 -81t-74 -45
q26 -23 41 -54.5t15 -69.5q0 -85 -58 -131t-156 -46h-84q-28 0 -42 -12.5t-14 -30.5t14 -30.5t42 -12.5h211q43 0 73 -18t45.5 -47t15.5 -63q0 -36 -16.5 -71t-52.5 -58t-97 -23h-212zM169 -111h206q33 0 55 18t22 48q0 31 -18 48t-46 17h-219q-29 0 -46 -17t-17 -48
q0 -30 17 -48t46 -18zM279 252q63 0 94.5 28.5t31.5 80.5t-31.5 80.5t-94.5 28.5t-94.5 -28.5t-31.5 -80.5t31.5 -80.5t94.5 -28.5zM130 588l106 135h84l105 -135h-90l-57 79l-58 -79h-90z" />
    <glyph glyph-name="gcommaaccent" unicode="&#x123;" 
d="M161 -182q-32 0 -65 11t-55.5 38.5t-22.5 77.5q0 37 15 60t35 35t35 17q-22 12 -38.5 32.5t-16.5 48.5q0 30 16 47.5t37 27t35 12.5q-32 23 -51.5 58t-19.5 78q0 85 57.5 131t155.5 46q55 0 100 -18q39 19 55.5 42.5t20.5 48.5h84q0 -47 -28 -81t-74 -45q26 -23 41 -54.5
t15 -69.5q0 -85 -58 -131t-156 -46h-84q-28 0 -42 -12.5t-14 -30.5t14 -30.5t42 -12.5h211q43 0 73 -18t45.5 -47t15.5 -63q0 -36 -16.5 -71t-52.5 -58t-97 -23h-212zM169 -111h206q33 0 55 18t22 48q0 31 -18 48t-46 17h-219q-29 0 -46 -17t-17 -48q0 -30 17 -48t46 -18z
M279 252q63 0 94.5 28.5t31.5 80.5t-31.5 80.5t-94.5 28.5t-94.5 -28.5t-31.5 -80.5t31.5 -80.5t94.5 -28.5zM237 608v84l43 88h45l-37 -81h37v-91h-88z" />
    <glyph glyph-name="gdotaccent" unicode="&#x121;" 
d="M161 -182q-32 0 -65 11t-55.5 38.5t-22.5 77.5q0 37 15 60t35 35t35 17q-22 12 -38.5 32.5t-16.5 48.5q0 30 16 47.5t37 27t35 12.5q-32 23 -51.5 58t-19.5 78q0 85 57.5 131t155.5 46q55 0 100 -18q39 19 55.5 42.5t20.5 48.5h84q0 -47 -28 -81t-74 -45q26 -23 41 -54.5
t15 -69.5q0 -85 -58 -131t-156 -46h-84q-28 0 -42 -12.5t-14 -30.5t14 -30.5t42 -12.5h211q43 0 73 -18t45.5 -47t15.5 -63q0 -36 -16.5 -71t-52.5 -58t-97 -23h-212zM169 -111h206q33 0 55 18t22 48q0 31 -18 48t-46 17h-219q-29 0 -46 -17t-17 -48q0 -30 17 -48t46 -18z
M279 252q63 0 94.5 28.5t31.5 80.5t-31.5 80.5t-94.5 28.5t-94.5 -28.5t-31.5 -80.5t31.5 -80.5t94.5 -28.5zM234 628v95h87v-95h-87z" />
    <glyph glyph-name="h" unicode="h" 
d="M67 0v723h88v-256h7q28 36 70 53.5t96 17.5q50 0 86.5 -17.5t57 -57t20.5 -104.5v-359h-88v353q0 67 -30 89.5t-79 22.5q-37 0 -69 -18.5t-51.5 -52.5t-19.5 -83v-311h-88z" />
    <glyph glyph-name="hbar" unicode="&#x127;" 
d="M67 0v596h-66v62h66v65h88v-65h140v-62h-140v-129h7q28 36 70 53.5t96 17.5q50 0 86.5 -17.5t57 -57t20.5 -104.5v-359h-88v353q0 67 -30 89.5t-79 22.5q-37 0 -69 -18.5t-51.5 -52.5t-19.5 -83v-311h-88z" />
    <glyph glyph-name="hcircumflex" unicode="&#x125;" 
d="M67 0v723h88v-256h7q28 36 70 53.5t96 17.5q50 0 86.5 -17.5t57 -57t20.5 -104.5v-359h-88v353q0 67 -30 89.5t-79 22.5q-37 0 -69 -18.5t-51.5 -52.5t-19.5 -83v-311h-88zM-37 748l106 135h84l105 -135h-90l-57 79l-58 -79h-90z" />
    <glyph glyph-name="uni1E25" unicode="&#x1e25;" 
d="M67 0v723h88v-256h7q28 36 70 53.5t96 17.5q50 0 86.5 -17.5t57 -57t20.5 -104.5v-359h-88v353q0 67 -30 89.5t-79 22.5q-37 0 -69 -18.5t-51.5 -52.5t-19.5 -83v-311h-88zM234 -173v95h87v-95h-87z" />
    <glyph glyph-name="i" unicode="i" horiz-adv-x="222" 
d="M67 0v526h88v-526h-88zM67 625v98h88v-98h-88z" />
    <glyph glyph-name="dotlessi" unicode="&#x131;" horiz-adv-x="278" 
d="M95 0v526h88v-526h-88z" />
    <glyph glyph-name="iacute" unicode="&#xed;" horiz-adv-x="278" 
d="M95 0v526h88v-526h-88zM85 591l86 132h96l1 -3l-108 -129h-75z" />
    <glyph glyph-name="ibreve" unicode="&#x12d;" horiz-adv-x="278" 
d="M95 0v526h88v-526h-88zM139 606q-56 0 -87.5 18t-44.5 45t-13 54h61q3 -11 10 -23.5t24.5 -21t49.5 -8.5q48 0 65.5 18t19.5 35h61q0 -27 -13 -54t-45 -45t-88 -18z" />
    <glyph glyph-name="uni01D0" unicode="&#x1d0;" horiz-adv-x="278" 
d="M95 0v526h88v-526h-88zM97 588l-106 135h90l58 -79l57 79h90l-105 -135h-84z" />
    <glyph glyph-name="icircumflex" unicode="&#xee;" horiz-adv-x="278" 
d="M95 0v526h88v-526h-88zM-8 588l106 135h84l105 -135h-90l-57 79l-58 -79h-90z" />
    <glyph glyph-name="uni0209" unicode="&#x209;" horiz-adv-x="278" 
d="M95 0v526h88v-526h-88zM185 591l-84 129l1 3h97l62 -132h-76zM46 591l-84 129l1 3h97l62 -132h-76z" />
    <glyph glyph-name="idieresis" unicode="&#xef;" horiz-adv-x="278" 
d="M95 0v526h88v-526h-88zM2 628v95h87v-95h-87zM189 628v95h87v-95h-87z" />
    <glyph glyph-name="i.locl" horiz-adv-x="278" 
d="M95 0v526h88v-526h-88zM95 628v95h87v-95h-87z" />
    <glyph glyph-name="uni1ECB" unicode="&#x1ecb;" horiz-adv-x="222" 
d="M67 0v526h88v-526h-88zM67 625v98h88v-98h-88zM67 -173v95h87v-95h-87z" />
    <glyph glyph-name="igrave" unicode="&#xec;" horiz-adv-x="278" 
d="M95 0v526h88v-526h-88zM117 591l-108 129l1 3h96l86 -132h-75z" />
    <glyph glyph-name="uni1EC9" unicode="&#x1ec9;" horiz-adv-x="278" 
d="M95 0v526h88v-526h-88zM111 591v61h13q16 0 22.5 4.5t6.5 13.5q0 10 -8 14t-23 4h-60v39q16 4 36 6t36 2q19 0 40.5 -5t36 -17.5t14.5 -37.5q0 -27 -18 -40.5t-40 -15.5v-28h-56z" />
    <glyph glyph-name="uni020B" unicode="&#x20b;" horiz-adv-x="278" 
d="M95 0v526h88v-526h-88zM-7 606q0 28 13 54.5t44.5 44.5t87.5 18t88 -18t45 -44.5t13 -54.5h-61q-2 16 -19.5 34.5t-65.5 18.5q-32 0 -49.5 -8.5t-25 -21t-9.5 -23.5h-61z" />
    <glyph glyph-name="ij" unicode="&#x133;" horiz-adv-x="444" 
d="M67 0v526h88v-526h-88zM67 625v98h88v-98h-88zM267 -182q-18 0 -37 4t-32 8v57h44q47 0 47 48v591h88v-587q0 -30 -10 -57.5t-33.5 -45.5t-66.5 -18zM289 625v98h88v-98h-88z" />
    <glyph glyph-name="imacron" unicode="&#x12b;" horiz-adv-x="278" 
d="M95 0v526h88v-526h-88zM12 639v72h254v-72h-254z" />
    <glyph glyph-name="iogonek" unicode="&#x12f;" horiz-adv-x="278" 
d="M95 0v526h88v-526h-88zM95 628v95h87v-95h-87zM139 -190q-23 0 -47 8t-39.5 28t-15.5 54q0 37 17 60.5t39 43.5h60v-4q-11 -10 -24.5 -29.5t-13.5 -40.5t12 -38t41 -17h32v-51q-16 -7 -31 -10.5t-30 -3.5z" />
    <glyph glyph-name="itilde" unicode="&#x129;" horiz-adv-x="278" 
d="M95 0v526h88v-526h-88zM-24 619q0 42 20 73t65 31q28 0 52.5 -7.5t48 -15.5t48.5 -8q11 0 18.5 7t9.5 24h65q0 -42 -20 -73t-65 -31q-28 0 -52.5 7.5t-48 15.5t-48.5 8q-11 0 -19 -7t-9 -24h-65z" />
    <glyph glyph-name="j" unicode="j" horiz-adv-x="222" 
d="M45 -182q-18 0 -37 4t-32 8v57h44q47 0 47 48v591h88v-587q0 -30 -10 -57.5t-33.5 -45.5t-66.5 -18zM67 625v98h88v-98h-88z" />
    <glyph glyph-name="uni0237" unicode="&#x237;" horiz-adv-x="222" 
d="M45 -182q-18 0 -37 4t-32 8v57h44q47 0 47 48v591h88v-587q0 -30 -10 -57.5t-33.5 -45.5t-66.5 -18z" />
    <glyph glyph-name="jcircumflex" unicode="&#x135;" horiz-adv-x="222" 
d="M45 -182q-18 0 -37 4t-32 8v57h44q47 0 47 48v591h88v-587q0 -30 -10 -57.5t-33.5 -45.5t-66.5 -18zM-36 588l106 135h84l105 -135h-90l-57 79l-58 -79h-90z" />
    <glyph glyph-name="k" unicode="k" horiz-adv-x="500" 
d="M67 0v723h88v-455l223 258h109l-181 -207l191 -319h-102l-144 256l-96 -91v-165h-88z" />
    <glyph glyph-name="kcommaaccent" unicode="&#x137;" horiz-adv-x="500" 
d="M67 0v723h88v-455l223 258h109l-181 -207l191 -319h-102l-144 256l-96 -91v-165h-88zM231 -230l37 81h-37v91h88v-84l-43 -88h-45z" />
    <glyph glyph-name="kgreenlandic" unicode="&#x138;" horiz-adv-x="500" 
d="M67 0v526h88v-258l223 258h109l-181 -207l191 -319h-102l-144 256l-96 -91v-165h-88z" />
    <glyph glyph-name="l" unicode="l" horiz-adv-x="222" 
d="M67 0v723h88v-723h-88z" />
    <glyph glyph-name="lacute" unicode="&#x13a;" horiz-adv-x="222" 
d="M67 0v723h88v-723h-88zM73 751l86 132h96l1 -3l-108 -129h-75z" />
    <glyph glyph-name="lcaron" unicode="&#x13e;" horiz-adv-x="292" 
d="M207 490l34 105h-34v91h85v-84l-41 -112h-44zM67 0v723h88v-723h-88z" />
    <glyph glyph-name="lcommaaccent" unicode="&#x13c;" horiz-adv-x="222" 
d="M67 0v723h88v-723h-88zM67 -230l37 81h-37v91h88v-84l-43 -88h-45z" />
    <glyph glyph-name="ldot" unicode="&#x140;" horiz-adv-x="283" 
d="M67 0v723h88v-723h-88zM206 303v108h100v-108h-100z" />
    <glyph glyph-name="uni01C9" unicode="&#x1c9;" horiz-adv-x="444" 
d="M67 0v723h88v-723h-88zM267 -182q-18 0 -37 4t-32 8v57h44q47 0 47 48v591h88v-587q0 -30 -10 -57.5t-33.5 -45.5t-66.5 -18zM289 625v98h88v-98h-88z" />
    <glyph glyph-name="lslash" unicode="&#x142;" horiz-adv-x="222" 
d="M67 0v283l-67 -56v77l67 56v363h88v-290l66 55v-77l-66 -55v-356h-88z" />
    <glyph glyph-name="m" unicode="m" horiz-adv-x="833" 
d="M67 0v526h67l10 -71h7q28 43 68.5 63t89.5 20q47 0 82.5 -19.5t53.5 -63.5h6q28 41 71.5 62t91.5 21q46 0 81 -15.5t54.5 -50t19.5 -93.5v-379h-88v363q0 61 -27 81.5t-67 20.5q-51 0 -88 -40.5t-37 -113.5v-311h-88v363q0 61 -26 81.5t-66 20.5q-51 0 -89 -40.5
t-38 -113.5v-311h-88z" />
    <glyph glyph-name="n" unicode="n" 
d="M67 0v526h67l10 -71h7q31 44 77 63.5t100 19.5q50 0 87 -17.5t57 -57t20 -104.5v-359h-88v353q0 67 -30 89.5t-79 22.5q-37 0 -69 -18.5t-51.5 -52.5t-19.5 -83v-311h-88z" />
    <glyph glyph-name="nacute" unicode="&#x144;" 
d="M67 0v526h67l10 -71h7q31 44 77 63.5t100 19.5q50 0 87 -17.5t57 -57t20 -104.5v-359h-88v353q0 67 -30 89.5t-79 22.5q-37 0 -69 -18.5t-51.5 -52.5t-19.5 -83v-311h-88zM240 591l86 132h96l1 -3l-108 -129h-75z" />
    <glyph glyph-name="napostrophe" unicode="&#x149;" horiz-adv-x="604" 
d="M115 0v526h67l10 -71h7q31 44 77 63.5t100 19.5q50 0 87 -17.5t57 -57t20 -104.5v-359h-88v353q0 67 -30 89.5t-79 22.5q-37 0 -69 -18.5t-51.5 -52.5t-19.5 -83v-311h-88zM0 490l34 105h-34v91h85v-84l-41 -112h-44z" />
    <glyph glyph-name="ncaron" unicode="&#x148;" 
d="M67 0v526h67l10 -71h7q31 44 77 63.5t100 19.5q50 0 87 -17.5t57 -57t20 -104.5v-359h-88v353q0 67 -30 89.5t-79 22.5q-37 0 -69 -18.5t-51.5 -52.5t-19.5 -83v-311h-88zM236 588l-106 135h90l58 -79l57 79h90l-105 -135h-84z" />
    <glyph glyph-name="ncommaaccent" unicode="&#x146;" 
d="M67 0v526h67l10 -71h7q31 44 77 63.5t100 19.5q50 0 87 -17.5t57 -57t20 -104.5v-359h-88v353q0 67 -30 89.5t-79 22.5q-37 0 -69 -18.5t-51.5 -52.5t-19.5 -83v-311h-88zM234 -230l37 81h-37v91h88v-84l-43 -88h-45z" />
    <glyph glyph-name="uni1E45" unicode="&#x1e45;" 
d="M67 0v526h67l10 -71h7q31 44 77 63.5t100 19.5q50 0 87 -17.5t57 -57t20 -104.5v-359h-88v353q0 67 -30 89.5t-79 22.5q-37 0 -69 -18.5t-51.5 -52.5t-19.5 -83v-311h-88zM234 628v95h87v-95h-87z" />
    <glyph glyph-name="eng" unicode="&#x14b;" 
d="M382 -182q-18 0 -37 4t-32 8v57h44q47 0 47 48v418q0 67 -30 89.5t-79 22.5q-37 0 -69 -18.5t-51.5 -52.5t-19.5 -83v-311h-88v526h67l10 -71h7q31 44 77 63.5t100 19.5q50 0 87 -17.5t57 -57t20 -104.5v-420q0 -30 -10 -57.5t-34 -45.5t-66 -18z" />
    <glyph glyph-name="uni0272" unicode="&#x272;" 
d="M45 -182q-18 0 -37 4t-32 8v57h44q47 0 47 48v591h67l10 -71h7q31 44 77 63.5t100 19.5q50 0 87 -17.5t57 -57t20 -104.5v-359h-88v353q0 67 -30 89.5t-79 22.5q-37 0 -69 -18.5t-51.5 -52.5t-19.5 -83v-372q0 -30 -10 -57.5t-33.5 -45.5t-66.5 -18z" />
    <glyph glyph-name="uni01CC" unicode="&#x1cc;" horiz-adv-x="778" 
d="M67 0v526h67l10 -71h7q31 44 77 63.5t100 19.5q50 0 87 -17.5t57 -57t20 -104.5v-359h-88v353q0 67 -30 89.5t-79 22.5q-37 0 -69 -18.5t-51.5 -52.5t-19.5 -83v-311h-88zM601 -182q-18 0 -37 4t-32 8v57h44q47 0 47 48v591h88v-587q0 -30 -10 -57.5t-33.5 -45.5
t-66.5 -18zM623 625v98h88v-98h-88z" />
    <glyph glyph-name="ntilde" unicode="&#xf1;" 
d="M67 0v526h67l10 -71h7q31 44 77 63.5t100 19.5q50 0 87 -17.5t57 -57t20 -104.5v-359h-88v353q0 67 -30 89.5t-79 22.5q-37 0 -69 -18.5t-51.5 -52.5t-19.5 -83v-311h-88zM114 619q0 42 20 73t65 31q28 0 52.5 -7.5t48 -15.5t48.5 -8q11 0 19 7t9 24h65q0 -42 -20 -73
t-65 -31q-28 0 -52.5 7.5t-48 15.5t-48.5 8q-11 0 -18.5 -7t-9.5 -24h-65z" />
    <glyph glyph-name="o" unicode="o" 
d="M278 -12q-119 0 -181 66.5t-62 208.5t62 208.5t181 66.5t181 -66.5t62 -208.5t-62 -208.5t-181 -66.5zM278 61q80 0 116 46.5t36 151.5v8q0 105 -36 151.5t-116 46.5t-116 -46.5t-36 -151.5v-8q0 -105 36 -151.5t116 -46.5z" />
    <glyph glyph-name="oacute" unicode="&#xf3;" 
d="M278 -12q-119 0 -181 66.5t-62 208.5t62 208.5t181 66.5t181 -66.5t62 -208.5t-62 -208.5t-181 -66.5zM278 61q80 0 116 46.5t36 151.5v8q0 105 -36 151.5t-116 46.5t-116 -46.5t-36 -151.5v-8q0 -105 36 -151.5t116 -46.5zM240 591l86 132h96l1 -3l-108 -129h-75z" />
    <glyph glyph-name="obreve" unicode="&#x14f;" 
d="M278 -12q-119 0 -181 66.5t-62 208.5t62 208.5t181 66.5t181 -66.5t62 -208.5t-62 -208.5t-181 -66.5zM278 61q80 0 116 46.5t36 151.5v8q0 105 -36 151.5t-116 46.5t-116 -46.5t-36 -151.5v-8q0 -105 36 -151.5t116 -46.5zM277 606q-56 0 -87.5 18t-44.5 45t-13 54h61
q2 -11 9.5 -23.5t25 -21t49.5 -8.5q48 0 65.5 18t19.5 35h61q0 -27 -13 -54t-45 -45t-88 -18z" />
    <glyph glyph-name="uni01D2" unicode="&#x1d2;" 
d="M278 -12q-119 0 -181 66.5t-62 208.5t62 208.5t181 66.5t181 -66.5t62 -208.5t-62 -208.5t-181 -66.5zM278 61q80 0 116 46.5t36 151.5v8q0 105 -36 151.5t-116 46.5t-116 -46.5t-36 -151.5v-8q0 -105 36 -151.5t116 -46.5zM236 588l-106 135h90l58 -79l57 79h90
l-105 -135h-84z" />
    <glyph glyph-name="ocircumflex" unicode="&#xf4;" 
d="M278 -12q-119 0 -181 66.5t-62 208.5t62 208.5t181 66.5t181 -66.5t62 -208.5t-62 -208.5t-181 -66.5zM278 61q80 0 116 46.5t36 151.5v8q0 105 -36 151.5t-116 46.5t-116 -46.5t-36 -151.5v-8q0 -105 36 -151.5t116 -46.5zM130 588l106 135h84l105 -135h-90l-57 79
l-58 -79h-90z" />
    <glyph glyph-name="uni1ED1" unicode="&#x1ed1;" 
d="M278 -12q-119 0 -181 66.5t-62 208.5t62 208.5t181 66.5t181 -66.5t62 -208.5t-62 -208.5t-181 -66.5zM278 61q80 0 116 46.5t36 151.5v8q0 105 -36 151.5t-116 46.5t-116 -46.5t-36 -151.5v-8q0 -105 36 -151.5t116 -46.5zM130 588l106 135h84l105 -135h-90l-57 79
l-58 -79h-90zM372 686l86 132h96l1 -3l-108 -129h-75z" />
    <glyph glyph-name="uni1ED9" unicode="&#x1ed9;" 
d="M278 -12q-119 0 -181 66.5t-62 208.5t62 208.5t181 66.5t181 -66.5t62 -208.5t-62 -208.5t-181 -66.5zM278 61q80 0 116 46.5t36 151.5v8q0 105 -36 151.5t-116 46.5t-116 -46.5t-36 -151.5v-8q0 -105 36 -151.5t116 -46.5zM130 588l106 135h84l105 -135h-90l-57 79
l-58 -79h-90zM234 -173v95h87v-95h-87z" />
    <glyph glyph-name="uni1ED3" unicode="&#x1ed3;" 
d="M278 -12q-119 0 -181 66.5t-62 208.5t62 208.5t181 66.5t181 -66.5t62 -208.5t-62 -208.5t-181 -66.5zM278 61q80 0 116 46.5t36 151.5v8q0 105 -36 151.5t-116 46.5t-116 -46.5t-36 -151.5v-8q0 -105 36 -151.5t116 -46.5zM130 588l106 135h84l105 -135h-90l-57 79
l-58 -79h-90zM412 686l-108 129l1 3h96l86 -132h-75z" />
    <glyph glyph-name="uni1ED5" unicode="&#x1ed5;" 
d="M278 -12q-119 0 -181 66.5t-62 208.5t62 208.5t181 66.5t181 -66.5t62 -208.5t-62 -208.5t-181 -66.5zM278 61q80 0 116 46.5t36 151.5v8q0 105 -36 151.5t-116 46.5t-116 -46.5t-36 -151.5v-8q0 -105 36 -151.5t116 -46.5zM130 588l106 135h84l105 -135h-90l-57 79
l-58 -79h-90zM382 686v61h13q16 0 22.5 4.5t6.5 13.5q0 10 -8 14t-23 4h-60v39q16 4 36 6t36 2q19 0 40.5 -5t36 -17.5t14.5 -37.5q0 -27 -18 -40.5t-40 -15.5v-28h-56z" />
    <glyph glyph-name="uni1ED7" unicode="&#x1ed7;" 
d="M278 -12q-119 0 -181 66.5t-62 208.5t62 208.5t181 66.5t181 -66.5t62 -208.5t-62 -208.5t-181 -66.5zM278 61q80 0 116 46.5t36 151.5v8q0 105 -36 151.5t-116 46.5t-116 -46.5t-36 -151.5v-8q0 -105 36 -151.5t116 -46.5zM130 588l106 135h84l105 -135h-90l-57 79
l-58 -79h-90zM116 779q0 42 20 73t65 31q28 0 52.5 -7.5t48 -15.5t48.5 -8q11 0 19 7t9 24h65q0 -42 -20 -73t-65 -31q-28 0 -52.5 7.5t-48 15.5t-48.5 8q-11 0 -18.5 -7t-9.5 -24h-65z" />
    <glyph glyph-name="uni020D" unicode="&#x20d;" 
d="M278 -12q-119 0 -181 66.5t-62 208.5t62 208.5t181 66.5t181 -66.5t62 -208.5t-62 -208.5t-181 -66.5zM278 61q80 0 116 46.5t36 151.5v8q0 105 -36 151.5t-116 46.5t-116 -46.5t-36 -151.5v-8q0 -105 36 -151.5t116 -46.5zM324 591l-84 129l1 3h97l62 -132h-76zM185 591
l-84 129l1 3h97l62 -132h-76z" />
    <glyph glyph-name="odieresis" unicode="&#xf6;" 
d="M278 -12q-119 0 -181 66.5t-62 208.5t62 208.5t181 66.5t181 -66.5t62 -208.5t-62 -208.5t-181 -66.5zM278 61q80 0 116 46.5t36 151.5v8q0 105 -36 151.5t-116 46.5t-116 -46.5t-36 -151.5v-8q0 -105 36 -151.5t116 -46.5zM328 628v95h87v-95h-87zM141 628v95h87v-95
h-87z" />
    <glyph glyph-name="uni1ECD" unicode="&#x1ecd;" 
d="M278 -12q-119 0 -181 66.5t-62 208.5t62 208.5t181 66.5t181 -66.5t62 -208.5t-62 -208.5t-181 -66.5zM278 61q80 0 116 46.5t36 151.5v8q0 105 -36 151.5t-116 46.5t-116 -46.5t-36 -151.5v-8q0 -105 36 -151.5t116 -46.5zM234 -173v95h87v-95h-87z" />
    <glyph glyph-name="ograve" unicode="&#xf2;" 
d="M278 -12q-119 0 -181 66.5t-62 208.5t62 208.5t181 66.5t181 -66.5t62 -208.5t-62 -208.5t-181 -66.5zM278 61q80 0 116 46.5t36 151.5v8q0 105 -36 151.5t-116 46.5t-116 -46.5t-36 -151.5v-8q0 -105 36 -151.5t116 -46.5zM240 591l-108 129l1 3h96l86 -132h-75z" />
    <glyph glyph-name="uni1ECF" unicode="&#x1ecf;" 
d="M278 -12q-119 0 -181 66.5t-62 208.5t62 208.5t181 66.5t181 -66.5t62 -208.5t-62 -208.5t-181 -66.5zM278 61q80 0 116 46.5t36 151.5v8q0 105 -36 151.5t-116 46.5t-116 -46.5t-36 -151.5v-8q0 -105 36 -151.5t116 -46.5zM250 591v61h13q16 0 22.5 4.5t6.5 13.5
q0 10 -8 14t-23 4h-60v39q16 4 36 6t36 2q19 0 40.5 -5t36 -17.5t14.5 -37.5q0 -27 -18 -40.5t-40 -15.5v-28h-56z" />
    <glyph glyph-name="ohorn" unicode="&#x1a1;" 
d="M278 -12q-119 0 -181 66.5t-62 208.5t62 208.5t181 66.5t181 -66.5t62 -208.5t-62 -208.5t-181 -66.5zM278 61q80 0 116 46.5t36 151.5v8q0 105 -36 151.5t-116 46.5t-116 -46.5t-36 -151.5v-8q0 -105 36 -151.5t116 -46.5zM424 433v56q69 8 104.5 39t35.5 90l62 14
q0 -84 -51 -135.5t-151 -63.5zM506 578v108h120v-54l-41 -54h-79z" />
    <glyph glyph-name="uni1EDB" unicode="&#x1edb;" 
d="M278 -12q-119 0 -181 66.5t-62 208.5t62 208.5t181 66.5t181 -66.5t62 -208.5t-62 -208.5t-181 -66.5zM278 61q80 0 116 46.5t36 151.5v8q0 105 -36 151.5t-116 46.5t-116 -46.5t-36 -151.5v-8q0 -105 36 -151.5t116 -46.5zM424 433v56q69 8 104.5 39t35.5 90l62 14
q0 -84 -51 -135.5t-151 -63.5zM506 578v108h120v-54l-41 -54h-79zM240 591l86 132h96l1 -3l-108 -129h-75z" />
    <glyph glyph-name="uni1EE3" unicode="&#x1ee3;" 
d="M278 -12q-119 0 -181 66.5t-62 208.5t62 208.5t181 66.5t181 -66.5t62 -208.5t-62 -208.5t-181 -66.5zM278 61q80 0 116 46.5t36 151.5v8q0 105 -36 151.5t-116 46.5t-116 -46.5t-36 -151.5v-8q0 -105 36 -151.5t116 -46.5zM424 433v56q69 8 104.5 39t35.5 90l62 14
q0 -84 -51 -135.5t-151 -63.5zM506 578v108h120v-54l-41 -54h-79zM234 -173v95h87v-95h-87z" />
    <glyph glyph-name="uni1EDD" unicode="&#x1edd;" 
d="M278 -12q-119 0 -181 66.5t-62 208.5t62 208.5t181 66.5t181 -66.5t62 -208.5t-62 -208.5t-181 -66.5zM278 61q80 0 116 46.5t36 151.5v8q0 105 -36 151.5t-116 46.5t-116 -46.5t-36 -151.5v-8q0 -105 36 -151.5t116 -46.5zM424 433v56q69 8 104.5 39t35.5 90l62 14
q0 -84 -51 -135.5t-151 -63.5zM506 578v108h120v-54l-41 -54h-79zM240 591l-108 129l1 3h96l86 -132h-75z" />
    <glyph glyph-name="uni1EDF" unicode="&#x1edf;" 
d="M278 -12q-119 0 -181 66.5t-62 208.5t62 208.5t181 66.5t181 -66.5t62 -208.5t-62 -208.5t-181 -66.5zM278 61q80 0 116 46.5t36 151.5v8q0 105 -36 151.5t-116 46.5t-116 -46.5t-36 -151.5v-8q0 -105 36 -151.5t116 -46.5zM424 433v56q69 8 104.5 39t35.5 90l62 14
q0 -84 -51 -135.5t-151 -63.5zM506 578v108h120v-54l-41 -54h-79zM250 591v61h13q16 0 22.5 4.5t6.5 13.5q0 10 -8 14t-23 4h-60v39q16 4 36 6t36 2q19 0 40.5 -5t36 -17.5t14.5 -37.5q0 -27 -18 -40.5t-40 -15.5v-28h-56z" />
    <glyph glyph-name="uni1EE1" unicode="&#x1ee1;" 
d="M278 -12q-119 0 -181 66.5t-62 208.5t62 208.5t181 66.5t181 -66.5t62 -208.5t-62 -208.5t-181 -66.5zM278 61q80 0 116 46.5t36 151.5v8q0 105 -36 151.5t-116 46.5t-116 -46.5t-36 -151.5v-8q0 -105 36 -151.5t116 -46.5zM424 433v56q69 8 104.5 39t35.5 90l62 14
q0 -84 -51 -135.5t-151 -63.5zM506 578v108h120v-54l-41 -54h-79zM114 619q0 42 20 73t65 31q28 0 52.5 -7.5t48 -15.5t48.5 -8q11 0 19 7t9 24h65q0 -42 -20 -73t-65 -31q-28 0 -52.5 7.5t-48 15.5t-48.5 8q-11 0 -18.5 -7t-9.5 -24h-65z" />
    <glyph glyph-name="ohungarumlaut" unicode="&#x151;" 
d="M278 -12q-119 0 -181 66.5t-62 208.5t62 208.5t181 66.5t181 -66.5t62 -208.5t-62 -208.5t-181 -66.5zM278 61q80 0 116 46.5t36 151.5v8q0 105 -36 151.5t-116 46.5t-116 -46.5t-36 -151.5v-8q0 -105 36 -151.5t116 -46.5zM309 591l62 132h97l1 -3l-84 -129h-76z
M170 591l62 132h97l1 -3l-84 -129h-76z" />
    <glyph glyph-name="uni020F" unicode="&#x20f;" 
d="M278 -12q-119 0 -181 66.5t-62 208.5t62 208.5t181 66.5t181 -66.5t62 -208.5t-62 -208.5t-181 -66.5zM278 61q80 0 116 46.5t36 151.5v8q0 105 -36 151.5t-116 46.5t-116 -46.5t-36 -151.5v-8q0 -105 36 -151.5t116 -46.5zM132 606q0 28 13 54.5t44.5 44.5t87.5 18
t88 -18t45 -44.5t13 -54.5h-61q-2 16 -19.5 34.5t-65.5 18.5q-32 0 -49.5 -8.5t-25 -21t-9.5 -23.5h-61z" />
    <glyph glyph-name="omacron" unicode="&#x14d;" 
d="M278 -12q-119 0 -181 66.5t-62 208.5t62 208.5t181 66.5t181 -66.5t62 -208.5t-62 -208.5t-181 -66.5zM278 61q80 0 116 46.5t36 151.5v8q0 105 -36 151.5t-116 46.5t-116 -46.5t-36 -151.5v-8q0 -105 36 -151.5t116 -46.5zM125 627v72h305v-72h-305z" />
    <glyph glyph-name="uni01EB" unicode="&#x1eb;" 
d="M278 -12q-119 0 -181 66.5t-62 208.5t62 208.5t181 66.5t181 -66.5t62 -208.5t-62 -208.5t-181 -66.5zM278 61q80 0 116 46.5t36 151.5v8q0 105 -36 151.5t-116 46.5t-116 -46.5t-36 -151.5v-8q0 -105 36 -151.5t116 -46.5zM378 -182q-23 0 -47 8t-39.5 28t-15.5 54
q0 37 17 60.5t39 43.5h60v-4q-11 -10 -24.5 -29.5t-13.5 -40.5t12 -38t41 -17h32v-51q-16 -7 -31 -10.5t-30 -3.5z" />
    <glyph glyph-name="oslash" unicode="&#xf8;" horiz-adv-x="611" 
d="M45 -49l76 106q-59 68 -59 206q0 142 62 208.5t181 66.5q82 0 138 -32l49 69h74l-77 -108q59 -68 59 -204q0 -142 -62 -208.5t-181 -66.5q-41 0 -75 7.5t-62 23.5l-48 -68h-75zM305 61q79 0 115.5 46.5t36.5 150.5v5q0 84 -22 129l-220 -308q33 -23 90 -23zM175 132
l221 309q-34 24 -91 24q-79 0 -115.5 -46.5t-36.5 -150.5v-5q0 -86 22 -131z" />
    <glyph glyph-name="oslashacute" unicode="&#x1ff;" horiz-adv-x="611" 
d="M45 -49l76 106q-59 68 -59 206q0 142 62 208.5t181 66.5q82 0 138 -32l49 69h74l-77 -108q59 -68 59 -204q0 -142 -62 -208.5t-181 -66.5q-41 0 -75 7.5t-62 23.5l-48 -68h-75zM305 61q79 0 115.5 46.5t36.5 150.5v5q0 84 -22 129l-220 -308q33 -23 90 -23zM175 132
l221 309q-34 24 -91 24q-79 0 -115.5 -46.5t-36.5 -150.5v-5q0 -86 22 -131zM268 591l86 132h96l1 -3l-108 -129h-75z" />
    <glyph glyph-name="otilde" unicode="&#xf5;" 
d="M278 -12q-119 0 -181 66.5t-62 208.5t62 208.5t181 66.5t181 -66.5t62 -208.5t-62 -208.5t-181 -66.5zM278 61q80 0 116 46.5t36 151.5v8q0 105 -36 151.5t-116 46.5t-116 -46.5t-36 -151.5v-8q0 -105 36 -151.5t116 -46.5zM114 619q0 42 20 73t65 31q28 0 52.5 -7.5
t48 -15.5t48.5 -8q11 0 19 7t9 24h65q0 -42 -20 -73t-65 -31q-28 0 -52.5 7.5t-48 15.5t-48.5 8q-11 0 -18.5 -7t-9.5 -24h-65z" />
    <glyph glyph-name="oe" unicode="&#x153;" horiz-adv-x="944" 
d="M278 -12q-119 0 -181 66.5t-62 208.5t62 208.5t181 66.5q137 0 197 -96q61 96 206 96q111 0 169 -59t58 -196v-44h-387q5 -91 43 -134.5t117 -43.5q39 0 71 12t51 37.5t19 68.5h86q0 -64 -30.5 -106.5t-82 -63.5t-114.5 -21q-145 0 -206 95q-59 -95 -197 -95zM278 61
q80 0 116 47.5t36 154.5v-5q0 110 -36 158.5t-116 48.5t-116 -46.5t-36 -150.5v-5q0 -107 36 -154.5t116 -47.5zM523 312h293q0 83 -37 118t-98 35q-74 0 -112 -35.5t-46 -117.5z" />
    <glyph glyph-name="p" unicode="p" 
d="M67 -173v699h66l11 -71h6q26 41 69 62t94 21q97 0 152.5 -65t55.5 -210q0 -95 -25 -156t-70.5 -90t-104.5 -29q-55 0 -94.5 17t-65.5 55h-6v-233h-88zM291 61q75 0 107 44t32 154v4q0 113 -32.5 157.5t-106.5 44.5q-72 0 -104 -52.5t-32 -149.5v-4q0 -95 31.5 -146.5
t104.5 -51.5z" />
    <glyph glyph-name="thorn" unicode="&#xfe;" 
d="M67 -173v896h88v-257h6q26 38 65.5 55t94.5 17q89 0 144.5 -66t55.5 -209q0 -95 -25 -156t-70.5 -90t-104.5 -29q-55 0 -94.5 17t-65.5 55h-6v-233h-88zM291 61q75 0 107 44t32 154v4q0 113 -32.5 157.5t-106.5 44.5q-72 0 -104 -52.5t-32 -149.5v-4q0 -95 31.5 -146.5
t104.5 -51.5z" />
    <glyph glyph-name="q" unicode="q" 
d="M401 -173v233h-6q-26 -38 -65.5 -55t-94.5 -17q-59 0 -104.5 29t-70.5 90t-25 156q0 145 55.5 210t152.5 65q51 0 94 -21t69 -62h6l11 71h66v-699h-88zM265 61q73 0 104.5 51.5t31.5 146.5v4q0 97 -32 149.5t-104 52.5q-74 0 -106.5 -44.5t-32.5 -157.5v-4
q0 -110 32 -154t107 -44z" />
    <glyph glyph-name="r" unicode="r" horiz-adv-x="333" 
d="M67 0v526h67l10 -79h6q13 33 41.5 62t82.5 29q21 0 34 -4l13 -4v-85h-37q-33 0 -62.5 -13t-48 -42.5t-18.5 -78.5v-311h-88z" />
    <glyph glyph-name="racute" unicode="&#x155;" horiz-adv-x="333" 
d="M67 0v526h67l10 -79h6q13 33 41.5 62t82.5 29q21 0 34 -4l13 -4v-85h-37q-33 0 -62.5 -13t-48 -42.5t-18.5 -78.5v-311h-88zM129 591l86 132h96l1 -3l-108 -129h-75z" />
    <glyph glyph-name="rcaron" unicode="&#x159;" horiz-adv-x="333" 
d="M67 0v526h67l10 -79h6q13 33 41.5 62t82.5 29q21 0 34 -4l13 -4v-85h-37q-33 0 -62.5 -13t-48 -42.5t-18.5 -78.5v-311h-88zM125 588l-106 135h90l58 -79l57 79h90l-105 -135h-84z" />
    <glyph glyph-name="rcommaaccent" unicode="&#x157;" horiz-adv-x="333" 
d="M67 0v526h67l10 -79h6q13 33 41.5 62t82.5 29q21 0 34 -4l13 -4v-85h-37q-33 0 -62.5 -13t-48 -42.5t-18.5 -78.5v-311h-88zM67 -230l37 81h-37v91h88v-84l-43 -88h-45z" />
    <glyph glyph-name="uni0211" unicode="&#x211;" horiz-adv-x="333" 
d="M67 0v526h67l10 -79h6q13 33 41.5 62t82.5 29q21 0 34 -4l13 -4v-85h-37q-33 0 -62.5 -13t-48 -42.5t-18.5 -78.5v-311h-88zM213 591l-84 129l1 3h97l62 -132h-76zM74 591l-84 129l1 3h97l62 -132h-76z" />
    <glyph glyph-name="uni1E5B" unicode="&#x1e5b;" horiz-adv-x="333" 
d="M67 0v526h67l10 -79h6q13 33 41.5 62t82.5 29q21 0 34 -4l13 -4v-85h-37q-33 0 -62.5 -13t-48 -42.5t-18.5 -78.5v-311h-88zM67 -173v95h87v-95h-87z" />
    <glyph glyph-name="uni0213" unicode="&#x213;" horiz-adv-x="333" 
d="M67 0v526h67l10 -79h6q13 33 41.5 62t82.5 29q21 0 34 -4l13 -4v-85h-37q-33 0 -62.5 -13t-48 -42.5t-18.5 -78.5v-311h-88zM21 606q0 28 13 54.5t44.5 44.5t87.5 18t88 -18t45 -44.5t13 -54.5h-61q-2 16 -19.5 34.5t-65.5 18.5q-32 0 -49.5 -8.5t-25 -21t-9.5 -23.5h-61
z" />
    <glyph glyph-name="s" unicode="s" horiz-adv-x="500" 
d="M247 -12q-77 0 -124.5 22t-69.5 57.5t-22 74.5q0 10 0.5 15t0.5 7h87v-10q0 -33 18 -53.5t48 -30.5t67 -10q32 0 59 9t43 26t16 43q0 34 -23.5 53t-60.5 30t-78 21.5t-78 26.5t-60.5 44t-23.5 75q0 46 26 80t73 52t110 18t106 -20t65 -52.5t22 -71.5q0 -5 -0.5 -11.5
t-0.5 -7.5h-86v9q0 31 -25 56t-91 25q-45 0 -68 -11.5t-31.5 -28.5t-8.5 -31q0 -29 23.5 -45t60.5 -26t78 -20t78 -27t60.5 -46.5t23.5 -79.5q0 -56 -28 -92t-76.5 -53t-109.5 -17z" />
    <glyph glyph-name="sacute" unicode="&#x15b;" horiz-adv-x="500" 
d="M247 -12q-77 0 -124.5 22t-69.5 57.5t-22 74.5q0 10 0.5 15t0.5 7h87v-10q0 -33 18 -53.5t48 -30.5t67 -10q32 0 59 9t43 26t16 43q0 34 -23.5 53t-60.5 30t-78 21.5t-78 26.5t-60.5 44t-23.5 75q0 46 26 80t73 52t110 18t106 -20t65 -52.5t22 -71.5q0 -5 -0.5 -11.5
t-0.5 -7.5h-86v9q0 31 -25 56t-91 25q-45 0 -68 -11.5t-31.5 -28.5t-8.5 -31q0 -29 23.5 -45t60.5 -26t78 -20t78 -27t60.5 -46.5t23.5 -79.5q0 -56 -28 -92t-76.5 -53t-109.5 -17zM212 591l86 132h96l1 -3l-108 -129h-75z" />
    <glyph glyph-name="uniA78C" unicode="&#xa78c;" horiz-adv-x="156" 
d="M46 288v435h90v-112l-42 -323h-48z" />
    <glyph glyph-name="scaron" unicode="&#x161;" horiz-adv-x="500" 
d="M247 -12q-77 0 -124.5 22t-69.5 57.5t-22 74.5q0 10 0.5 15t0.5 7h87v-10q0 -33 18 -53.5t48 -30.5t67 -10q32 0 59 9t43 26t16 43q0 34 -23.5 53t-60.5 30t-78 21.5t-78 26.5t-60.5 44t-23.5 75q0 46 26 80t73 52t110 18t106 -20t65 -52.5t22 -71.5q0 -5 -0.5 -11.5
t-0.5 -7.5h-86v9q0 31 -25 56t-91 25q-45 0 -68 -11.5t-31.5 -28.5t-8.5 -31q0 -29 23.5 -45t60.5 -26t78 -20t78 -27t60.5 -46.5t23.5 -79.5q0 -56 -28 -92t-76.5 -53t-109.5 -17zM208 588l-106 135h90l58 -79l57 79h90l-105 -135h-84z" />
    <glyph glyph-name="scedilla" unicode="&#x15f;" horiz-adv-x="500" 
d="M247 -12q-77 0 -124.5 22t-69.5 57.5t-22 74.5q0 10 0.5 15t0.5 7h87v-10q0 -33 18 -53.5t48 -30.5t67 -10q32 0 59 9t43 26t16 43q0 34 -23.5 53t-60.5 30t-78 21.5t-78 26.5t-60.5 44t-23.5 75q0 46 26 80t73 52t110 18t106 -20t65 -52.5t22 -71.5q0 -5 -0.5 -11.5
t-0.5 -7.5h-86v9q0 31 -25 56t-91 25q-45 0 -68 -11.5t-31.5 -28.5t-8.5 -31q0 -29 23.5 -45t60.5 -26t78 -20t78 -27t60.5 -46.5t23.5 -79.5q0 -56 -28 -92t-76.5 -53t-109.5 -17zM247 -182q-24 0 -49.5 2t-45.5 6v49h100q19 0 30 5t11 19q0 12 -8.5 18t-30.5 6h-51l16 88
h62l-8 -47q37 -2 64.5 -16t27.5 -49q0 -33 -19.5 -50.5t-47.5 -24t-51 -6.5z" />
    <glyph glyph-name="scircumflex" unicode="&#x15d;" horiz-adv-x="500" 
d="M247 -12q-77 0 -124.5 22t-69.5 57.5t-22 74.5q0 10 0.5 15t0.5 7h87v-10q0 -33 18 -53.5t48 -30.5t67 -10q32 0 59 9t43 26t16 43q0 34 -23.5 53t-60.5 30t-78 21.5t-78 26.5t-60.5 44t-23.5 75q0 46 26 80t73 52t110 18t106 -20t65 -52.5t22 -71.5q0 -5 -0.5 -11.5
t-0.5 -7.5h-86v9q0 31 -25 56t-91 25q-45 0 -68 -11.5t-31.5 -28.5t-8.5 -31q0 -29 23.5 -45t60.5 -26t78 -20t78 -27t60.5 -46.5t23.5 -79.5q0 -56 -28 -92t-76.5 -53t-109.5 -17zM102 588l106 135h84l105 -135h-90l-57 79l-58 -79h-90z" />
    <glyph glyph-name="scommaaccent" unicode="&#x219;" horiz-adv-x="500" 
d="M247 -12q-77 0 -124.5 22t-69.5 57.5t-22 74.5q0 10 0.5 15t0.5 7h87v-10q0 -33 18 -53.5t48 -30.5t67 -10q32 0 59 9t43 26t16 43q0 34 -23.5 53t-60.5 30t-78 21.5t-78 26.5t-60.5 44t-23.5 75q0 46 26 80t73 52t110 18t106 -20t65 -52.5t22 -71.5q0 -5 -0.5 -11.5
t-0.5 -7.5h-86v9q0 31 -25 56t-91 25q-45 0 -68 -11.5t-31.5 -28.5t-8.5 -31q0 -29 23.5 -45t60.5 -26t78 -20t78 -27t60.5 -46.5t23.5 -79.5q0 -56 -28 -92t-76.5 -53t-109.5 -17zM206 -230l37 81h-37v91h88v-84l-43 -88h-45z" />
    <glyph glyph-name="uni1E63" unicode="&#x1e63;" horiz-adv-x="500" 
d="M247 -12q-77 0 -124.5 22t-69.5 57.5t-22 74.5q0 10 0.5 15t0.5 7h87v-10q0 -33 18 -53.5t48 -30.5t67 -10q32 0 59 9t43 26t16 43q0 34 -23.5 53t-60.5 30t-78 21.5t-78 26.5t-60.5 44t-23.5 75q0 46 26 80t73 52t110 18t106 -20t65 -52.5t22 -71.5q0 -5 -0.5 -11.5
t-0.5 -7.5h-86v9q0 31 -25 56t-91 25q-45 0 -68 -11.5t-31.5 -28.5t-8.5 -31q0 -29 23.5 -45t60.5 -26t78 -20t78 -27t60.5 -46.5t23.5 -79.5q0 -56 -28 -92t-76.5 -53t-109.5 -17zM206 -173v95h87v-95h-87z" />
    <glyph glyph-name="germandbls" unicode="&#xdf;" horiz-adv-x="611" 
d="M64 0v516q0 78 34.5 126t91 70.5t124.5 22.5q74 0 128 -23.5t83.5 -64.5t29.5 -93q0 -56 -32.5 -98.5t-86.5 -60.5v-4q63 -19 104 -67.5t41 -117.5q0 -58 -29.5 -105t-79.5 -74t-111 -27h-124v74h114q39 0 71 19t50.5 51t18.5 69q0 39 -20 70t-54 49t-76 18h-104v73h94
q37 0 67.5 16.5t48.5 45t18 63.5q0 50 -39.5 82t-112.5 32q-74 0 -117 -36.5t-43 -107.5v-518h-89z" />
    <glyph glyph-name="longs" unicode="&#x17f;" horiz-adv-x="278" 
d="M86 0v453h-77v73h77v84q0 30 10 58t34.5 45.5t69.5 17.5q20 0 41 -3.5t34 -8.5v-61h-52q-49 0 -49 -48v-610h-88z" />
    <glyph glyph-name="t" unicode="t" horiz-adv-x="278" 
d="M186 -11q-39 0 -61.5 16.5t-32.5 41.5t-10 53v353h-64v73h65l19 146h68v-146h89v-73h-89v-345q0 -47 44 -47h45v-58q-13 -6 -34 -10t-39 -4z" />
    <glyph glyph-name="tbar" unicode="&#x167;" horiz-adv-x="278" 
d="M186 -11q-39 0 -61.5 16.5t-32.5 41.5t-10 53v163h-64v62h64v128h-64v73h65l19 146h68v-146h89v-73h-89v-128h89v-62h-89v-155q0 -47 44 -47h45v-58q-13 -6 -34 -10t-39 -4z" />
    <glyph glyph-name="tcaron" unicode="&#x165;" horiz-adv-x="375" 
d="M287 527l34 105h-34v91h85v-84l-41 -112h-44zM186 -11q-39 0 -61.5 16.5t-32.5 41.5t-10 53v353h-64v73h65l19 146h68v-146h89v-73h-89v-345q0 -47 44 -47h45v-58q-13 -6 -34 -10t-39 -4z" />
    <glyph glyph-name="tcommaaccent" unicode="&#x163;" horiz-adv-x="278" 
d="M186 -11q-39 0 -61.5 16.5t-32.5 41.5t-10 53v353h-64v73h65l19 146h68v-146h89v-73h-89v-345q0 -47 44 -47h45v-58q-13 -6 -34 -10t-39 -4zM147 -182q-24 0 -49.5 2t-45.5 6v49h100q19 0 30 5t11 19q0 12 -8.5 18t-30.5 6h-51l16 88h62l-8 -47q37 -2 64.5 -16t27.5 -49
q0 -33 -19.5 -50.5t-47.5 -24t-51 -6.5z" />
    <glyph glyph-name="uni021B" unicode="&#x21b;" horiz-adv-x="278" 
d="M186 -11q-39 0 -61.5 16.5t-32.5 41.5t-10 53v353h-64v73h65l19 146h68v-146h89v-73h-89v-345q0 -47 44 -47h45v-58q-13 -6 -34 -10t-39 -4zM106 -230l37 81h-37v91h88v-84l-43 -88h-45z" />
    <glyph glyph-name="uni1E6D" unicode="&#x1e6d;" horiz-adv-x="278" 
d="M186 -11q-39 0 -61.5 16.5t-32.5 41.5t-10 53v353h-64v73h65l19 146h68v-146h89v-73h-89v-345q0 -47 44 -47h45v-58q-13 -6 -34 -10t-39 -4zM106 -173v95h87v-95h-87z" />
    <glyph glyph-name="u" unicode="u" 
d="M228 -12q-50 0 -87 17.5t-57 57t-20 104.5v359h88v-353q0 -67 30 -89.5t79 -22.5q37 0 69 18.5t51.5 52.5t19.5 83v311h88v-526h-67l-10 71h-7q-31 -44 -77 -63.5t-100 -19.5z" />
    <glyph glyph-name="uacute" unicode="&#xfa;" 
d="M228 -12q-50 0 -87 17.5t-57 57t-20 104.5v359h88v-353q0 -67 30 -89.5t79 -22.5q37 0 69 18.5t51.5 52.5t19.5 83v311h88v-526h-67l-10 71h-7q-31 -44 -77 -63.5t-100 -19.5zM239 591l86 132h96l1 -3l-108 -129h-75z" />
    <glyph glyph-name="ubreve" unicode="&#x16d;" 
d="M228 -12q-50 0 -87 17.5t-57 57t-20 104.5v359h88v-353q0 -67 30 -89.5t79 -22.5q37 0 69 18.5t51.5 52.5t19.5 83v311h88v-526h-67l-10 71h-7q-31 -44 -77 -63.5t-100 -19.5zM276 606q-56 0 -87.5 18t-44.5 45t-13 54h61q2 -11 9.5 -23.5t25 -21t49.5 -8.5q48 0 65.5 18
t19.5 35h61q0 -27 -13 -54t-45 -45t-88 -18z" />
    <glyph glyph-name="uni01D4" unicode="&#x1d4;" 
d="M228 -12q-50 0 -87 17.5t-57 57t-20 104.5v359h88v-353q0 -67 30 -89.5t79 -22.5q37 0 69 18.5t51.5 52.5t19.5 83v311h88v-526h-67l-10 71h-7q-31 -44 -77 -63.5t-100 -19.5zM235 588l-106 135h90l58 -79l57 79h90l-105 -135h-84z" />
    <glyph glyph-name="ucircumflex" unicode="&#xfb;" 
d="M228 -12q-50 0 -87 17.5t-57 57t-20 104.5v359h88v-353q0 -67 30 -89.5t79 -22.5q37 0 69 18.5t51.5 52.5t19.5 83v311h88v-526h-67l-10 71h-7q-31 -44 -77 -63.5t-100 -19.5zM129 588l106 135h84l105 -135h-90l-57 79l-58 -79h-90z" />
    <glyph glyph-name="uni0215" unicode="&#x215;" 
d="M228 -12q-50 0 -87 17.5t-57 57t-20 104.5v359h88v-353q0 -67 30 -89.5t79 -22.5q37 0 69 18.5t51.5 52.5t19.5 83v311h88v-526h-67l-10 71h-7q-31 -44 -77 -63.5t-100 -19.5zM323 591l-84 129l1 3h97l62 -132h-76zM184 591l-84 129l1 3h97l62 -132h-76z" />
    <glyph glyph-name="udieresis" unicode="&#xfc;" 
d="M228 -12q-50 0 -87 17.5t-57 57t-20 104.5v359h88v-353q0 -67 30 -89.5t79 -22.5q37 0 69 18.5t51.5 52.5t19.5 83v311h88v-526h-67l-10 71h-7q-31 -44 -77 -63.5t-100 -19.5zM327 628v95h87v-95h-87zM140 628v95h87v-95h-87z" />
    <glyph glyph-name="uni01D8" unicode="&#x1d8;" 
d="M228 -12q-50 0 -87 17.5t-57 57t-20 104.5v359h88v-353q0 -67 30 -89.5t79 -22.5q37 0 69 18.5t51.5 52.5t19.5 83v311h88v-526h-67l-10 71h-7q-31 -44 -77 -63.5t-100 -19.5zM327 628v95h87v-95h-87zM140 628v95h87v-95h-87zM239 758l86 132h96l1 -3l-108 -129h-75z" />
    <glyph glyph-name="uni01DA" unicode="&#x1da;" 
d="M228 -12q-50 0 -87 17.5t-57 57t-20 104.5v359h88v-353q0 -67 30 -89.5t79 -22.5q37 0 69 18.5t51.5 52.5t19.5 83v311h88v-526h-67l-10 71h-7q-31 -44 -77 -63.5t-100 -19.5zM327 628v95h87v-95h-87zM140 628v95h87v-95h-87zM235 755l-106 135h90l58 -79l57 79h90
l-105 -135h-84z" />
    <glyph glyph-name="uni01DC" unicode="&#x1dc;" 
d="M228 -12q-50 0 -87 17.5t-57 57t-20 104.5v359h88v-353q0 -67 30 -89.5t79 -22.5q37 0 69 18.5t51.5 52.5t19.5 83v311h88v-526h-67l-10 71h-7q-31 -44 -77 -63.5t-100 -19.5zM327 628v95h87v-95h-87zM140 628v95h87v-95h-87zM239 758l-108 129l1 3h96l86 -132h-75z" />
    <glyph glyph-name="uni01D6" unicode="&#x1d6;" 
d="M228 -12q-50 0 -87 17.5t-57 57t-20 104.5v359h88v-353q0 -67 30 -89.5t79 -22.5q37 0 69 18.5t51.5 52.5t19.5 83v311h88v-526h-67l-10 71h-7q-31 -44 -77 -63.5t-100 -19.5zM327 628v95h87v-95h-87zM140 628v95h87v-95h-87zM124 794v72h305v-72h-305z" />
    <glyph glyph-name="uni1EE5" unicode="&#x1ee5;" 
d="M228 -12q-50 0 -87 17.5t-57 57t-20 104.5v359h88v-353q0 -67 30 -89.5t79 -22.5q37 0 69 18.5t51.5 52.5t19.5 83v311h88v-526h-67l-10 71h-7q-31 -44 -77 -63.5t-100 -19.5zM234 -173v95h87v-95h-87z" />
    <glyph glyph-name="ugrave" unicode="&#xf9;" 
d="M228 -12q-50 0 -87 17.5t-57 57t-20 104.5v359h88v-353q0 -67 30 -89.5t79 -22.5q37 0 69 18.5t51.5 52.5t19.5 83v311h88v-526h-67l-10 71h-7q-31 -44 -77 -63.5t-100 -19.5zM239 591l-108 129l1 3h96l86 -132h-75z" />
    <glyph glyph-name="uni1EE7" unicode="&#x1ee7;" 
d="M228 -12q-50 0 -87 17.5t-57 57t-20 104.5v359h88v-353q0 -67 30 -89.5t79 -22.5q37 0 69 18.5t51.5 52.5t19.5 83v311h88v-526h-67l-10 71h-7q-31 -44 -77 -63.5t-100 -19.5zM249 591v61h13q16 0 22.5 4.5t6.5 13.5q0 10 -8 14t-23 4h-60v39q16 4 36 6t36 2
q19 0 40.5 -5t36 -17.5t14.5 -37.5q0 -27 -18 -40.5t-40 -15.5v-28h-56z" />
    <glyph glyph-name="uhorn" unicode="&#x1b0;" 
d="M228 -12q-50 0 -87 17.5t-57 57t-20 104.5v359h88v-353q0 -67 30 -89.5t79 -22.5q37 0 69 18.5t51.5 52.5t19.5 83v311h88v-526h-67l-10 71h-7q-31 -44 -77 -63.5t-100 -19.5zM404 470v56q69 8 104.5 39t35.5 90l62 14q0 -84 -51 -135.5t-151 -63.5zM486 615v108h120v-54
l-41 -54h-79z" />
    <glyph glyph-name="uni1EE9" unicode="&#x1ee9;" 
d="M228 -12q-50 0 -87 17.5t-57 57t-20 104.5v359h88v-353q0 -67 30 -89.5t79 -22.5q37 0 69 18.5t51.5 52.5t19.5 83v311h88v-526h-67l-10 71h-7q-31 -44 -77 -63.5t-100 -19.5zM404 470v56q69 8 104.5 39t35.5 90l62 14q0 -84 -51 -135.5t-151 -63.5zM486 615v108h120v-54
l-41 -54h-79zM239 591l86 132h96l1 -3l-108 -129h-75z" />
    <glyph glyph-name="uni1EF1" unicode="&#x1ef1;" 
d="M228 -12q-50 0 -87 17.5t-57 57t-20 104.5v359h88v-353q0 -67 30 -89.5t79 -22.5q37 0 69 18.5t51.5 52.5t19.5 83v311h88v-526h-67l-10 71h-7q-31 -44 -77 -63.5t-100 -19.5zM404 470v56q69 8 104.5 39t35.5 90l62 14q0 -84 -51 -135.5t-151 -63.5zM486 615v108h120v-54
l-41 -54h-79zM234 -173v95h87v-95h-87z" />
    <glyph glyph-name="uni1EEB" unicode="&#x1eeb;" 
d="M228 -12q-50 0 -87 17.5t-57 57t-20 104.5v359h88v-353q0 -67 30 -89.5t79 -22.5q37 0 69 18.5t51.5 52.5t19.5 83v311h88v-526h-67l-10 71h-7q-31 -44 -77 -63.5t-100 -19.5zM404 470v56q69 8 104.5 39t35.5 90l62 14q0 -84 -51 -135.5t-151 -63.5zM486 615v108h120v-54
l-41 -54h-79zM239 591l-108 129l1 3h96l86 -132h-75z" />
    <glyph glyph-name="uni1EED" unicode="&#x1eed;" 
d="M228 -12q-50 0 -87 17.5t-57 57t-20 104.5v359h88v-353q0 -67 30 -89.5t79 -22.5q37 0 69 18.5t51.5 52.5t19.5 83v311h88v-526h-67l-10 71h-7q-31 -44 -77 -63.5t-100 -19.5zM404 470v56q69 8 104.5 39t35.5 90l62 14q0 -84 -51 -135.5t-151 -63.5zM486 615v108h120v-54
l-41 -54h-79zM249 591v61h13q16 0 22.5 4.5t6.5 13.5q0 10 -8 14t-23 4h-60v39q16 4 36 6t36 2q19 0 40.5 -5t36 -17.5t14.5 -37.5q0 -27 -18 -40.5t-40 -15.5v-28h-56z" />
    <glyph glyph-name="uni1EEF" unicode="&#x1eef;" 
d="M228 -12q-50 0 -87 17.5t-57 57t-20 104.5v359h88v-353q0 -67 30 -89.5t79 -22.5q37 0 69 18.5t51.5 52.5t19.5 83v311h88v-526h-67l-10 71h-7q-31 -44 -77 -63.5t-100 -19.5zM404 470v56q69 8 104.5 39t35.5 90l62 14q0 -84 -51 -135.5t-151 -63.5zM486 615v108h120v-54
l-41 -54h-79zM113 619q0 42 20 73t65 31q28 0 52.5 -7.5t48 -15.5t48.5 -8q11 0 19 7t9 24h65q0 -42 -20 -73t-65 -31q-28 0 -52.5 7.5t-48 15.5t-48.5 8q-11 0 -18.5 -7t-9.5 -24h-65z" />
    <glyph glyph-name="uhungarumlaut" unicode="&#x171;" 
d="M228 -12q-50 0 -87 17.5t-57 57t-20 104.5v359h88v-353q0 -67 30 -89.5t79 -22.5q37 0 69 18.5t51.5 52.5t19.5 83v311h88v-526h-67l-10 71h-7q-31 -44 -77 -63.5t-100 -19.5zM308 591l62 132h97l1 -3l-84 -129h-76zM169 591l62 132h97l1 -3l-84 -129h-76z" />
    <glyph glyph-name="uni0217" unicode="&#x217;" 
d="M228 -12q-50 0 -87 17.5t-57 57t-20 104.5v359h88v-353q0 -67 30 -89.5t79 -22.5q37 0 69 18.5t51.5 52.5t19.5 83v311h88v-526h-67l-10 71h-7q-31 -44 -77 -63.5t-100 -19.5zM131 606q0 28 13 54.5t44.5 44.5t87.5 18t88 -18t45 -44.5t13 -54.5h-61q-2 16 -19.5 34.5
t-65.5 18.5q-32 0 -49.5 -8.5t-25 -21t-9.5 -23.5h-61z" />
    <glyph glyph-name="umacron" unicode="&#x16b;" 
d="M228 -12q-50 0 -87 17.5t-57 57t-20 104.5v359h88v-353q0 -67 30 -89.5t79 -22.5q37 0 69 18.5t51.5 52.5t19.5 83v311h88v-526h-67l-10 71h-7q-31 -44 -77 -63.5t-100 -19.5zM124 627v72h305v-72h-305z" />
    <glyph glyph-name="uogonek" unicode="&#x173;" 
d="M428 -182q-22 0 -46 8t-40 26t-16 48q0 38 25 66t70 41l-9 64h-7q-31 -44 -77 -63.5t-100 -19.5q-50 0 -87 17.5t-57 57t-20 104.5v359h88v-353q0 -67 30 -89.5t79 -22.5q37 0 69 18.5t51.5 52.5t19.5 83v311h88v-526q-31 -9 -58 -29.5t-27 -46.5q0 -16 12 -28.5
t41 -12.5h32v-51q-16 -7 -31 -10.5t-30 -3.5z" />
    <glyph glyph-name="uring" unicode="&#x16f;" 
d="M228 -12q-50 0 -87 17.5t-57 57t-20 104.5v359h88v-353q0 -67 30 -89.5t79 -22.5q37 0 69 18.5t51.5 52.5t19.5 83v311h88v-526h-67l-10 71h-7q-31 -44 -77 -63.5t-100 -19.5zM277 566q-45 0 -70.5 28t-25.5 68t25.5 68t70.5 28t70.5 -28t25.5 -68t-25.5 -68t-70.5 -28z
M277 611q23 0 37 15t14 36t-14 36t-37 15t-37 -15t-14 -36t14 -36t37 -15z" />
    <glyph glyph-name="utilde" unicode="&#x169;" 
d="M228 -12q-50 0 -87 17.5t-57 57t-20 104.5v359h88v-353q0 -67 30 -89.5t79 -22.5q37 0 69 18.5t51.5 52.5t19.5 83v311h88v-526h-67l-10 71h-7q-31 -44 -77 -63.5t-100 -19.5zM113 619q0 42 20 73t65 31q28 0 52.5 -7.5t48 -15.5t48.5 -8q11 0 19 7t9 24h65
q0 -42 -20 -73t-65 -31q-28 0 -52.5 7.5t-48 15.5t-48.5 8q-11 0 -18.5 -7t-9.5 -24h-65z" />
    <glyph glyph-name="v" unicode="v" horiz-adv-x="500" 
d="M206 0l-193 526h93l93 -263q8 -22 17 -50l17 -54.5l13 -43.5l5 -17h5l4.5 16.5l12 42l16.5 54t18 52.5l92 263h88l-193 -526h-88z" />
    <glyph glyph-name="w" unicode="w" horiz-adv-x="722" 
d="M163 0l-158 526h91l81 -298q3 -10 8 -30.5l10.5 -42t9 -36.5l3.5 -15h5l3.5 15.5t8 37.5l8.5 42t6 29l69 298h107l73 -298q3 -10 7.5 -30.5l9 -42l7.5 -36.5l3 -15h5l3.5 14.5l8.5 35.5l10 41.5l8 32.5l80 298h86l-158 -526h-96l-76 314q-3 11 -7 29l-8 36t-6.5 30.5
l-2.5 12.5h-4l-2.5 -12.5t-6.5 -30.5t-7.5 -36t-6.5 -29l-75 -314h-97z" />
    <glyph glyph-name="wacute" unicode="&#x1e83;" horiz-adv-x="722" 
d="M163 0l-158 526h91l81 -298q3 -10 8 -30.5l10.5 -42t9 -36.5l3.5 -15h5l3.5 15.5t8 37.5l8.5 42t6 29l69 298h107l73 -298q3 -10 7.5 -30.5l9 -42l7.5 -36.5l3 -15h5l3.5 14.5l8.5 35.5l10 41.5l8 32.5l80 298h86l-158 -526h-96l-76 314q-3 11 -7 29l-8 36t-6.5 30.5
l-2.5 12.5h-4l-2.5 -12.5t-6.5 -30.5t-7.5 -36t-6.5 -29l-75 -314h-97zM323 591l86 132h96l1 -3l-108 -129h-75z" />
    <glyph glyph-name="wcircumflex" unicode="&#x175;" horiz-adv-x="722" 
d="M163 0l-158 526h91l81 -298q3 -10 8 -30.5l10.5 -42t9 -36.5l3.5 -15h5l3.5 15.5t8 37.5l8.5 42t6 29l69 298h107l73 -298q3 -10 7.5 -30.5l9 -42l7.5 -36.5l3 -15h5l3.5 14.5l8.5 35.5l10 41.5l8 32.5l80 298h86l-158 -526h-96l-76 314q-3 11 -7 29l-8 36t-6.5 30.5
l-2.5 12.5h-4l-2.5 -12.5t-6.5 -30.5t-7.5 -36t-6.5 -29l-75 -314h-97zM213 588l106 135h84l105 -135h-90l-57 79l-58 -79h-90z" />
    <glyph glyph-name="wdieresis" unicode="&#x1e85;" horiz-adv-x="722" 
d="M163 0l-158 526h91l81 -298q3 -10 8 -30.5l10.5 -42t9 -36.5l3.5 -15h5l3.5 15.5t8 37.5l8.5 42t6 29l69 298h107l73 -298q3 -10 7.5 -30.5l9 -42l7.5 -36.5l3 -15h5l3.5 14.5l8.5 35.5l10 41.5l8 32.5l80 298h86l-158 -526h-96l-76 314q-3 11 -7 29l-8 36t-6.5 30.5
l-2.5 12.5h-4l-2.5 -12.5t-6.5 -30.5t-7.5 -36t-6.5 -29l-75 -314h-97zM411 628v95h87v-95h-87zM224 628v95h87v-95h-87z" />
    <glyph glyph-name="wgrave" unicode="&#x1e81;" horiz-adv-x="722" 
d="M163 0l-158 526h91l81 -298q3 -10 8 -30.5l10.5 -42t9 -36.5l3.5 -15h5l3.5 15.5t8 37.5l8.5 42t6 29l69 298h107l73 -298q3 -10 7.5 -30.5l9 -42l7.5 -36.5l3 -15h5l3.5 14.5l8.5 35.5l10 41.5l8 32.5l80 298h86l-158 -526h-96l-76 314q-3 11 -7 29l-8 36t-6.5 30.5
l-2.5 12.5h-4l-2.5 -12.5t-6.5 -30.5t-7.5 -36t-6.5 -29l-75 -314h-97zM323 591l-108 129l1 3h96l86 -132h-75z" />
    <glyph glyph-name="x" unicode="x" horiz-adv-x="500" 
d="M7 0l195 269l-186 257h107l125 -187h6l128 187h102l-186 -255l195 -271h-106l-135 202h-6l-137 -202h-102z" />
    <glyph glyph-name="y" unicode="y" horiz-adv-x="500" 
d="M117 -182q-25 0 -41.5 2t-28.5 6v57h35q43 0 79 24.5t55 92.5l-203 526h93l98 -263l18 -50l19 -54.5l14.5 -43.5l5.5 -17h5l4.5 16l12 41.5l16 54l16.5 53.5l84 263h88l-173 -499q-20 -57 -45.5 -104.5t-62 -76t-89.5 -28.5z" />
    <glyph glyph-name="yacute" unicode="&#xfd;" horiz-adv-x="500" 
d="M117 -182q-25 0 -41.5 2t-28.5 6v57h35q43 0 79 24.5t55 92.5l-203 526h93l98 -263l18 -50l19 -54.5l14.5 -43.5l5.5 -17h5l4.5 16l12 41.5l16 54l16.5 53.5l84 263h88l-173 -499q-20 -57 -45.5 -104.5t-62 -76t-89.5 -28.5zM212 591l86 132h96l1 -3l-108 -129h-75z" />
    <glyph glyph-name="ycircumflex" unicode="&#x177;" horiz-adv-x="500" 
d="M117 -182q-25 0 -41.5 2t-28.5 6v57h35q43 0 79 24.5t55 92.5l-203 526h93l98 -263l18 -50l19 -54.5l14.5 -43.5l5.5 -17h5l4.5 16l12 41.5l16 54l16.5 53.5l84 263h88l-173 -499q-20 -57 -45.5 -104.5t-62 -76t-89.5 -28.5zM102 588l106 135h84l105 -135h-90l-57 79
l-58 -79h-90z" />
    <glyph glyph-name="ydieresis" unicode="&#xff;" horiz-adv-x="500" 
d="M117 -182q-25 0 -41.5 2t-28.5 6v57h35q43 0 79 24.5t55 92.5l-203 526h93l98 -263l18 -50l19 -54.5l14.5 -43.5l5.5 -17h5l4.5 16l12 41.5l16 54l16.5 53.5l84 263h88l-173 -499q-20 -57 -45.5 -104.5t-62 -76t-89.5 -28.5zM300 628v95h87v-95h-87zM113 628v95h87v-95
h-87z" />
    <glyph glyph-name="uni1EF5" unicode="&#x1ef5;" horiz-adv-x="500" 
d="M117 -182q-25 0 -41.5 2t-28.5 6v57h35q43 0 79 24.5t55 92.5l-203 526h93l98 -263l18 -50l19 -54.5l14.5 -43.5l5.5 -17h5l4.5 16l12 41.5l16 54l16.5 53.5l84 263h88l-173 -499q-20 -57 -45.5 -104.5t-62 -76t-89.5 -28.5zM316 -173v95h87v-95h-87z" />
    <glyph glyph-name="ygrave" unicode="&#x1ef3;" horiz-adv-x="500" 
d="M117 -182q-25 0 -41.5 2t-28.5 6v57h35q43 0 79 24.5t55 92.5l-203 526h93l98 -263l18 -50l19 -54.5l14.5 -43.5l5.5 -17h5l4.5 16l12 41.5l16 54l16.5 53.5l84 263h88l-173 -499q-20 -57 -45.5 -104.5t-62 -76t-89.5 -28.5zM212 591l-108 129l1 3h96l86 -132h-75z" />
    <glyph glyph-name="uni1EF7" unicode="&#x1ef7;" horiz-adv-x="500" 
d="M117 -182q-25 0 -41.5 2t-28.5 6v57h35q43 0 79 24.5t55 92.5l-203 526h93l98 -263l18 -50l19 -54.5l14.5 -43.5l5.5 -17h5l4.5 16l12 41.5l16 54l16.5 53.5l84 263h88l-173 -499q-20 -57 -45.5 -104.5t-62 -76t-89.5 -28.5zM222 591v61h13q16 0 22.5 4.5t6.5 13.5
q0 10 -8 14t-23 4h-60v39q16 4 36 6t36 2q19 0 40.5 -5t36 -17.5t14.5 -37.5q0 -27 -18 -40.5t-40 -15.5v-28h-56z" />
    <glyph glyph-name="uni0233" unicode="&#x233;" horiz-adv-x="500" 
d="M117 -182q-25 0 -41.5 2t-28.5 6v57h35q43 0 79 24.5t55 92.5l-203 526h93l98 -263l18 -50l19 -54.5l14.5 -43.5l5.5 -17h5l4.5 16l12 41.5l16 54l16.5 53.5l84 263h88l-173 -499q-20 -57 -45.5 -104.5t-62 -76t-89.5 -28.5zM97 627v72h305v-72h-305z" />
    <glyph glyph-name="uni1EF9" unicode="&#x1ef9;" horiz-adv-x="500" 
d="M117 -182q-25 0 -41.5 2t-28.5 6v57h35q43 0 79 24.5t55 92.5l-203 526h93l98 -263l18 -50l19 -54.5l14.5 -43.5l5.5 -17h5l4.5 16l12 41.5l16 54l16.5 53.5l84 263h88l-173 -499q-20 -57 -45.5 -104.5t-62 -76t-89.5 -28.5zM86 619q0 42 20 73t65 31q28 0 52.5 -7.5
t48 -15.5t48.5 -8q11 0 19 7t9 24h65q0 -42 -20 -73t-65 -31q-28 0 -52.5 7.5t-48 15.5t-48.5 8q-11 0 -18.5 -7t-9.5 -24h-65z" />
    <glyph glyph-name="z" unicode="z" horiz-adv-x="500" 
d="M24 0v47l305 406h-284v73h413v-46l-306 -407h323v-73h-451z" />
    <glyph glyph-name="zacute" unicode="&#x17a;" horiz-adv-x="500" 
d="M24 0v47l305 406h-284v73h413v-46l-306 -407h323v-73h-451zM212 591l86 132h96l1 -3l-108 -129h-75z" />
    <glyph glyph-name="zcaron" unicode="&#x17e;" horiz-adv-x="500" 
d="M24 0v47l305 406h-284v73h413v-46l-306 -407h323v-73h-451zM208 588l-106 135h90l58 -79l57 79h90l-105 -135h-84z" />
    <glyph glyph-name="zdotaccent" unicode="&#x17c;" horiz-adv-x="500" 
d="M24 0v47l305 406h-284v73h413v-46l-306 -407h323v-73h-451zM206 628v95h87v-95h-87z" />
    <glyph glyph-name="uni1E93" unicode="&#x1e93;" horiz-adv-x="500" 
d="M24 0v47l305 406h-284v73h413v-46l-306 -407h323v-73h-451zM206 -173v95h87v-95h-87z" />
    <glyph glyph-name="iacute_j.loclNLD" horiz-adv-x="500" 
d="M95 0v526h88v-526h-88zM85 591l86 132h96l1 -3l-108 -129h-75zM323 -182q-18 0 -37 4t-32 8v57h44q47 0 47 48v591h88v-587q0 -30 -10 -57.5t-33.5 -45.5t-66.5 -18zM351 591l86 132h96l1 -3l-108 -129h-75z" />
    <glyph glyph-name="g_tilde.loclGUA" 
d="M161 -182q-32 0 -65 11t-55.5 38.5t-22.5 77.5q0 37 15 60t35 35t35 17q-22 12 -38.5 32.5t-16.5 48.5q0 30 16 47.5t37 27t35 12.5q-32 23 -51.5 58t-19.5 78q0 85 57.5 131t155.5 46q55 0 100 -18q39 19 55.5 42.5t20.5 48.5h84q0 -47 -28 -81t-74 -45q26 -23 41 -54.5
t15 -69.5q0 -85 -58 -131t-156 -46h-84q-28 0 -42 -12.5t-14 -30.5t14 -30.5t42 -12.5h211q43 0 73 -18t45.5 -47t15.5 -63q0 -36 -16.5 -71t-52.5 -58t-97 -23h-212zM169 -111h206q33 0 55 18t22 48q0 31 -18 48t-46 17h-219q-29 0 -46 -17t-17 -48q0 -30 17 -48t46 -18z
M279 252q63 0 94.5 28.5t31.5 80.5t-31.5 80.5t-94.5 28.5t-94.5 -28.5t-31.5 -80.5t31.5 -80.5t94.5 -28.5zM114 619q0 42 20 73t65 31q28 0 52.5 -7.5t48 -15.5t48.5 -8q11 0 19 7t9 24h65q0 -42 -20 -73t-65 -31q-28 0 -52.5 7.5t-48 15.5t-48.5 8q-11 0 -18.5 -7
t-9.5 -24h-65z" />
    <glyph glyph-name="y.loclGUA" 
d="M266 -182q-56 0 -101.5 16t-72 48.5t-26.5 82.5v10h86q0 -46 33.5 -65.5t77.5 -19.5q67 0 102.5 41.5t36.5 127.5v21h-8q-26 -37 -66 -54.5t-93 -17.5q-51 0 -89.5 17.5t-60 57t-21.5 104.5v339h88v-333q0 -65 27 -88.5t67 -23.5q43 0 78 20.5t56 59.5t21 94v271h88v-463
q0 -121 -55.5 -183t-167.5 -62z" />
    <glyph glyph-name="yacute.loclGUA" 
d="M266 -182q-56 0 -101.5 16t-72 48.5t-26.5 82.5v10h86q0 -46 33.5 -65.5t77.5 -19.5q67 0 102.5 41.5t36.5 127.5v21h-8q-26 -37 -66 -54.5t-93 -17.5q-51 0 -89.5 17.5t-60 57t-21.5 104.5v339h88v-333q0 -65 27 -88.5t67 -23.5q43 0 78 20.5t56 59.5t21 94v271h88v-463
q0 -121 -55.5 -183t-167.5 -62zM240 591l86 132h96l1 -3l-108 -129h-75z" />
    <glyph glyph-name="ycircumflex.loclGUA" 
d="M266 -182q-56 0 -101.5 16t-72 48.5t-26.5 82.5v10h86q0 -46 33.5 -65.5t77.5 -19.5q67 0 102.5 41.5t36.5 127.5v21h-8q-26 -37 -66 -54.5t-93 -17.5q-51 0 -89.5 17.5t-60 57t-21.5 104.5v339h88v-333q0 -65 27 -88.5t67 -23.5q43 0 78 20.5t56 59.5t21 94v271h88v-463
q0 -121 -55.5 -183t-167.5 -62zM130 588l106 135h84l105 -135h-90l-57 79l-58 -79h-90z" />
    <glyph glyph-name="ydieresis.loclGUA" 
d="M266 -182q-56 0 -101.5 16t-72 48.5t-26.5 82.5v10h86q0 -46 33.5 -65.5t77.5 -19.5q67 0 102.5 41.5t36.5 127.5v21h-8q-26 -37 -66 -54.5t-93 -17.5q-51 0 -89.5 17.5t-60 57t-21.5 104.5v339h88v-333q0 -65 27 -88.5t67 -23.5q43 0 78 20.5t56 59.5t21 94v271h88v-463
q0 -121 -55.5 -183t-167.5 -62zM328 628v95h87v-95h-87zM141 628v95h87v-95h-87z" />
    <glyph glyph-name="ygrave.loclGUA" 
d="M266 -182q-56 0 -101.5 16t-72 48.5t-26.5 82.5v10h86q0 -46 33.5 -65.5t77.5 -19.5q67 0 102.5 41.5t36.5 127.5v21h-8q-26 -37 -66 -54.5t-93 -17.5q-51 0 -89.5 17.5t-60 57t-21.5 104.5v339h88v-333q0 -65 27 -88.5t67 -23.5q43 0 78 20.5t56 59.5t21 94v271h88v-463
q0 -121 -55.5 -183t-167.5 -62zM240 591l-108 129l1 3h96l86 -132h-75z" />
    <glyph glyph-name="ymacron.loclGUA" 
d="M266 -182q-56 0 -101.5 16t-72 48.5t-26.5 82.5v10h86q0 -46 33.5 -65.5t77.5 -19.5q67 0 102.5 41.5t36.5 127.5v21h-8q-26 -37 -66 -54.5t-93 -17.5q-51 0 -89.5 17.5t-60 57t-21.5 104.5v339h88v-333q0 -65 27 -88.5t67 -23.5q43 0 78 20.5t56 59.5t21 94v271h88v-463
q0 -121 -55.5 -183t-167.5 -62zM125 627v72h305v-72h-305z" />
    <glyph glyph-name="ytilde.loclGUA" 
d="M266 -182q-56 0 -101.5 16t-72 48.5t-26.5 82.5v10h86q0 -46 33.5 -65.5t77.5 -19.5q67 0 102.5 41.5t36.5 127.5v21h-8q-26 -37 -66 -54.5t-93 -17.5q-51 0 -89.5 17.5t-60 57t-21.5 104.5v339h88v-333q0 -65 27 -88.5t67 -23.5q43 0 78 20.5t56 59.5t21 94v271h88v-463
q0 -121 -55.5 -183t-167.5 -62zM114 619q0 42 20 73t65 31q28 0 52.5 -7.5t48 -15.5t48.5 -8q11 0 19 7t9 24h65q0 -42 -20 -73t-65 -31q-28 0 -52.5 7.5t-48 15.5t-48.5 8q-11 0 -18.5 -7t-9.5 -24h-65z" />
    <glyph glyph-name="cacute.loclPLK" horiz-adv-x="500" 
d="M267 -12q-120 0 -176 66.5t-56 208.5t56.5 208.5t175.5 66.5q110 0 159 -53t49 -154h-90q0 68 -24.5 101t-93.5 33q-72 0 -106.5 -46.5t-34.5 -155.5v-4q0 -107 33.5 -152.5t107.5 -45.5q67 0 95 34.5t28 99.5h85q0 -55 -20.5 -102t-66.5 -76t-121 -29zM212 591l26 132
h96l1 -3l-48 -129h-75z" />
    <glyph glyph-name="nacute.loclPLK" 
d="M67 0v526h67l10 -71h7q31 44 77 63.5t100 19.5q50 0 87 -17.5t57 -57t20 -104.5v-359h-88v353q0 67 -30 89.5t-79 22.5q-37 0 -69 -18.5t-51.5 -52.5t-19.5 -83v-311h-88zM240 591l26 132h96l1 -3l-48 -129h-75z" />
    <glyph glyph-name="oacute.loclPLK" 
d="M278 -12q-119 0 -181 66.5t-62 208.5t62 208.5t181 66.5t181 -66.5t62 -208.5t-62 -208.5t-181 -66.5zM278 61q80 0 116 46.5t36 151.5v8q0 105 -36 151.5t-116 46.5t-116 -46.5t-36 -151.5v-8q0 -105 36 -151.5t116 -46.5zM240 591l26 132h96l1 -3l-48 -129h-75z" />
    <glyph glyph-name="sacute.loclPLK" horiz-adv-x="500" 
d="M247 -12q-77 0 -124.5 22t-69.5 57.5t-22 74.5q0 10 0.5 15t0.5 7h87v-10q0 -33 18 -53.5t48 -30.5t67 -10q32 0 59 9t43 26t16 43q0 34 -23.5 53t-60.5 30t-78 21.5t-78 26.5t-60.5 44t-23.5 75q0 46 26 80t73 52t110 18t106 -20t65 -52.5t22 -71.5q0 -5 -0.5 -11.5
t-0.5 -7.5h-86v9q0 31 -25 56t-91 25q-45 0 -68 -11.5t-31.5 -28.5t-8.5 -31q0 -29 23.5 -45t60.5 -26t78 -20t78 -27t60.5 -46.5t23.5 -79.5q0 -56 -28 -92t-76.5 -53t-109.5 -17zM212 591l26 132h96l1 -3l-48 -129h-75z" />
    <glyph glyph-name="zacute.loclPLK" horiz-adv-x="500" 
d="M24 0v47l305 406h-284v73h413v-46l-306 -407h323v-73h-451zM212 591l26 132h96l1 -3l-48 -129h-75z" />
    <glyph glyph-name="ordfeminine" unicode="&#xaa;" horiz-adv-x="370" 
d="M142 362q-22 0 -50 7t-48.5 29t-20.5 65q0 50 29.5 76t81.5 35.5t118 9.5v43q0 25 -14.5 40.5t-56.5 15.5q-41 0 -56.5 -17.5t-15.5 -37.5v-10h-69v8v9q0 49 40.5 74.5t103.5 25.5q69 0 103 -26.5t34 -73.5v-198q0 -12 7.5 -17t14.5 -5h28v-41q-6 -4 -18.5 -6.5
t-28.5 -2.5q-31 0 -50.5 17t-19.5 44v3v3l31 -25h-30q-19 -21 -48.5 -33t-64.5 -12zM158 415q22 0 43.5 9.5t36 28.5t14.5 47v31q-69 0 -113 -12.5t-44 -52.5q0 -28 16 -39.5t47 -11.5z" />
    <glyph glyph-name="ordmasculine" unicode="&#xba;" horiz-adv-x="365" 
d="M183 361q-79 0 -120 45.5t-41 141.5t41 141.5t120 45.5t119.5 -45.5t40.5 -141.5t-40.5 -141.5t-119.5 -45.5zM183 414q47 0 68 32t21 102v-5q0 72 -21 105.5t-68 33.5t-67.5 -31t-20.5 -98v-5q0 -70 20.5 -102t67.5 -32z" />
    <glyph glyph-name="uni207F" unicode="&#x207f;" horiz-adv-x="365" 
d="M39 370v357h55l7 -48h5q20 30 48 43t62 13q51 0 81 -27.5t30 -93.5v-244h-69v239q0 43 -18 58.5t-46 15.5q-34 0 -60 -27.5t-26 -74.5v-211h-69z" />
    <glyph glyph-name="Delta" unicode="&#x394;" horiz-adv-x="667" 
d="M7 0l266 686h121l266 -686h-653zM138 83h387q-5 15 -11 30t-11 30t-11 30l-116 310q-5 15 -10.5 29.5l-11 28.5l-11 28.5t-10.5 29.5h-5q-5 -15 -10.5 -29.5l-11 -28.5l-11 -28.5t-10.5 -29.5l-115 -312l-16 -44z" />
    <glyph glyph-name="Omega" unicode="&#x3a9;" horiz-adv-x="748" 
d="M37 0v84h40q17 0 40 -1.5t51 -2.5q-58 44 -89.5 109.5t-31.5 153.5q0 119 39.5 198t112.5 118t175 39t175 -39t112.5 -118t39.5 -198q0 -88 -32.5 -153.5t-90.5 -109.5q22 1 44.5 2.5t48.5 1.5h40v-84h-308v71q62 13 107 39.5t69 81.5t24 151v-5q0 102 -28 163.5
t-79.5 88.5t-121.5 27t-121.5 -26t-79.5 -85.5t-28 -157.5v-5q0 -96 24 -151t68.5 -81.5t106.5 -39.5v-71h-307z" />
    <glyph glyph-name="mu" unicode="&#x3bc;" horiz-adv-x="576" 
d="M77 -173v699h88v-353q0 -67 30 -89.5t79 -22.5q37 0 69 18.5t51.5 52.5t19.5 83v311h88v-526h-67l-10 71h-7q-28 -43 -69.5 -63t-90.5 -20q-27 0 -50.5 6t-42.5 18v-31.5v-31.5v-122h-88z" />
    <glyph glyph-name="pi" unicode="&#x3c0;" horiz-adv-x="690" 
d="M92 0q16 40 30 97t25 121t17.5 125.5t7.5 109.5q-52 0 -83 -3t-50 -10l-15 56q21 14 64.5 22t115.5 8h455l-10 -73h-97v-297q0 -62 4 -98t12 -58h-86q-8 12 -13.5 49.5t-5.5 97.5v306h-201q-3 -48 -11 -112t-18.5 -129.5t-24 -122t-28.5 -89.5h-88z" />
    <glyph glyph-name="zero" unicode="0" 
d="M278 -12q-57 0 -101.5 16.5t-75.5 56.5t-47.5 108.5t-16.5 173.5t16.5 173.5t47.5 108.5t75.5 56.5t101.5 16.5q56 0 100.5 -16.5t76 -56.5t48 -108.5t16.5 -173.5t-16.5 -173.5t-48 -108.5t-76 -56.5t-100.5 -16.5zM278 61q61 0 93.5 32t44.5 93t12 147v10q0 89 -12 152
t-44.5 96.5t-93.5 33.5t-93.5 -32t-44.5 -93t-12 -147v-10q0 -89 12 -152t44.5 -96.5t93.5 -33.5z" />
    <glyph glyph-name="one" unicode="1" 
d="M94 0v73h177v488h-178v52q30 3 71 13t83.5 25.5t77.5 34.5h34v-613h164v-73h-429z" />
    <glyph glyph-name="two" unicode="2" 
d="M39 0v29q0 54 26 97.5t67.5 80.5t88.5 70t89.5 66.5t70.5 70.5q16 21 25 43.5t9 48.5q0 25 -10.5 52t-39 45.5t-82.5 18.5q-53 0 -85 -18t-46 -48t-14 -65v-41h-88l-1.5 11t-1.5 29q0 74 33.5 119.5t88.5 67t119 21.5q37 0 69.5 -7.5t60 -22.5t47 -38.5t30.5 -56.5
t11 -75q0 -52 -25.5 -95.5t-66.5 -81t-87.5 -71l-89.5 -66t-72 -65.5q-8 -9 -13.5 -18t-9.5 -17h368v-84h-471z" />
    <glyph glyph-name="three" unicode="3" 
d="M281 -12q-119 0 -182.5 56t-63.5 150v8h89v-11q0 -64 39 -97t110 -33q70 0 113 30.5t43 98.5q0 48 -23 74.5t-59.5 37t-77.5 10.5h-72v73h75q38 0 70 13t52 39.5t20 67.5q0 43 -19 69t-50 38.5t-67 12.5q-60 0 -99.5 -30t-39.5 -94v-9h-89v18q0 57 29 99.5t80 65.5
t118 23q102 0 165 -48t63 -140q0 -61 -32.5 -96.5t-81.5 -57.5v-4q55 -16 92 -58t37 -110q0 -61 -30.5 -105t-84.5 -67.5t-124 -23.5z" />
    <glyph glyph-name="four" unicode="4" 
d="M344 0v169h-319v74q62 107 108.5 218t75.5 237h95q-16 -69 -42 -140.5t-55 -135.5t-55 -111.5t-41 -68.5h233v225l15 41.5t13 40.5l13 47h47v-354h91v-73h-91v-169h-88z" />
    <glyph glyph-name="five" unicode="5" 
d="M276 -12q-72 0 -126 27t-84 77.5t-30 120.5h90q0 -71 43 -112t107 -41t105.5 40.5t41.5 123.5q0 71 -38.5 109.5t-100.5 38.5q-46 0 -84 -22t-59 -57l-81 13l28 380h390v-84h-317l-16 -209q23 19 61 36t96 17q59 0 107 -24t76.5 -73t28.5 -125q0 -113 -64 -174.5
t-174 -61.5z" />
    <glyph glyph-name="six" unicode="6" 
d="M290 -12q-78 0 -134.5 31t-87 104t-30.5 200q0 140 28.5 222t84 117.5t136.5 35.5q73 0 119 -28t67.5 -76t21.5 -109h-90q0 67 -30.5 103.5t-92.5 36.5q-61 0 -94 -31.5t-46 -89.5t-14 -138q20 24 47 41t58.5 25.5t66.5 8.5q74 0 122.5 -30.5t72 -81.5t23.5 -115
q0 -70 -29.5 -120.5t-81 -78t-117.5 -27.5zM283 61q49 0 81 21.5t47.5 57t15.5 78.5q0 63 -35 107t-109 44t-109.5 -45.5t-35.5 -109.5q0 -42 15.5 -77t48 -55.5t81.5 -20.5z" />
    <glyph glyph-name="seven" unicode="7" 
d="M144 0q0 89 23 173.5t60.5 162t81 145t85.5 121.5h-357v84h486v-53q-47 -54 -96.5 -121.5t-91.5 -143.5t-68 -157t-26 -160v-23.5t1 -27.5h-98z" />
    <glyph glyph-name="eight" unicode="8" 
d="M277 -12q-85 0 -137.5 27t-77 72.5t-24.5 100.5q0 56 26.5 98.5t86.5 65.5q-47 25 -71 65.5t-24 89.5q0 53 25 96t74 69t122 26t122 -26t74 -69t25 -96q0 -49 -24 -89.5t-71 -65.5q61 -23 87.5 -65.5t26.5 -98.5q0 -55 -24.5 -100.5t-77.5 -72.5t-138 -27zM277 61
q73 0 111 34.5t38 92.5t-38 92t-111 34t-110.5 -34t-37.5 -92t37.5 -92.5t110.5 -34.5zM277 387q61 0 97 31.5t36 87.5t-36 87.5t-97 31.5t-97 -31.5t-36 -87.5t36 -87.5t97 -31.5z" />
    <glyph glyph-name="nine" unicode="9" 
d="M269 -12q-73 0 -119 28t-67.5 76t-21.5 109h90q0 -67 30.5 -103.5t92.5 -36.5q61 0 94 31.5t46 89.5t14 138q-20 -24 -45.5 -41t-56.5 -25.5t-65 -8.5q-75 0 -124.5 30.5t-74 81.5t-24.5 115q0 70 29.5 120.5t81 78t117.5 27.5q78 0 134.5 -31t87 -104t30.5 -200
q0 -140 -28.5 -222t-84 -117.5t-136.5 -35.5zM273 317q74 0 109.5 45.5t35.5 109.5q0 42 -15.5 77t-48 55.5t-81.5 20.5t-81 -21.5t-47.5 -57t-15.5 -78.5q0 -63 35 -107t109 -44z" />
    <glyph glyph-name="uni00B9" unicode="&#xb9;" horiz-adv-x="333" 
d="M51 328v56h88v225h-88v40q25 3 60 13t61 24h30v-302h80v-56h-231z" />
    <glyph glyph-name="uni00B2" unicode="&#xb2;" horiz-adv-x="333" 
d="M41 335v24q0 31 15.5 55t39 44t48.5 38l36.5 28t29.5 29q8 10 12.5 20.5t4.5 21.5q0 15 -10.5 31.5t-44.5 16.5q-35 0 -49 -16.5t-14 -39.5v-25h-62l-1 8t-1 16q0 60 38.5 86.5t90.5 26.5q25 0 46 -6t37 -18.5t25 -32.5t9 -48q0 -34 -16.5 -59.5t-41.5 -46t-51 -39.5
l-37.5 -29t-25.5 -29h174v-56h-252z" />
    <glyph glyph-name="uni00B3" unicode="&#xb3;" horiz-adv-x="333" 
d="M169 328q-63 0 -97 30t-34 82v13h63v-15q0 -55 64 -55q30 0 48.5 13t18.5 42t-21 39.5t-48 10.5h-30v56h32q24 0 42.5 12t18.5 37q0 27 -17.5 38.5t-40.5 11.5q-26 0 -43 -12.5t-17 -39.5v-14h-63v19q0 46 34.5 74t87.5 28q55 0 88.5 -26.5t33.5 -75.5q0 -27 -14.5 -45
t-36.5 -30v-2q27 -12 43 -33t16 -52q0 -49 -36 -77.5t-92 -28.5z" />
    <glyph glyph-name="fraction" unicode="&#x2044;" horiz-adv-x="167" 
d="M-226 -12l546 710h72l-546 -710h-72z" />
    <glyph glyph-name="onehalf" unicode="&#xbd;" horiz-adv-x="834" 
d="M108 -12l546 710h72l-546 -710h-72zM51 328v56h88v225h-88v40q25 3 60 13t61 24h30v-302h80v-56h-231zM528 0v24q0 31 15.5 55t39 43.5l48.5 38.5l40.5 31.5t30.5 32.5q6 8 9 17t3 18q0 15 -10.5 31.5t-44.5 16.5q-35 0 -49 -17t-14 -39v-25h-62q-1 5 -1.5 12t-0.5 12
q0 60 38.5 86.5t90.5 26.5q25 0 46 -6t37 -18.5t25 -32.5t9 -48q0 -31 -16.5 -57t-41.5 -47.5t-51 -40.5l-37.5 -29t-25.5 -29h174v-56h-252z" />
    <glyph glyph-name="onethird" unicode="&#x2153;" horiz-adv-x="834" 
d="M108 -12l546 710h72l-546 -710h-72zM51 328v56h88v225h-88v40q25 3 60 13t61 24h30v-302h80v-56h-231zM664 -12q-63 0 -97 30t-34 82v13h63v-15q0 -55 64 -55q30 0 48.5 13t18.5 42t-21 39.5t-48 10.5h-30v56h32q24 0 42.5 12t18.5 37q0 27 -17.5 38.5t-40.5 11.5
q-25 0 -42.5 -12.5t-17.5 -39.5v-14h-63v19q0 46 34.5 74t87.5 28q55 0 88.5 -26.5t33.5 -75.5q0 -27 -15 -45t-37 -30v-2q28 -12 44 -33t16 -52q0 -49 -36 -77.5t-92 -28.5z" />
    <glyph glyph-name="twothirds" unicode="&#x2154;" horiz-adv-x="834" 
d="M108 -12l546 710h72l-546 -710h-72zM39 334v24q0 31 15.5 55t39 43.5l48.5 38.5l32 24t27 25q11 11 17.5 23.5t6.5 26.5q0 15 -10.5 31.5t-44.5 16.5q-35 0 -49 -17t-14 -39v-25h-62l-1 8t-1 16q0 60 38.5 86.5t90.5 26.5q25 0 46 -6t37 -18.5t25 -32.5t9 -48
q0 -31 -16.5 -57t-41.5 -47.5t-51 -40.5l-37.5 -29t-25.5 -29h174v-56h-252zM664 -12q-63 0 -97 30t-34 82v13h63v-15q0 -55 64 -55q30 0 48.5 13t18.5 42t-21 39.5t-48 10.5h-30v56h32q24 0 42.5 12t18.5 37q0 27 -17.5 38.5t-40.5 11.5q-25 0 -42.5 -12.5t-17.5 -39.5v-14
h-63v19q0 46 34.5 74t87.5 28q55 0 88.5 -26.5t33.5 -75.5q0 -27 -15 -45t-37 -30v-2q28 -12 44 -33t16 -52q0 -49 -36 -77.5t-92 -28.5z" />
    <glyph glyph-name="onequarter" unicode="&#xbc;" horiz-adv-x="834" 
d="M108 -12l546 710h72l-546 -710h-72zM51 328v56h88v225h-88v40q25 3 60 13t61 24h30v-302h80v-56h-231zM669 0v82h-158v51q29 53 50.5 109.5t35.5 121.5h66q-9 -43 -25.5 -87t-34 -80.5t-29.5 -58.5h95v96q6 17 11 35t11 45h41v-176h45v-56h-45v-82h-63z" />
    <glyph glyph-name="threequarters" unicode="&#xbe;" horiz-adv-x="834" 
d="M108 -12l546 710h72l-546 -710h-72zM669 0v82h-158v51q29 53 50.5 109.5t35.5 121.5h66q-9 -43 -25.5 -87t-34 -80.5t-29.5 -58.5h95v96q6 17 11 35t11 45h41v-176h45v-56h-45v-82h-63zM175 328q-63 0 -97 30t-34 82v13h63v-15q0 -55 64 -55q30 0 48.5 13t18.5 42
t-21 39.5t-48 10.5h-30v56h32q24 0 42.5 12t18.5 37q0 27 -17.5 38.5t-40.5 11.5q-26 0 -43 -12.5t-17 -39.5v-14h-63v19q0 46 34.5 74t87.5 28q55 0 88.5 -26.5t33.5 -75.5q0 -27 -14.5 -45t-37.5 -30v-2q28 -12 44 -33t16 -52q0 -49 -36 -77.5t-92 -28.5z" />
    <glyph glyph-name="oneeighth" unicode="&#x215b;" horiz-adv-x="834" 
d="M108 -12l546 710h72l-546 -710h-72zM51 328v56h88v225h-88v40q25 3 60 13t61 24h30v-302h80v-56h-231zM662 43q64 0 64 54q0 52 -64 52t-64 -52q0 -54 64 -54zM662 -12q-68 0 -97.5 31.5t-29.5 77.5q0 25 12.5 47t40.5 35q-45 29 -45 75q0 44 30 74t89 30t89 -30t30 -74
q0 -21 -12.5 -41.5t-31.5 -33.5q25 -13 39 -35t14 -47q0 -46 -30 -77.5t-98 -31.5zM662 205q26 0 41 13t15 36t-15 36t-41 13t-41 -13t-15 -36t15 -36t41 -13z" />
    <glyph glyph-name="threeeighths" unicode="&#x215c;" horiz-adv-x="834" 
d="M108 -12l546 710h72l-546 -710h-72zM662 43q64 0 64 54q0 52 -64 52t-64 -52q0 -54 64 -54zM662 -12q-68 0 -97.5 31.5t-29.5 77.5q0 25 12.5 47t40.5 35q-45 29 -45 75q0 44 30 74t89 30t89 -30t30 -74q0 -21 -12.5 -41.5t-31.5 -33.5q25 -13 39 -35t14 -47
q0 -46 -30 -77.5t-98 -31.5zM662 205q26 0 41 13t15 36t-15 36t-41 13t-41 -13t-15 -36t15 -36t41 -13zM169 328q-63 0 -97 30t-34 82v13h63v-15q0 -55 64 -55q30 0 48.5 13t18.5 42t-21 39.5t-48 10.5h-30v56h32q24 0 42.5 12t18.5 37q0 27 -17.5 38.5t-40.5 11.5
q-26 0 -43 -12.5t-17 -39.5v-14h-63v19q0 46 34.5 74t87.5 28q55 0 88.5 -26.5t33.5 -75.5q0 -27 -14.5 -45t-37.5 -30v-2q28 -12 44 -33t16 -52q0 -49 -36 -77.5t-92 -28.5z" />
    <glyph glyph-name="fiveeighths" unicode="&#x215d;" horiz-adv-x="834" 
d="M108 -12l546 710h72l-546 -710h-72zM169 322q-59 0 -94 32t-35 88h63q0 -31 19 -48t47 -17t45.5 17.5t17.5 53.5q0 34 -19.5 48.5t-49.5 14.5q-17 0 -30.5 -4.5t-26.5 -15.5l-54 9l15 186h211v-56h-158l-6 -79q12 7 29 11.5t39 4.5q47 0 80.5 -29t33.5 -90q0 -60 -34 -93
t-93 -33zM662 43q64 0 64 54q0 52 -64 52t-64 -52q0 -54 64 -54zM662 -12q-68 0 -97.5 31.5t-29.5 77.5q0 25 12.5 47t40.5 35q-45 29 -45 75q0 44 30 74t89 30t89 -30t30 -74q0 -21 -12.5 -41.5t-31.5 -33.5q25 -13 39 -35t14 -47q0 -46 -30 -77.5t-98 -31.5zM662 205
q26 0 41 13t15 36t-15 36t-41 13t-41 -13t-15 -36t15 -36t41 -13z" />
    <glyph glyph-name="seveneighths" unicode="&#x215e;" horiz-adv-x="834" 
d="M91 -12l546 710h72l-546 -710h-72zM117 328q0 62 19 117t48.5 101.5t58.5 83.5h-179v56h260v-42q-30 -35 -62.5 -81t-54.5 -97.5t-22 -102.5v-14t1 -21h-69zM645 43q64 0 64 54q0 52 -64 52t-64 -52q0 -54 64 -54zM645 -12q-67 0 -97 31.5t-30 77.5q0 25 12 47t41 35
q-45 29 -45 75q0 44 30 74t89 30t89 -30t30 -74q0 -21 -12 -41.5t-32 -33.5q26 -13 39.5 -35t13.5 -47q0 -46 -30.5 -77.5t-97.5 -31.5zM645 205q26 0 41 13t15 36t-15 36t-41 13t-41 -13t-15 -36t15.5 -36t40.5 -13z" />
    <glyph glyph-name="asterisk" unicode="*" horiz-adv-x="389" 
d="M151 362l17 119l-96 -74l-41 71l112 46l-112 47l41 70l96 -74l-17 119h83l-17 -118l96 73l41 -70l-112 -47l112 -46l-41 -71l-96 74l17 -119h-83z" />
    <glyph glyph-name="backslash" unicode="\" horiz-adv-x="278" 
d="M206 -49l-205 784h70l206 -784h-71z" />
    <glyph glyph-name="periodcentered" unicode="&#xb7;" horiz-adv-x="333" 
d="M116 303v108h100v-108h-100z" />
    <glyph glyph-name="bullet" unicode="&#x2022;" horiz-adv-x="350" 
d="M175 220q-34 0 -62 16.5t-44.5 44.5t-16.5 62t16.5 62t44.5 45t62 17t62 -17t45 -45t17 -62t-17 -62t-45 -44.5t-62 -16.5z" />
    <glyph glyph-name="colon" unicode=":" horiz-adv-x="278" 
d="M90 418v108h100v-108h-100zM90 0v108h100v-108h-100z" />
    <glyph glyph-name="comma" unicode="," horiz-adv-x="278" 
d="M89 -134l40 134h-40v108h100v-99l-48 -143h-52z" />
    <glyph glyph-name="ellipsis" unicode="&#x2026;" horiz-adv-x="1000" 
d="M782 0v108h100v-108h-100zM117 0v108h100v-108h-100zM450 0v108h100v-108h-100z" />
    <glyph glyph-name="exclam" unicode="!" horiz-adv-x="278" 
d="M109 171q-3 54 -6 117l-6 126t-6 118.5t-5 96t-3 57.5h114q-1 -17 -3 -57.5t-5 -96t-6 -118.5l-6 -126t-6 -117h-62zM90 0v108h100v-108h-100z" />
    <glyph glyph-name="exclamdbl" unicode="&#x203c;" horiz-adv-x="500" 
d="M329 171q-3 54 -6 117l-6 126t-6 118.5t-5 96t-3 57.5h114q-1 -17 -3 -57.5t-5 -96t-6 -118.5l-6 -126t-6 -117h-62zM310 0v108h100v-108h-100zM109 171q-3 54 -6 117l-6 126t-6 118.5t-5 96t-3 57.5h114q-1 -17 -3 -57.5t-5 -96t-6 -118.5l-6 -126t-6 -117h-62zM90 0
v108h100v-108h-100z" />
    <glyph glyph-name="exclamdown" unicode="&#xa1;" horiz-adv-x="333" 
d="M110 -160q1 17 3 57.5t5 96t6 118.5l6 126t6 117h62q3 -54 6 -117l6 -126t6 -118.5t5 -96t3 -57.5h-114zM117 418v108h100v-108h-100z" />
    <glyph glyph-name="numbersign" unicode="#" 
d="M48 -12l42 191h-80v76h96l34 155h-85v76h102l47 212h77l-47 -212h153l47 212h77l-47 -212h79v-76h-96l-34 -155h85v-76h-101l-42 -191h-77l42 191h-153l-42 -191h-77zM183 255h153l34 155h-153z" />
    <glyph glyph-name="uni203E" unicode="&#x203e;" horiz-adv-x="333" 
d="M-15 790v68h364v-68h-364z" />
    <glyph glyph-name="period" unicode="." horiz-adv-x="278" 
d="M91 0v108h100v-108h-100z" />
    <glyph glyph-name="question" unicode="?" 
d="M232 180v56q0 40 17.5 68t43.5 50l52 43t43.5 47.5t17.5 64.5q0 13 -4 32t-16.5 37.5t-37 30.5t-64.5 12q-48 0 -76 -14.5t-42 -36t-18.5 -44.5t-4.5 -40q0 -12 0.5 -19.5l0.5 -7.5h-89l-1.5 13t-1.5 22q0 56 26 102.5t79 74t134 27.5q60 0 106.5 -21.5t73 -61.5
t26.5 -95q0 -60 -18 -97.5t-44.5 -61.5t-53 -43.5t-44.5 -41t-18 -55.5v-41h-87zM225 0v108h100v-108h-100z" />
    <glyph glyph-name="questiondown" unicode="&#xbf;" horiz-adv-x="611" 
d="M292 -172q-60 0 -106.5 21.5t-73 61.5t-26.5 95q0 60 18 97.5t44.5 61.5t53 43.5t44.5 41t18 55.5v41h87v-56q0 -40 -17.5 -68t-43.5 -50l-52 -43t-43.5 -47.5t-17.5 -64.5q0 -13 4 -32t16.5 -37.5t37 -30.5t64.5 -12q47 0 75 14.5t42 36t18.5 44.5t4.5 40
q0 12 -0.5 19.5l-0.5 7.5h89l1.5 -13t1.5 -22q0 -56 -26 -102.5t-78.5 -74t-133.5 -27.5zM258 418v108h100v-108h-100z" />
    <glyph glyph-name="quotedbl" unicode="&#x22;" horiz-adv-x="355" 
d="M234 408l-26 132v146h100v-146l-26 -132h-48zM72 408l-26 132v146h100v-146l-26 -132h-48z" />
    <glyph glyph-name="quotesingle" unicode="'" horiz-adv-x="191" 
d="M72 408l-26 132v146h100v-146l-26 -132h-48z" />
    <glyph glyph-name="semicolon" unicode=";" horiz-adv-x="278" 
d="M89 -134l40 134h-40v108h100v-99l-48 -143h-52zM89 418v108h100v-108h-100z" />
    <glyph glyph-name="slash" unicode="/" horiz-adv-x="278" 
d="M1 -49l206 784h70l-205 -784h-71z" />
    <glyph glyph-name="underscore" unicode="_" 
d="M0 -124v53h556v-53h-556z" />
    <glyph glyph-name="underscoredbl" unicode="&#x2017;" horiz-adv-x="552" 
d="M0 -124v53h551v-53h-551zM0 -217v53h551v-53h-551z" />
    <glyph glyph-name="braceleft" unicode="{" horiz-adv-x="334" 
d="M292 -159q-45 0 -83.5 10.5t-62 42.5t-23.5 95v197q0 22 -12.5 35.5t-31.5 19t-38 5.5v84q19 0 38 5.5t31.5 19t12.5 35.5v197q0 63 23.5 95t62 42.5t83.5 10.5v-57q-20 0 -40.5 -5.5t-35 -21t-14.5 -44.5q0 -13 -1 -42.5t-2.5 -63.5t-2.5 -62t-1 -38q-2 -51 -21.5 -79.5
t-67.5 -28.5v-10q48 0 67.5 -28.5t21.5 -79.5q0 -10 1 -38t2.5 -62t2.5 -63.5t1 -42.5q0 -29 14.5 -44.5t35 -21t40.5 -5.5v-57z" />
    <glyph glyph-name="braceright" unicode="}" horiz-adv-x="334" 
d="M42 -159v57q20 0 40.5 5.5t35 21t14.5 44.5q0 13 1 42.5t2.5 63.5t2.5 62t1 38q2 51 21.5 79.5t67.5 28.5v10q-48 0 -67.5 28.5t-21.5 79.5q0 10 -1 38t-2.5 62t-2.5 63.5t-1 42.5q0 29 -14.5 44.5t-35 21t-40.5 5.5v57q44 0 83 -10.5t62.5 -42.5t23.5 -95v-197
q0 -22 12.5 -35.5t31.5 -19t38 -5.5v-84q-19 0 -38 -5.5t-31.5 -19t-12.5 -35.5v-197q0 -63 -23.5 -95t-62.5 -42.5t-83 -10.5z" />
    <glyph glyph-name="bracketleft" unicode="[" horiz-adv-x="278" 
d="M63 -161v896h188v-65h-109v-766h109v-65h-188z" />
    <glyph glyph-name="bracketright" unicode="]" horiz-adv-x="278" 
d="M27 -161v65h109v766h-109v65h188v-896h-188z" />
    <glyph glyph-name="parenleft" unicode="(" horiz-adv-x="333" 
d="M239 -157q-86 95 -132.5 212t-46.5 243q0 120 46.5 233.5t132.5 203.5h59q-41 -61 -74 -134.5t-52 -153t-19 -157.5t19 -158t52 -154t74 -135h-59z" />
    <glyph glyph-name="parenright" unicode=")" horiz-adv-x="333" 
d="M60 -157q41 63 74 138.5t52 157t19 161.5q0 76 -19 153.5t-52 150t-74 131.5h59q86 -92 132.5 -208t46.5 -239t-46.5 -238t-132.5 -207h-59z" />
    <glyph glyph-name="emdash" unicode="&#x2014;" horiz-adv-x="1000" 
d="M0 233v75h1000v-75h-1000z" />
    <glyph glyph-name="endash" unicode="&#x2013;" 
d="M0 233v75h556v-75h-556z" />
    <glyph glyph-name="afii00208" unicode="&#x2015;" horiz-adv-x="1000" 
d="M32 233v75h937v-75h-937z" />
    <glyph glyph-name="hyphen" unicode="-" horiz-adv-x="333" 
d="M32 221v98h270v-98h-270z" />
    <glyph glyph-name="uni00AD" unicode="&#xad;" horiz-adv-x="333" 
d="M32 221v98h270v-98h-270z" />
    <glyph glyph-name="guillemotleft" unicode="&#xab;" 
d="M416 126l-157 200l157 200h71l-129 -200l129 -200h-71zM221 126l-157 200l157 200h71l-129 -200l129 -200h-71z" />
    <glyph glyph-name="guillemotright" unicode="&#xbb;" 
d="M259 126l129 200l-129 200h71l157 -200l-157 -200h-71zM64 126l129 200l-129 200h71l157 -200l-157 -200h-71z" />
    <glyph glyph-name="guilsinglleft" unicode="&#x2039;" horiz-adv-x="333" 
d="M212 126l-157 200l157 200h71l-129 -200l129 -200h-71z" />
    <glyph glyph-name="guilsinglright" unicode="&#x203a;" horiz-adv-x="333" 
d="M50 126l129 200l-129 200h71l157 -200l-157 -200h-71z" />
    <glyph glyph-name="quotedblbase" unicode="&#x201e;" horiz-adv-x="333" 
d="M194 -134l40 134h-40v108h100v-99l-48 -143h-52zM42 -134l40 134h-40v108h100v-99l-48 -143h-52z" />
    <glyph glyph-name="quotedblleft" unicode="&#x201c;" horiz-adv-x="333" 
d="M191 444v99l48 143h52l-40 -134h40v-108h-100zM39 444v99l48 143h52l-40 -134h40v-108h-100z" />
    <glyph glyph-name="quotedblright" unicode="&#x201d;" horiz-adv-x="333" 
d="M194 444l40 134h-40v108h100v-99l-48 -143h-52zM42 444l40 134h-40v108h100v-99l-48 -143h-52z" />
    <glyph glyph-name="quoteleft" unicode="&#x2018;" horiz-adv-x="222" 
d="M66 444v99l48 143h52l-40 -134h40v-108h-100z" />
    <glyph glyph-name="quotereversed" unicode="&#x201b;" horiz-adv-x="222" 
d="M115 454l-48 133v99h100v-108h-40l40 -124h-52z" />
    <glyph glyph-name="quoteright" unicode="&#x2019;" horiz-adv-x="222" 
d="M56 444l40 134h-40v108h100v-99l-48 -143h-52z" />
    <glyph glyph-name="quotesinglbase" unicode="&#x201a;" horiz-adv-x="222" 
d="M61 -134l40 134h-40v108h100v-99l-48 -143h-52z" />
    <glyph glyph-name="space" unicode=" " horiz-adv-x="278" 
 />
    <glyph glyph-name="uni00A0" unicode="&#xa0;" horiz-adv-x="278" 
 />
    <glyph glyph-name="CR" unicode="&#xd;" horiz-adv-x="278" 
 />
    <glyph glyph-name="cent" unicode="&#xa2;" 
d="M258 -49v116q-108 7 -158 73.5t-50 201.5q0 134 51 201t157 73v107h51v-107q95 -7 138 -59.5t43 -146.5h-90q0 61 -19 93.5t-72 38.5v-401q53 7 74.5 41t21.5 92h85q0 -52 -18 -96.5t-58 -74t-105 -35.5v-117h-51zM258 141v402q-61 -7 -89 -53.5t-28 -143.5v-8
q0 -98 27.5 -144t89.5 -53z" />
    <glyph glyph-name="currency" unicode="&#xa4;" 
d="M74 99l-45 45l54 56q-25 32 -37.5 71t-12.5 80t12.5 81t37.5 69l-55 54l48 48l57 -56q29 25 67 38t78 13t78 -13t67 -38l57 56l48 -48l-55 -54q25 -29 37.5 -69t12.5 -81t-12.5 -80t-37.5 -71l54 -56l-45 -45l-55 58q-30 -28 -69.5 -41.5t-79.5 -13.5t-79.5 13.5
t-69.5 41.5zM278 181q46 0 82.5 23.5t58.5 62.5t22 84t-22 83t-59 61.5t-82 23.5t-82 -23.5t-59 -61.5t-22 -83t22 -84t58.5 -62.5t82.5 -23.5z" />
    <glyph glyph-name="dollar" unicode="$" 
d="M249 -49v116q-69 3 -112 26t-62.5 57t-19.5 71v11t1 11h87v-10q0 -43 30 -65.5t76 -27.5v177q-33 9 -64.5 19.5t-57.5 26.5t-41.5 41t-15.5 63q0 43 22 74.5t62 51t95 23.5v107h51v-107q56 -4 94 -24t58 -51t20 -68q0 -5 -0.5 -11t-0.5 -8h-86v9q0 26 -19 49t-66 30v-154
q33 -8 66 -19t59.5 -28t43 -44t16.5 -68q0 -52 -23.5 -86.5t-65.5 -52.5t-96 -22v-117h-51zM300 140q40 4 67 23.5t27 53.5q0 36 -27 54.5t-67 31.5v-163zM249 401v142q-37 -3 -55.5 -15t-25.5 -27t-7 -28q0 -30 25.5 -45.5t62.5 -26.5z" />
    <glyph glyph-name="Euro" unicode="&#x20ac;" 
d="M439 -12q-93 0 -163.5 30t-116 87t-62.5 138h-78v65h69q-1 8 -1 17v18v17.5t1 17.5h-69v65h78q17 81 62.5 138t116 87t163.5 30q21 0 41.5 -2.5t40.5 -7.5v-71q-17 4 -33.5 6t-34.5 2q-61 0 -114.5 -19.5t-91.5 -59.5t-54 -103h257v-65h-268q-1 -9 -1 -17.5v-17.5v-18
t1 -17h268v-65h-257q16 -63 54 -103t91.5 -59.5t114.5 -19.5q18 0 34.5 2t33.5 6v-71q-20 -4 -40.5 -7t-41.5 -3z" />
    <glyph glyph-name="florin" unicode="&#x192;" 
d="M111 -183q-20 0 -40 3.5t-32 8.5l13 61h52q48 0 59 48l99 464h-77l15 73h77l29 135q6 30 22 58t44.5 45.5t73.5 17.5q20 0 40 -3.5t32 -8.5l-13 -61h-52q-48 0 -59 -48l-29 -135h101l-15 -73h-101l-99 -464q-7 -30 -22.5 -58t-44 -45.5t-73.5 -17.5z" />
    <glyph glyph-name="franc" unicode="&#x20a3;" 
d="M79 0v686h348v-75h-258v-226h131v79h67l10 -79h6q12 33 38.5 62t75.5 29q21 0 34 -4l13 -4v-85h-37q-31 0 -58 -13t-44 -42.5t-17 -78.5v-249h-88v312h-131v-312h-90z" />
    <glyph glyph-name="uni20B2" unicode="&#x20b2;" horiz-adv-x="590" 
d="M291 68q-114 0 -177.5 68.5t-63.5 207.5q0 138 65 206t190 68q65 0 115.5 -21.5t80 -65t29.5 -109.5h-94q0 60 -36 87.5t-93 27.5q-79 0 -120 -43t-41 -148v-8q0 -104 39.5 -146.5t118.5 -42.5q44 0 73.5 15t43.5 36.5t14 43.5v50l40 -40h-131v83h186v-257h-74l-7 46
q-29 -33 -71 -45.5t-87 -12.5zM254 -49v772h51v-772h-51z" />
    <glyph glyph-name="lira" unicode="&#x20a4;" 
d="M35 0v79h76v124h-90v72h90v76h-90v72h90v76q0 100 52.5 149.5t147.5 49.5q91 0 145.5 -43.5t54.5 -150.5v-13h-88v16q0 61 -29.5 89.5t-82.5 28.5q-56 0 -84 -26.5t-28 -83.5v-92h165v-72h-166v-76h166v-72h-166l-12 -124h325v-79h-476z" />
    <glyph glyph-name="peseta" unicode="&#x20a7;" horiz-adv-x="1094" 
d="M625 -11q-39 0 -62 16.5t-32.5 41.5t-9.5 53v353h-33q-8 -86 -64 -138t-148 -52h-102v-263h-95v686h197q91 0 143 -44t65 -116h38l19 146h68v-146h176q37 12 84 12q57 0 95.5 -20t58 -52.5t19.5 -71.5q0 -5 -0.5 -11.5t-0.5 -7.5h-86v9q0 31 -21 56t-75 25
q-37 0 -56 -11.5t-25.5 -28.5t-6.5 -31q0 -29 20.5 -45t53 -26t68.5 -20t68.5 -27t53 -46.5t20.5 -79.5q0 -56 -25.5 -92t-69.5 -53t-99 -17q-64 0 -104.5 18.5t-61.5 47.5v-51q-13 -6 -32.5 -10t-37.5 -4zM174 346h97q55 0 88.5 34.5t33.5 95.5q0 60 -30.5 93.5t-91.5 33.5
h-97v-257zM866 60q40 0 69 20t29 58q0 34 -20.5 53t-53 30t-68.5 21.5t-68.5 26.5t-53 44t-20.5 75q0 35 14 65h-85v-345q0 -47 44 -47h38q-12 18 -17.5 38.5t-5.5 42.5q0 10 0.5 15t0.5 7h84v-10q0 -50 33 -72t80 -22z" />
    <glyph glyph-name="sterling" unicode="&#xa3;" 
d="M35 0v79h76v225h-90v72h90v123q0 100 52.5 149.5t147.5 49.5q91 0 145.5 -43.5t54.5 -150.5v-13h-88v16q0 61 -29.5 89.5t-82.5 28.5q-56 0 -84 -26.5t-28 -83.5v-139h165v-72h-166l-12 -225h325v-79h-476z" />
    <glyph glyph-name="yen" unicode="&#xa5;" 
d="M239 0v169h-199v65h199v70h-199v65h174l-9.5 12.5t-23 32l-26.5 39.5l-148 233h103l118 -191q27 -43 42.5 -76l15.5 -33h4l8 16.5l21 41.5l27 50l109 192h93l-140 -233q-20 -34 -38 -59l-18 -25h164v-65h-189v-70h189v-65h-189v-169h-88z" />
    <glyph glyph-name="uni2219" unicode="&#x2219;" horiz-adv-x="350" 
d="M167.5 193q-17 0 -31 8.25t-22.25 22.25t-8.25 31t8.25 31t22.25 22.5t31 8.5t31 -8.5t22.5 -22.5t8.5 -31t-8.5 -31t-22.5 -22.25t-31 -8.25z" />
    <glyph glyph-name="uni2215" unicode="&#x2215;" horiz-adv-x="167" 
d="M-226 -12l546 710h72l-546 -710h-72z" />
    <glyph glyph-name="equivalence" unicode="&#x2261;" horiz-adv-x="583" 
d="M57 432v84h472v-84h-472zM57 7v83h472v-83h-472zM57 219v84h472v-84h-472z" />
    <glyph glyph-name="integralbt" unicode="&#x2321;" horiz-adv-x="604" 
d="M187 -250v49q37 0 62 12.5t25 44.5l-0.5 40.5t-2 112.5t-3 168t-3.5 208.5l-4 233l-4 240.5h74l4 -264.5l4 -253.5t3 -220.5t2 -167t1 -91.5q0 -47 -21.5 -71t-57.5 -32.5t-79 -8.5z" />
    <glyph glyph-name="integraltp" unicode="&#x2320;" horiz-adv-x="604" 
d="M273 -250l-4 264.5l-4 253.5t-3 220.5t-2 167t-1 91.5q0 47 21.5 71t57.5 32.5t79 8.5v-49q-37 0 -62 -12.5t-25 -44.5l0.5 -40.5t2 -112.5t3 -168t3.5 -208.5l4 -233l4 -240.5h-74z" />
    <glyph glyph-name="revlogicalnot" unicode="&#x2310;" horiz-adv-x="584" 
d="M56 197v256h473v-93h-389v-163h-84z" />
    <glyph glyph-name="plus" unicode="+" horiz-adv-x="584" 
d="M250 0v213h-194v84h194v214h83v-214h195v-84h-195v-213h-83z" />
    <glyph glyph-name="minus" unicode="&#x2212;" horiz-adv-x="584" 
d="M56 214v83h472v-83h-472z" />
    <glyph glyph-name="multiply" unicode="&#xd7;" horiz-adv-x="584" 
d="M140 45l-59 59l152 151l-152 152l59 59l151 -152l152 152l59 -59l-152 -152l152 -151l-59 -59l-152 152z" />
    <glyph glyph-name="divide" unicode="&#xf7;" horiz-adv-x="549" 
d="M38 214v83h473v-83h-473zM224 0v100h100v-100h-100zM224 411v100h100v-100h-100z" />
    <glyph glyph-name="equal" unicode="=" horiz-adv-x="584" 
d="M56 318v84h473v-84h-473zM56 106v83h473v-83h-473z" />
    <glyph glyph-name="notequal" unicode="&#x2260;" horiz-adv-x="549" 
d="M119 25l43 81h-124v83h168l69 129h-237v84h282l44 82h66l-44 -82h125v-84h-170l-69 -129h239v-83h-283l-43 -81h-66z" />
    <glyph glyph-name="greater" unicode="&#x3e;" horiz-adv-x="584" 
d="M55 4v90l393 160l-393 160v90l474 -197v-107z" />
    <glyph glyph-name="less" unicode="&#x3c;" horiz-adv-x="584" 
d="M529 4l-474 196v107l474 197v-90l-393 -160l393 -160v-90z" />
    <glyph glyph-name="greaterequal" unicode="&#x2265;" horiz-adv-x="549" 
d="M38 124v90l392 160l-392 160v90l473 -197v-107zM38 0v83h473v-83h-473z" />
    <glyph glyph-name="lessequal" unicode="&#x2264;" horiz-adv-x="549" 
d="M511 124l-473 196v107l473 197v-90l-392 -160l392 -160v-90zM38 0v83h473v-83h-473z" />
    <glyph glyph-name="plusminus" unicode="&#xb1;" horiz-adv-x="549" 
d="M233 127v213h-194v84h194v214h83v-214h195v-84h-195v-213h-83zM38 0v83h473v-83h-473z" />
    <glyph glyph-name="approxequal" unicode="&#x2248;" horiz-adv-x="549" 
d="M38 271v92l8.5 11t25.5 25t42.5 25t60.5 11t67 -15l64 -30t68 -15q30 0 55 11t43.5 25t28.5 25l10 11v-92l-8.5 -11t-25.5 -25t-43 -25t-60 -11q-36 0 -67.5 15l-63 30t-68.5 15q-30 0 -55 -11t-43.5 -25t-28.5 -25zM38 57v92l8.5 11t25.5 25t42.5 25t60.5 11t67 -15
l64 -30t68 -15q30 0 55 11t43.5 25t28.5 25l10 11v-92l-8.5 -11t-25.5 -25t-43 -25t-60 -11q-36 0 -67.5 15l-63 30t-68.5 15q-30 0 -55 -11t-43.5 -25t-28.5 -25z" />
    <glyph glyph-name="asciitilde" unicode="~" horiz-adv-x="584" 
d="M41 211v93l9 11t27 25.5t45.5 25.5t63.5 11q38 0 71.5 -15.5l67.5 -30.5t73 -15q32 0 58.5 11t46 25.5t30 25.5l10.5 11v-93l-9 -11t-27 -25.5t-45.5 -25.5t-63.5 -11q-38 0 -71.5 15.5l-67.5 30.5t-73 15q-32 0 -58.5 -11t-46 -25.5t-30 -25.5z" />
    <glyph glyph-name="logicalnot" unicode="&#xac;" horiz-adv-x="584" 
d="M445 197v163h-389v93h473v-256h-84z" />
    <glyph glyph-name="infinity" unicode="&#x221e;" horiz-adv-x="713" 
d="M194 142q-46 0 -79 21t-50.5 56t-17.5 78t18 78.5t51 56.5t79 21q52 0 90.5 -29.5t70.5 -67.5q21 26 45 48t52.5 35.5t63.5 13.5q46 0 79 -21t51 -56.5t18 -78.5t-17.5 -78t-50.5 -56t-79 -21q-36 0 -64.5 13.5t-52.5 35t-45 47.5q-32 -38 -71 -67t-91 -29zM194 214
q34 0 61 24t54 59q-26 33 -53.5 56.5t-60.5 23.5q-30 0 -52 -24t-22 -58t21.5 -57.5t51.5 -23.5zM518 214q20 0 36.5 11t26.5 29t10 41q0 34 -22 58t-52 24q-34 0 -61 -23.5t-54 -56.5q27 -35 54.5 -59t61.5 -24z" />
    <glyph glyph-name="intersection" unicode="&#x2229;" horiz-adv-x="719" 
d="M94 0v410q0 74 35.5 134t96 96t133.5 36q55 0 103.5 -20.5t85 -57t57 -85t20.5 -103.5v-410h-73v411q0 53 -26 97t-70 70t-97 26t-96.5 -26t-69.5 -70t-26 -97v-411h-73z" />
    <glyph glyph-name="integral" unicode="&#x222b;" horiz-adv-x="274" 
d="M33 -141v50q37 0 61 12.5t24 45.5l-1.5 34.5l-4 93l-5.5 131t-5.5 150l-5 150t-4 130.5t-1.5 91q0 47 21.5 71t57.5 32.5t79 8.5v-49q-37 0 -62 -12.5t-25 -44.5l1.5 -34.5l4 -93l5.5 -131.5l6 -151t5.5 -150.5t4 -130.5t1.5 -91q0 -47 -21.5 -71.5t-57 -32.5t-78.5 -8z
" />
    <glyph glyph-name="uni2126" unicode="&#x2126;" horiz-adv-x="748" 
d="M37 0v84h40q17 0 40 -1.5t51 -2.5q-58 44 -89.5 109.5t-31.5 153.5q0 119 39.5 198t112.5 118t175 39t175 -39t112.5 -118t39.5 -198q0 -88 -32.5 -153.5t-90.5 -109.5q22 1 44.5 2.5t48.5 1.5h40v-84h-308v71q62 13 107 39.5t69 81.5t24 151v-5q0 102 -28 163.5
t-79.5 88.5t-121.5 27t-121.5 -26t-79.5 -85.5t-28 -157.5v-5q0 -96 24 -151t68.5 -81.5t106.5 -39.5v-71h-307z" />
    <glyph glyph-name="uni2206" unicode="&#x2206;" horiz-adv-x="612" 
d="M13 0l306 698l280 -698h-586zM96 54h382l-184 448z" />
    <glyph glyph-name="product" unicode="&#x220f;" horiz-adv-x="823" 
d="M140 -128v771h-99v80h741v-80h-101v-771h-94v771h-352v-771h-95z" />
    <glyph glyph-name="summation" unicode="&#x2211;" horiz-adv-x="713" 
d="M59 -128v63l318 364l-308 357v67h602v-78h-470v-4l287 -326l-310 -351v-4h512v-88h-631z" />
    <glyph glyph-name="radical" unicode="&#x221a;" horiz-adv-x="549" 
d="M296 -148l-169 441l-77 -30l-20 60l162 68l127 -347q7 -21 12 -39.5l9 -34.5l137 887h71l-162 -1005h-90z" />
    <glyph glyph-name="uni00B5" unicode="&#xb5;" horiz-adv-x="576" 
d="M77 -173v699h88v-353q0 -67 30 -89.5t79 -22.5q37 0 69 18.5t51.5 52.5t19.5 83v311h88v-526h-67l-10 71h-7q-28 -43 -69.5 -63t-90.5 -20q-27 0 -50.5 6t-42.5 18v-31.5v-31.5v-122h-88z" />
    <glyph glyph-name="partialdiff" unicode="&#x2202;" horiz-adv-x="494" 
d="M216 -12q-56 0 -94 30t-57 79t-19 107q0 76 27 131t70 84.5t91 29.5q34 0 59 -12t40 -28t22 -29h4q1 4 1.5 15.5t0.5 18.5q0 71 -19.5 128t-53.5 90.5t-78 33.5q-34 0 -59 -10t-44 -24v74q22 12 49 20.5t65 8.5q57 0 108 -36t83.5 -113.5t32.5 -202.5q0 -185 -59 -290
t-170 -105zM223 61q37 0 64.5 34t44 88.5t20.5 115.5q-6 19 -19.5 38t-35 32t-49.5 13q-32 0 -57.5 -25t-40 -66t-14.5 -90q0 -63 23 -101.5t64 -38.5z" />
    <glyph glyph-name="orthogonal" unicode="&#x221f;" horiz-adv-x="979" 
d="M177 0v625h74v-559h551v-66h-625z" />
    <glyph glyph-name="percent" unicode="%" horiz-adv-x="889" 
d="M158 0l495 686h80l-496 -686h-79zM213 337q-47 0 -81.5 16.5t-52.5 55.5t-18 108t18 108.5t52.5 56t81.5 16.5t81 -16.5t52 -56t18 -108.5t-18 -108.5t-52 -55.5t-81 -16zM213 396q45 0 60 31t15 86v8q0 55 -15 86.5t-60 31.5t-60 -31.5t-15 -86.5v-8q0 -55 15 -86
t60 -31zM678 -12q-48 0 -82 16t-52 55.5t-18 108.5q0 70 18 109t52 55.5t82 16.5t81.5 -16.5t51.5 -55.5t18 -109t-18 -109t-51.5 -55t-81.5 -16zM678 47q45 0 60 32t15 89v4q0 56 -15 87t-60 31t-60 -31t-15 -87v-4q0 -57 15 -89t60 -32z" />
    <glyph glyph-name="perthousand" unicode="&#x2030;" horiz-adv-x="1000" 
d="M118 0l374 686h65l-375 -686h-64zM160 337q-45 0 -77 16.5t-48.5 55.5t-16.5 108t16.5 108.5t48.5 56t77 16.5t76.5 -16.5t48 -56t16.5 -108.5t-16.5 -108.5t-48 -55.5t-76.5 -16zM160 396q40 0 52.5 31t12.5 86v8q0 55 -12.5 86.5t-52.5 31.5t-52.5 -31.5t-12.5 -86.5
v-8q0 -55 12.5 -86t52.5 -31zM514 -14q-45 0 -76.5 16t-48.5 55.5t-17 108.5q0 70 17 109t48.5 55.5t76.5 16.5t76.5 -16.5t48 -55.5t16.5 -109t-16.5 -109t-48 -55t-76.5 -16zM514 45q40 0 52.5 31t12.5 86v8q0 56 -12.5 87t-52.5 31t-52.5 -31t-12.5 -87v-8
q0 -55 12.5 -86t52.5 -31zM841 -14q-45 0 -77 16t-48.5 55.5t-16.5 108.5q0 70 16.5 109t48.5 55.5t77 16.5t76.5 -16.5t48 -55.5t16.5 -109t-16.5 -109t-48 -55t-76.5 -16zM841 45q41 0 53 31t12 86v8q0 56 -12 87t-53 31t-53 -31t-12 -87v-8q0 -55 12 -86t53 -31z" />
    <glyph glyph-name="arrowup" unicode="&#x2191;" horiz-adv-x="500" 
d="M214 -208v737l-137 -58v42l163 197h21l163 -197v-42l-137 58v-737h-73z" />
    <glyph glyph-name="arrowright" unicode="&#x2192;" horiz-adv-x="1000" 
d="M720 79l58 137h-737v73h737l-58 137h42l197 -163v-21l-197 -163h-42z" />
    <glyph glyph-name="arrowdown" unicode="&#x2193;" horiz-adv-x="500" 
d="M240 -208l-163 197v42l137 -58v737h73v-737l137 58v-42l-163 -197h-21z" />
    <glyph glyph-name="arrowleft" unicode="&#x2190;" horiz-adv-x="1000" 
d="M239 79l-197 163v21l197 163h42l-58 -137h737v-73h-737l58 -137h-42z" />
    <glyph glyph-name="arrowboth" unicode="&#x2194;" horiz-adv-x="1000" 
d="M239 79l-197 163v21l197 163h42l-53 -137h550l-58 137h42l197 -163v-21l-197 -163h-42l58 137h-550l53 -137h-42z" />
    <glyph glyph-name="arrowupdn" unicode="&#x2195;" horiz-adv-x="500" 
d="M239 -206l-163 197v42l137 -58v550l-137 -53v42l163 197h21l163 -197v-42l-137 53v-550l137 58v-42l-163 -197h-21z" />
    <glyph glyph-name="arrowupdnbse" unicode="&#x21a8;" horiz-adv-x="500" 
d="M239 -136l-163 197v42l137 -58v480l-137 -53v42l163 197h21l163 -197v-42l-137 53v-480l137 58v-42l-163 -197h-21zM75 -233v48h350v-48h-350z" />
    <glyph glyph-name="lozenge" unicode="&#x25ca;" horiz-adv-x="584" 
d="M239 -132l-179 430l179 429h107l178 -429l-178 -430h-107zM292 -61l142 359l-142 358l-142 -358z" />
    <glyph glyph-name="at" unicode="@" horiz-adv-x="1015" 
d="M483 -153q-131 0 -227 43.5t-147.5 135.5t-51.5 236q0 120 37 203t101.5 134.5t148.5 75t178 23.5t174 -21.5t139 -66.5t91.5 -116.5t32.5 -172.5q0 -85 -22 -142.5t-57 -92t-75 -49.5t-76 -15q-26 0 -44.5 4.5t-31 12.5t-20.5 19.5t-12 25.5h-5q-25 -29 -64.5 -46
t-88.5 -17q-21 0 -47 5t-50 19t-39.5 40.5t-15.5 69.5q0 66 40 100.5t108.5 47t156.5 12.5v58q0 36 -20.5 59t-82.5 23q-57 0 -78 -24t-21 -52v-11h-80q-1 4 -1 9v11q0 66 52.5 99.5t135.5 33.5q88 0 131.5 -36t43.5 -102v-258q0 -20 13.5 -29t37.5 -9q33 0 67 20t57 71
t23 144q0 112 -47.5 182t-131.5 102.5t-194 32.5q-123 0 -212 -41.5t-137.5 -125.5t-48.5 -211q0 -177 87.5 -266t272.5 -89q25 0 60.5 4t69 11.5t53.5 16.5v-64q-23 -8 -57 -14t-68 -9.5t-58 -3.5zM485 87q31 0 61.5 13t50 39.5t19.5 65.5v44q-66 0 -116 -6.5t-78 -25.5
t-28 -57q0 -41 22 -57t69 -16z" />
    <glyph glyph-name="ampersand" unicode="&#x26;" horiz-adv-x="667" 
d="M301 -12q-75 0 -133.5 23.5t-91.5 67.5t-33 105q0 68 34.5 110t87.5 58v4q-46 22 -76.5 57.5t-30.5 96.5t31.5 103t88.5 63.5t133 21.5q74 0 131 -23t89 -65.5t32 -99.5v-18h-88v9q0 64 -46.5 93t-118.5 29q-44 0 -80.5 -12t-59 -37.5t-22.5 -68.5q0 -41 20 -67.5
t53 -39.5t71 -13h61v-73h-59q-41 0 -77.5 -10.5t-59.5 -37t-23 -74.5q0 -68 48 -97.5t127 -29.5q83 0 124.5 32t41.5 96v194h173v-74h-85v-117q0 -94 -66.5 -150t-195.5 -56z" />
    <glyph glyph-name="paragraph" unicode="&#xb6;" horiz-adv-x="537" 
d="M233 -168v421q-55 0 -104 23.5t-80 71.5t-31 120q0 80 32.5 128t88 69t123.5 21h266v-61h-61v-793h-84v793h-66v-793h-84z" />
    <glyph glyph-name="section" unicode="&#xa7;" 
d="M269 -182q-69 0 -116 20t-71.5 52.5t-24.5 71.5q0 5 0.5 11.5t0.5 7.5h92v-9q0 -20 11.5 -39t40 -31t78.5 -12q56 0 82.5 15t34.5 34t8 33q0 34 -26 56t-67.5 38t-87.5 32t-87.5 38t-67.5 55.5t-26 85.5q0 49 30.5 82.5t67.5 51.5q-37 23 -60.5 55t-23.5 82q0 46 27 80
t78.5 52t124.5 18q69 0 116 -20t71.5 -52.5t24.5 -71.5q0 -5 -0.5 -11.5t-0.5 -7.5h-92v9q0 20 -11.5 39t-40 31t-78.5 12q-56 0 -82.5 -15t-34.5 -34.5t-8 -33.5q0 -34 26 -56t67.5 -37.5l87.5 -31.5t87.5 -38t67.5 -55.5t26 -85.5q0 -49 -30.5 -82.5t-67.5 -52.5
q35 -22 59.5 -54t24.5 -82q0 -46 -27 -80t-78.5 -52t-124.5 -18zM352 136q32 13 52.5 33.5t20.5 48.5q0 36 -19.5 60t-52 41t-71.5 31l-79 29q-33 -12 -52.5 -32.5t-19.5 -48.5q0 -36 19.5 -60t51.5 -41t71.5 -31t78.5 -30z" />
    <glyph glyph-name="copyright" unicode="&#xa9;" horiz-adv-x="737" 
d="M368 -12q-74 0 -138 27.5t-113 76.5t-76.5 113.5t-27.5 137.5t27.5 137.5t76.5 113.5t113 76.5t138 27.5t138 -27.5t113 -76.5t76.5 -113.5t27.5 -137.5t-27.5 -137.5t-76.5 -113.5t-113 -76.5t-138 -27.5zM368 134q-92 0 -134.5 50.5t-42.5 158.5t43 159t134 51
q84 0 121 -40.5t37 -117.5h-68q0 53 -19 77.5t-71 24.5q-56 0 -82 -35.5t-26 -118.5t25.5 -118.5t82.5 -35.5q51 0 72.5 26.5t21.5 76.5h64q0 -42 -16 -78t-50.5 -58t-91.5 -22zM368 35q63 0 118.5 24t97.5 66.5t66 98t24 119.5t-24 119.5t-66 98t-97.5 66.5t-118.5 24
t-118.5 -24t-97.5 -66.5t-66 -98t-24 -119.5t24 -119.5t66 -98t97.5 -66.5t118.5 -24z" />
    <glyph glyph-name="registered" unicode="&#xae;" horiz-adv-x="737" 
d="M368 -12q-74 0 -138 27.5t-113 76.5t-76.5 113.5t-27.5 137.5t27.5 137.5t76.5 113.5t113 76.5t138 27.5t138 -27.5t113 -76.5t76.5 -113.5t27.5 -137.5t-27.5 -137.5t-76.5 -113.5t-113 -76.5t-138 -27.5zM368 35q63 0 118.5 24t97.5 66.5t66 98t24 119.5t-24 119.5
t-66 98t-97.5 66.5t-118.5 24t-118.5 -24t-97.5 -66.5t-66 -98t-24 -119.5t24 -119.5t66 -98t97.5 -66.5t118.5 -24zM224 138v411h190q63 0 94.5 -34.5t31.5 -88.5q0 -41 -18 -72t-54 -45l87 -171h-72l-80 160h-111v-160h-68zM292 354h112q30 0 48.5 19t18.5 53q0 67 -67 67
h-112v-139z" />
    <glyph glyph-name="trademark" unicode="&#x2122;" horiz-adv-x="1000" 
d="M222 283v341h-142v63h350v-63h-141v-341h-67zM485 282v405h106l105 -316h5l105 316h104v-405h-67v329h-5l-112 -329h-64l-111 329h-5v-329h-61z" />
    <glyph glyph-name="afii61248" unicode="&#x2105;" horiz-adv-x="885" 
d="M149 -12l497 710h74l-496 -710h-75zM204 311q-82 0 -119.5 46.5t-37.5 146.5t38.5 147t118.5 47q49 0 79.5 -18t45 -53t14.5 -85h-83q0 46 -12 68.5t-44 22.5q-38 0 -55.5 -26t-17.5 -99v-8q0 -73 17.5 -99t55.5 -26q32 0 46 23.5t14 67.5h79q0 -42 -14 -77t-44.5 -56.5
t-80.5 -21.5zM677 -12q-79 0 -120 47t-41 147t41 147t120 47t120 -47t41 -147t-41 -147t-120 -47zM677 53q39 0 59 25.5t20 99.5v8q0 74 -20 100t-59 26t-58.5 -26t-19.5 -100v-8q0 -74 19.5 -99.5t58.5 -25.5z" />
    <glyph glyph-name="degree" unicode="&#xb0;" horiz-adv-x="400" 
d="M198 428q-38 0 -68.5 18t-48.5 49t-18 68t18 68t48.5 49t68.5 18t68.5 -18t48.5 -49t18 -68t-18 -68t-48.5 -49t-68.5 -18zM198 481q34 0 57.5 24t23.5 58t-23.5 57.5t-57.5 23.5t-58 -23.5t-24 -57.5t24 -58t58 -24z" />
    <glyph glyph-name="bar" unicode="|" horiz-adv-x="260" 
d="M91 -173v896h78v-896h-78z" />
    <glyph glyph-name="brokenbar" unicode="&#xa6;" horiz-adv-x="260" 
d="M91 357v366h78v-366h-78zM91 -173v366h78v-366h-78z" />
    <glyph glyph-name="afii61289" unicode="&#x2113;" horiz-adv-x="323" 
d="M204 -12q-52 0 -82.5 24.5t-44.5 65t-15 90.5v54l15 -24l-49 -48v70l16 16t17 19v253q0 86 19.5 135.5t50 70.5t63.5 21q52 0 78 -43.5t26 -109.5q0 -59 -21 -117.5t-59 -115.5t-88 -113v-38q0 -76 25.5 -108.5t61.5 -32.5q20 0 37.5 8.5t31.5 21.5v-73
q-19 -13 -38.5 -19.5t-43.5 -6.5zM130 318q47 63 79.5 130.5t32.5 134.5q0 41 -11 64.5t-36 23.5q-16 0 -31 -15t-24.5 -50.5t-9.5 -97.5v-190z" />
    <glyph glyph-name="dagger" unicode="&#x2020;" 
d="M230 -170l20 601l-205 -18v93l205 -17l-17 197h88l-17 -197l206 17v-93l-206 18l20 -601h-94z" />
    <glyph glyph-name="daggerdbl" unicode="&#x2021;" 
d="M233 -170l17 197l-205 -17v93l205 -18l-20 175l20 171l-205 -18v93l205 -17l-17 197h88l-17 -197l206 17v-93l-206 18l20 -171l-20 -175l206 18v-93l-206 17l17 -197h-88z" />
    <glyph glyph-name="estimated" unicode="&#x212e;" horiz-adv-x="600" 
d="M302 -12q-80 0 -137.5 35.5t-88.5 98t-31 141.5t31 141.5t88.5 98t137.5 35.5t137.5 -37t88.5 -101t31 -147v-5h-406v-165q28 -25 65.5 -39t83.5 -14q66 0 115 29.5t75 79.5l34 -21q-32 -60 -89 -95t-135 -35zM153 290h298v151q-29 26 -66 40.5t-83 14.5t-83.5 -14
t-65.5 -40v-152z" />
    <glyph glyph-name="afii61352" unicode="&#x2116;" horiz-adv-x="1073" 
d="M79 0v686h85l336 -468l10 -14l10 -14l10 -14l4 1v22v22v22v443h89v-686h-81l-340 477l-15 21l-15 21l-4 -1v-20v-19.5v-19.5v-459h-89zM715 198v66h293v-66h-293zM861 304q-79 0 -119.5 47.5t-40.5 149.5t40.5 149.5t119.5 47.5q77 0 118.5 -47.5t41.5 -149.5
t-41.5 -149.5t-118.5 -47.5zM861 370q38 0 56.5 27.5t18.5 98.5v10q0 71 -18.5 98.5t-56.5 27.5q-37 0 -56 -27.5t-19 -98.5v-10q0 -71 19 -98.5t56 -27.5z" />
    <glyph glyph-name="asciicircum" unicode="^" horiz-adv-x="469" 
d="M25 294l156 392h107l157 -392h-90l-121 315l-119 -315h-90z" />
    <glyph glyph-name="house" unicode="&#x2302;" horiz-adv-x="604" 
d="M77 0v310l225 253l225 -253v-310h-450zM116 40h372v253l-186 208l-186 -208v-253z" />
    <glyph glyph-name="minute" unicode="&#x2032;" horiz-adv-x="187" 
d="M49 515l28 171h100l1 -3l-52 -168h-77z" />
    <glyph glyph-name="second" unicode="&#x2033;" horiz-adv-x="354" 
d="M191 515l28 171h100l1 -3l-52 -168h-77zM49 515l28 171h100l1 -3l-52 -168h-77z" />
    <glyph glyph-name="ampersand.alt" horiz-adv-x="667" 
d="M268 344q-60 -20 -97 -62t-37 -98q0 -60 43 -92t103 -32q76 0 129.5 39.5t82 104t28.5 140.5h83q0 -75 -23.5 -140t-67.5 -113.5t-104.5 -76t-135.5 -27.5q-62 0 -113.5 23t-82.5 66.5t-31 105.5q0 56 23.5 99.5t62.5 74.5t85 49zM258 417q36 13 67.5 29.5t51 40.5
t19.5 59q0 39 -24.5 59t-54.5 20q-32 0 -59.5 -22.5t-27.5 -69.5q0 -41 16 -69t32 -44l383 -420h-114l-339 375q-29 31 -47.5 68.5t-18.5 84.5q0 51 24 89.5t64.5 60t91.5 21.5q45 0 81.5 -17.5t58.5 -50.5t22 -78q0 -56 -28 -94.5t-69 -63.5t-81 -39z" />
    <glyph glyph-name="hookabovecomb" unicode="&#x309;" horiz-adv-x="0" 
d="M134 591v61h13q16 0 22.5 4.5t6.5 13.5q0 10 -8 14t-23 4h-60v39q16 4 36 6t36 2q19 0 40.5 -5t36 -17.5t14.5 -37.5q0 -27 -18 -40.5t-40 -15.5v-28h-56z" />
    <glyph glyph-name="uni030F" unicode="&#x30f;" horiz-adv-x="0" 
d="M250 591l-84 129l1 3h97l62 -132h-76zM111 591l-84 129l1 3h97l62 -132h-76z" />
    <glyph glyph-name="uni0311" unicode="&#x311;" horiz-adv-x="0" 
d="M21 606q0 28 13 54.5t44.5 44.5t87.5 18t88 -18t45 -44.5t13 -54.5h-61q-2 16 -19.5 34.5t-65.5 18.5q-32 0 -49.5 -8.5t-25 -21t-9.5 -23.5h-61z" />
    <glyph glyph-name="uni031B" unicode="&#x31b;" horiz-adv-x="0" 
d="M-16 433v56q69 8 104.5 39t35.5 90l62 14q0 -84 -51 -135.5t-151 -63.5zM66 578v108h120v-54l-41 -54h-79z" />
    <glyph glyph-name="dotbelowcomb" unicode="&#x323;" horiz-adv-x="0" 
d="M123 -173v95h87v-95h-87z" />
    <glyph glyph-name="commaaccent" unicode="&#x326;" horiz-adv-x="222" 
d="M67 -230l37 81h-37v91h88v-84l-43 -88h-45z" />
    <glyph glyph-name="uni0328" unicode="&#x328;" horiz-adv-x="0" 
d="M183 -182q-23 0 -47 8t-39.5 28t-15.5 54q0 37 17 60.5t39 43.5h60v-4q-11 -10 -24.5 -29.5t-13.5 -40.5t12 -38t41 -17h32v-51q-16 -7 -31 -10.5t-30 -3.5z" />
    <glyph glyph-name="afii57929" unicode="&#x2bc;" horiz-adv-x="201" 
d="M58 490l34 105h-34v91h85v-84l-41 -112h-44z" />
    <glyph glyph-name="uni02C9" unicode="&#x2c9;" horiz-adv-x="333" 
d="M14 627v72h305v-72h-305z" />
    <glyph glyph-name="acute" unicode="&#xb4;" horiz-adv-x="333" 
d="M75 591l86 132h96l1 -3l-108 -129h-75z" />
    <glyph glyph-name="breve" unicode="&#x2d8;" horiz-adv-x="333" 
d="M166 606q-56 0 -87.5 18t-44.5 45t-13 54h61q2 -11 9.5 -23.5t25 -21t49.5 -8.5q48 0 65.5 18t19.5 35h61q0 -27 -13 -54t-45 -45t-88 -18z" />
    <glyph glyph-name="caron" unicode="&#x2c7;" horiz-adv-x="333" 
d="M125 588l-106 135h90l58 -79l57 79h90l-105 -135h-84z" />
    <glyph glyph-name="cedilla" unicode="&#xb8;" horiz-adv-x="333" 
d="M147 -182q-24 0 -49.5 2t-45.5 6v49h100q19 0 30 5t11 19q0 12 -8.5 18t-30.5 6h-51l16 88h62l-8 -47q37 -2 64.5 -16t27.5 -49q0 -33 -19.5 -50.5t-47.5 -24t-51 -6.5z" />
    <glyph glyph-name="circumflex" unicode="&#x2c6;" horiz-adv-x="333" 
d="M19 588l106 135h84l105 -135h-90l-57 79l-58 -79h-90z" />
    <glyph glyph-name="dieresis" unicode="&#xa8;" horiz-adv-x="333" 
d="M217 628v95h87v-95h-87zM30 628v95h87v-95h-87z" />
    <glyph glyph-name="dotaccent" unicode="&#x2d9;" horiz-adv-x="333" 
d="M123 628v95h87v-95h-87z" />
    <glyph glyph-name="grave" unicode="`" horiz-adv-x="333" 
d="M183 591l-108 129l1 3h96l86 -132h-75z" />
    </font>
</defs>
</svg>
